<svg width="589" height="223" viewBox="0 0 589 223" fill="none" xmlns="http://www.w3.org/2000/svg">
<g clip-path="url(#clip0_304_1611)">
<mask id="path-1-outside-1_304_1611" maskUnits="userSpaceOnUse" x="17" y="11" width="544" height="192" fill="black">
<rect fill="white" x="17" y="11" width="544" height="192"/>
<path d="M22.5859 86.5117L34.9883 17.8105C35.0534 17.5501 35.2161 17.4199 35.4766 17.4199H49.9785C50.2389 17.4199 50.4017 17.5501 50.4668 17.8105L62.3809 86.5117C62.4134 86.8372 62.2832 87 61.9902 87H50.9062C50.5807 87 50.4017 86.8372 50.3691 86.5117L49.2949 79.1875H35.6719L34.5977 86.5117C34.5651 86.8372 34.4023 87 34.1094 87H22.9766C22.7161 87 22.5859 86.8372 22.5859 86.5117ZM42.166 40.418L37.6738 68.4941H47.293L43.1914 40.418L42.6055 36.707L42.166 40.418ZM98.9414 87H81.0215C80.7611 87 80.6309 86.8372 80.6309 86.5117L80.8262 17.8105C80.8262 17.5501 80.9564 17.4199 81.2168 17.4199H100.455C104.199 17.4199 107.6 18.3314 110.66 20.1543C113.655 21.9772 116.015 24.4023 117.74 27.4297C119.465 30.4245 120.328 33.6797 120.328 37.1953C120.328 40.0599 119.677 42.7292 118.375 45.2031C117.073 47.6771 115.527 49.679 113.736 51.209C115.657 53.1296 117.154 55.3594 118.229 57.8984C119.303 60.4375 119.84 63.1068 119.84 65.9062C119.84 69.7799 118.912 73.3118 117.057 76.502C115.169 79.6921 112.646 82.2474 109.488 84.168C106.331 86.056 102.815 87 98.9414 87ZM100.455 29.2852H92.8379V45.0078H100.455C102.766 45.0078 104.638 44.194 106.07 42.5664C107.503 40.9062 108.219 39.1159 108.219 37.1953C108.219 35.0794 107.454 33.2402 105.924 31.6777C104.394 30.0827 102.571 29.2852 100.455 29.2852ZM98.9414 57.1172H92.8379L92.7402 74.793H98.9414C101.35 74.793 103.417 73.9141 105.143 72.1562C106.868 70.3984 107.73 68.3151 107.73 65.9062C107.73 63.4974 106.868 61.4303 105.143 59.7051C103.417 57.9798 101.35 57.1172 98.9414 57.1172ZM157.523 87.9766C153.975 87.9766 150.704 87.0651 147.709 85.2422C144.747 83.4193 142.354 80.9941 140.531 77.9668C138.741 74.9069 137.846 71.554 137.846 67.9082L137.943 36.2188C137.943 32.5078 138.839 29.1712 140.629 26.209C142.387 23.2142 144.763 20.8216 147.758 19.0312C150.753 17.2083 154.008 16.2969 157.523 16.2969C161.169 16.2969 164.441 17.1921 167.338 18.9824C170.268 20.7728 172.611 23.1816 174.369 26.209C176.16 29.2038 177.055 32.5404 177.055 36.2188L177.152 67.9082C177.152 71.554 176.273 74.8906 174.516 77.918C172.725 80.9779 170.349 83.4193 167.387 85.2422C164.424 87.0651 161.137 87.9766 157.523 87.9766ZM157.523 75.916C159.542 75.916 161.299 75.1022 162.797 73.4746C164.294 71.8145 165.043 69.959 165.043 67.9082L164.945 36.2188C164.945 34.0052 164.245 32.1335 162.846 30.6035C161.446 29.0736 159.672 28.3086 157.523 28.3086C155.473 28.3086 153.715 29.0573 152.25 30.5547C150.785 32.0521 150.053 33.9401 150.053 36.2188V67.9082C150.053 70.0892 150.785 71.9772 152.25 73.5723C153.715 75.1348 155.473 75.916 157.523 75.916ZM215.129 87.9766C211.613 87.9766 208.358 87.0651 205.363 85.2422C202.368 83.4193 199.976 80.9779 198.186 77.918C196.428 74.8255 195.549 71.4564 195.549 67.8105L195.744 17.8105C195.744 17.5501 195.874 17.4199 196.135 17.4199H207.365C207.626 17.4199 207.756 17.5501 207.756 17.8105V67.8105C207.756 70.0566 208.472 71.9772 209.904 73.5723C211.337 75.1348 213.078 75.916 215.129 75.916C217.277 75.916 219.068 75.1348 220.5 73.5723C221.932 71.9772 222.648 70.0566 222.648 67.8105V17.8105C222.648 17.5501 222.779 17.4199 223.039 17.4199H234.27C234.53 17.4199 234.66 17.5501 234.66 17.8105L234.855 67.8105C234.855 71.4889 233.977 74.8743 232.219 77.9668C230.428 81.0267 228.052 83.4681 225.09 85.291C222.128 87.0814 218.807 87.9766 215.129 87.9766ZM276.055 87H264.775C264.482 87 264.336 86.8372 264.336 86.5117V29.4805H251.348C251.022 29.4805 250.859 29.3177 250.859 28.9922L250.957 17.8105C250.957 17.5501 251.087 17.4199 251.348 17.4199H289.336C289.694 17.4199 289.873 17.5501 289.873 17.8105V28.9922C289.873 29.3177 289.743 29.4805 289.482 29.4805H276.348L276.445 86.5117C276.445 86.8372 276.315 87 276.055 87ZM341.363 86.5117L353.766 17.8105C353.831 17.5501 353.993 17.4199 354.254 17.4199H368.756C369.016 17.4199 369.179 17.5501 369.244 17.8105L381.158 86.5117C381.191 86.8372 381.061 87 380.768 87H369.684C369.358 87 369.179 86.8372 369.146 86.5117L368.072 79.1875H354.449L353.375 86.5117C353.342 86.8372 353.18 87 352.887 87H341.754C341.493 87 341.363 86.8372 341.363 86.5117ZM360.943 40.418L356.451 68.4941H366.07L361.969 40.418L361.383 36.707L360.943 40.418ZM410.297 87H400.287C399.766 87 399.506 86.7721 399.506 86.3164L399.408 18.2012C399.408 17.6803 399.669 17.4199 400.189 17.4199H409.223L426.117 56.8242L425.629 18.2012C425.629 17.6803 425.922 17.4199 426.508 17.4199H436.42C436.811 17.4199 437.006 17.6803 437.006 18.2012L437.104 86.4141C437.104 86.8047 436.941 87 436.615 87H427.826L410.492 50.1836L411.225 86.2188C411.225 86.7396 410.915 87 410.297 87ZM476.203 86.9023L458.283 87C457.958 87 457.795 86.8372 457.795 86.5117L457.99 17.8105C457.99 17.5501 458.12 17.4199 458.381 17.4199L477.082 17.3223C480.793 17.2246 484.146 18.071 487.141 19.8613C490.168 21.6517 492.577 24.0768 494.367 27.1367C496.19 30.1641 497.102 33.5169 497.102 37.1953V65.9062C497.102 69.7474 496.174 73.263 494.318 76.4531C492.43 79.6107 489.924 82.1335 486.799 84.0215C483.674 85.877 480.142 86.8372 476.203 86.9023ZM477.082 29.2852L470.1 29.3828L470.002 74.6953H476.203C478.677 74.6953 480.76 73.8327 482.453 72.1074C484.146 70.3822 484.992 68.3151 484.992 65.9062V37.0977C484.992 34.9818 484.211 33.1426 482.648 31.5801C481.086 29.985 479.23 29.2201 477.082 29.2852ZM47.293 197H36.0137C35.7207 197 35.5742 196.837 35.5742 196.512V139.48H22.5859C22.2604 139.48 22.0977 139.318 22.0977 138.992L22.1953 127.811C22.1953 127.55 22.3255 127.42 22.5859 127.42H60.5742C60.9323 127.42 61.1113 127.55 61.1113 127.811V138.992C61.1113 139.318 60.9811 139.48 60.7207 139.48H47.5859L47.6836 196.512C47.6836 196.837 47.5534 197 47.293 197ZM94.4492 197.977C90.901 197.977 87.6296 197.065 84.6348 195.242C81.6725 193.419 79.2799 190.994 77.457 187.967C75.6667 184.907 74.7715 181.554 74.7715 177.908L74.8691 146.219C74.8691 142.508 75.7643 139.171 77.5547 136.209C79.3125 133.214 81.6888 130.822 84.6836 129.031C87.6784 127.208 90.9336 126.297 94.4492 126.297C98.0951 126.297 101.367 127.192 104.264 128.982C107.193 130.773 109.537 133.182 111.295 136.209C113.085 139.204 113.98 142.54 113.98 146.219L114.078 177.908C114.078 181.554 113.199 184.891 111.441 187.918C109.651 190.978 107.275 193.419 104.312 195.242C101.35 197.065 98.0625 197.977 94.4492 197.977ZM94.4492 185.916C96.4674 185.916 98.2253 185.102 99.7227 183.475C101.22 181.814 101.969 179.959 101.969 177.908L101.871 146.219C101.871 144.005 101.171 142.133 99.7715 140.604C98.3717 139.074 96.5977 138.309 94.4492 138.309C92.3984 138.309 90.6406 139.057 89.1758 140.555C87.7109 142.052 86.9785 143.94 86.9785 146.219V177.908C86.9785 180.089 87.7109 181.977 89.1758 183.572C90.6406 185.135 92.3984 185.916 94.4492 185.916ZM145.365 197H134.037C133.777 197 133.646 196.837 133.646 196.512L133.842 127.908C133.842 127.583 133.972 127.42 134.232 127.42H145.463C145.723 127.42 145.854 127.583 145.854 127.908V151.59L161.527 127.811C161.788 127.55 162.032 127.42 162.26 127.42H173.734C174.027 127.42 174.092 127.55 173.93 127.811L156.645 155.398L176.029 196.609C176.192 196.87 176.029 197 175.541 197H163.334C163.008 197 162.813 196.87 162.748 196.609L149.223 167.215L145.756 172.684V196.512C145.756 196.837 145.626 197 145.365 197ZM225.236 197H192.912C192.652 197 192.521 196.837 192.521 196.512L192.619 127.811C192.619 127.55 192.749 127.42 193.01 127.42H225.139C225.399 127.42 225.529 127.583 225.529 127.908V139.09C225.529 139.35 225.399 139.48 225.139 139.48H204.631V155.105H225.139C225.399 155.105 225.529 155.236 225.529 155.496L225.627 166.824C225.627 167.085 225.497 167.215 225.236 167.215H204.631V184.695H225.236C225.497 184.695 225.627 184.858 225.627 185.184V196.609C225.627 196.87 225.497 197 225.236 197ZM257.402 197H247.393C246.872 197 246.611 196.772 246.611 196.316L246.514 128.201C246.514 127.68 246.774 127.42 247.295 127.42H256.328L273.223 166.824L272.734 128.201C272.734 127.68 273.027 127.42 273.613 127.42H283.525C283.916 127.42 284.111 127.68 284.111 128.201L284.209 196.414C284.209 196.805 284.046 197 283.721 197H274.932L257.598 160.184L258.33 196.219C258.33 196.74 258.021 197 257.402 197ZM323.406 197.977C319.858 197.977 316.587 197.065 313.592 195.242C310.63 193.419 308.237 190.994 306.414 187.967C304.624 184.907 303.729 181.554 303.729 177.908L303.826 146.219C303.826 142.508 304.721 139.171 306.512 136.209C308.27 133.214 310.646 130.822 313.641 129.031C316.635 127.208 319.891 126.297 323.406 126.297C327.052 126.297 330.324 127.192 333.221 128.982C336.15 130.773 338.494 133.182 340.252 136.209C342.042 139.204 342.938 142.54 342.938 146.219L343.035 177.908C343.035 181.554 342.156 184.891 340.398 187.918C338.608 190.978 336.232 193.419 333.27 195.242C330.307 197.065 327.02 197.977 323.406 197.977ZM323.406 185.916C325.424 185.916 327.182 185.102 328.68 183.475C330.177 181.814 330.926 179.959 330.926 177.908L330.828 146.219C330.828 144.005 330.128 142.133 328.729 140.604C327.329 139.074 325.555 138.309 323.406 138.309C321.355 138.309 319.598 139.057 318.133 140.555C316.668 142.052 315.936 143.94 315.936 146.219V177.908C315.936 180.089 316.668 181.977 318.133 183.572C319.598 185.135 321.355 185.916 323.406 185.916ZM374.322 197H362.994C362.734 197 362.604 196.837 362.604 196.512L362.799 127.811C362.799 127.55 362.929 127.42 363.189 127.42H375.396C375.657 127.42 375.885 127.55 376.08 127.811L385.211 140.994L394.293 127.811C394.488 127.55 394.732 127.42 395.025 127.42H407.281C407.574 127.42 407.721 127.55 407.721 127.811L407.916 196.512C407.916 196.837 407.786 197 407.525 197H396.197C395.937 197 395.807 196.837 395.807 196.512L395.709 145.486L385.211 160.721L374.811 145.486L374.713 196.512C374.713 196.837 374.583 197 374.322 197ZM440.131 197H428.803C428.477 197 428.314 196.837 428.314 196.512L428.412 127.811C428.412 127.55 428.542 127.42 428.803 127.42H440.033C440.294 127.42 440.424 127.55 440.424 127.811L440.521 196.512C440.521 196.837 440.391 197 440.131 197ZM479.719 197.977C476.105 197.977 472.801 197.065 469.807 195.242C466.844 193.419 464.484 190.978 462.727 187.918C461.001 184.826 460.139 181.391 460.139 177.615L460.236 146.414C460.236 142.703 461.083 139.35 462.775 136.355C464.468 133.328 466.796 130.903 469.758 129.08C472.753 127.225 476.073 126.297 479.719 126.297C483.43 126.297 486.734 127.192 489.631 128.982C492.561 130.773 494.888 133.198 496.613 136.258C498.371 139.285 499.25 142.671 499.25 146.414V151.004C499.25 151.264 499.12 151.395 498.859 151.395H487.629C487.368 151.395 487.238 151.264 487.238 151.004V146.414C487.238 144.201 486.522 142.296 485.09 140.701C483.658 139.106 481.867 138.309 479.719 138.309C477.342 138.309 475.52 139.122 474.25 140.75C472.98 142.378 472.346 144.266 472.346 146.414V177.615C472.346 180.057 473.062 182.059 474.494 183.621C475.926 185.151 477.668 185.916 479.719 185.916C481.867 185.916 483.658 185.07 485.09 183.377C486.522 181.652 487.238 179.731 487.238 177.615V172.977C487.238 172.716 487.368 172.586 487.629 172.586H498.957C499.217 172.586 499.348 172.716 499.348 172.977V177.615C499.348 181.359 498.469 184.777 496.711 187.869C494.921 190.929 492.561 193.387 489.631 195.242C486.701 197.065 483.397 197.977 479.719 197.977ZM535.615 197.977C532.067 197.977 528.796 197.065 525.801 195.242C522.839 193.419 520.462 190.994 518.672 187.967C516.914 184.907 516.035 181.554 516.035 177.908V173.318C516.035 172.96 516.198 172.781 516.523 172.781H527.754C528.014 172.781 528.145 172.96 528.145 173.318V177.908C528.145 180.089 528.877 181.977 530.342 183.572C531.807 185.135 533.564 185.916 535.615 185.916C537.699 185.916 539.473 185.118 540.938 183.523C542.402 181.896 543.135 180.024 543.135 177.908C543.135 175.467 541.54 173.335 538.35 171.512C537.829 171.186 537.145 170.796 536.299 170.34C535.485 169.852 534.508 169.298 533.369 168.68C532.23 168.061 531.123 167.459 530.049 166.873C528.975 166.255 527.933 165.669 526.924 165.115C523.278 162.967 520.56 160.281 518.77 157.059C517.012 153.803 516.133 150.158 516.133 146.121C516.133 142.41 517.044 139.057 518.867 136.062C520.69 133.1 523.066 130.757 525.996 129.031C528.958 127.273 532.165 126.395 535.615 126.395C539.163 126.395 542.419 127.273 545.381 129.031C548.343 130.822 550.703 133.198 552.461 136.16C554.251 139.122 555.146 142.443 555.146 146.121V154.324C555.146 154.585 555.016 154.715 554.756 154.715H543.525C543.265 154.715 543.135 154.585 543.135 154.324L543.037 146.121C543.037 143.777 542.305 141.873 540.84 140.408C539.375 138.943 537.633 138.211 535.615 138.211C533.564 138.211 531.807 138.992 530.342 140.555C528.877 142.117 528.145 143.973 528.145 146.121C528.145 148.302 528.6 150.125 529.512 151.59C530.456 153.055 532.165 154.454 534.639 155.789C534.899 155.919 535.501 156.245 536.445 156.766C537.389 157.286 538.431 157.872 539.57 158.523C540.742 159.142 541.8 159.712 542.744 160.232C543.688 160.721 544.258 161.014 544.453 161.111C547.773 162.967 550.394 165.245 552.314 167.947C554.268 170.649 555.244 173.969 555.244 177.908C555.244 181.717 554.365 185.135 552.607 188.162C550.817 191.189 548.441 193.582 545.479 195.34C542.516 197.098 539.229 197.977 535.615 197.977Z"/>
</mask>
<path d="M22.5859 86.5117L34.9883 17.8105C35.0534 17.5501 35.2161 17.4199 35.4766 17.4199H49.9785C50.2389 17.4199 50.4017 17.5501 50.4668 17.8105L62.3809 86.5117C62.4134 86.8372 62.2832 87 61.9902 87H50.9062C50.5807 87 50.4017 86.8372 50.3691 86.5117L49.2949 79.1875H35.6719L34.5977 86.5117C34.5651 86.8372 34.4023 87 34.1094 87H22.9766C22.7161 87 22.5859 86.8372 22.5859 86.5117ZM42.166 40.418L37.6738 68.4941H47.293L43.1914 40.418L42.6055 36.707L42.166 40.418ZM98.9414 87H81.0215C80.7611 87 80.6309 86.8372 80.6309 86.5117L80.8262 17.8105C80.8262 17.5501 80.9564 17.4199 81.2168 17.4199H100.455C104.199 17.4199 107.6 18.3314 110.66 20.1543C113.655 21.9772 116.015 24.4023 117.74 27.4297C119.465 30.4245 120.328 33.6797 120.328 37.1953C120.328 40.0599 119.677 42.7292 118.375 45.2031C117.073 47.6771 115.527 49.679 113.736 51.209C115.657 53.1296 117.154 55.3594 118.229 57.8984C119.303 60.4375 119.84 63.1068 119.84 65.9062C119.84 69.7799 118.912 73.3118 117.057 76.502C115.169 79.6921 112.646 82.2474 109.488 84.168C106.331 86.056 102.815 87 98.9414 87ZM100.455 29.2852H92.8379V45.0078H100.455C102.766 45.0078 104.638 44.194 106.07 42.5664C107.503 40.9062 108.219 39.1159 108.219 37.1953C108.219 35.0794 107.454 33.2402 105.924 31.6777C104.394 30.0827 102.571 29.2852 100.455 29.2852ZM98.9414 57.1172H92.8379L92.7402 74.793H98.9414C101.35 74.793 103.417 73.9141 105.143 72.1562C106.868 70.3984 107.73 68.3151 107.73 65.9062C107.73 63.4974 106.868 61.4303 105.143 59.7051C103.417 57.9798 101.35 57.1172 98.9414 57.1172ZM157.523 87.9766C153.975 87.9766 150.704 87.0651 147.709 85.2422C144.747 83.4193 142.354 80.9941 140.531 77.9668C138.741 74.9069 137.846 71.554 137.846 67.9082L137.943 36.2188C137.943 32.5078 138.839 29.1712 140.629 26.209C142.387 23.2142 144.763 20.8216 147.758 19.0312C150.753 17.2083 154.008 16.2969 157.523 16.2969C161.169 16.2969 164.441 17.1921 167.338 18.9824C170.268 20.7728 172.611 23.1816 174.369 26.209C176.16 29.2038 177.055 32.5404 177.055 36.2188L177.152 67.9082C177.152 71.554 176.273 74.8906 174.516 77.918C172.725 80.9779 170.349 83.4193 167.387 85.2422C164.424 87.0651 161.137 87.9766 157.523 87.9766ZM157.523 75.916C159.542 75.916 161.299 75.1022 162.797 73.4746C164.294 71.8145 165.043 69.959 165.043 67.9082L164.945 36.2188C164.945 34.0052 164.245 32.1335 162.846 30.6035C161.446 29.0736 159.672 28.3086 157.523 28.3086C155.473 28.3086 153.715 29.0573 152.25 30.5547C150.785 32.0521 150.053 33.9401 150.053 36.2188V67.9082C150.053 70.0892 150.785 71.9772 152.25 73.5723C153.715 75.1348 155.473 75.916 157.523 75.916ZM215.129 87.9766C211.613 87.9766 208.358 87.0651 205.363 85.2422C202.368 83.4193 199.976 80.9779 198.186 77.918C196.428 74.8255 195.549 71.4564 195.549 67.8105L195.744 17.8105C195.744 17.5501 195.874 17.4199 196.135 17.4199H207.365C207.626 17.4199 207.756 17.5501 207.756 17.8105V67.8105C207.756 70.0566 208.472 71.9772 209.904 73.5723C211.337 75.1348 213.078 75.916 215.129 75.916C217.277 75.916 219.068 75.1348 220.5 73.5723C221.932 71.9772 222.648 70.0566 222.648 67.8105V17.8105C222.648 17.5501 222.779 17.4199 223.039 17.4199H234.27C234.53 17.4199 234.66 17.5501 234.66 17.8105L234.855 67.8105C234.855 71.4889 233.977 74.8743 232.219 77.9668C230.428 81.0267 228.052 83.4681 225.09 85.291C222.128 87.0814 218.807 87.9766 215.129 87.9766ZM276.055 87H264.775C264.482 87 264.336 86.8372 264.336 86.5117V29.4805H251.348C251.022 29.4805 250.859 29.3177 250.859 28.9922L250.957 17.8105C250.957 17.5501 251.087 17.4199 251.348 17.4199H289.336C289.694 17.4199 289.873 17.5501 289.873 17.8105V28.9922C289.873 29.3177 289.743 29.4805 289.482 29.4805H276.348L276.445 86.5117C276.445 86.8372 276.315 87 276.055 87ZM341.363 86.5117L353.766 17.8105C353.831 17.5501 353.993 17.4199 354.254 17.4199H368.756C369.016 17.4199 369.179 17.5501 369.244 17.8105L381.158 86.5117C381.191 86.8372 381.061 87 380.768 87H369.684C369.358 87 369.179 86.8372 369.146 86.5117L368.072 79.1875H354.449L353.375 86.5117C353.342 86.8372 353.18 87 352.887 87H341.754C341.493 87 341.363 86.8372 341.363 86.5117ZM360.943 40.418L356.451 68.4941H366.07L361.969 40.418L361.383 36.707L360.943 40.418ZM410.297 87H400.287C399.766 87 399.506 86.7721 399.506 86.3164L399.408 18.2012C399.408 17.6803 399.669 17.4199 400.189 17.4199H409.223L426.117 56.8242L425.629 18.2012C425.629 17.6803 425.922 17.4199 426.508 17.4199H436.42C436.811 17.4199 437.006 17.6803 437.006 18.2012L437.104 86.4141C437.104 86.8047 436.941 87 436.615 87H427.826L410.492 50.1836L411.225 86.2188C411.225 86.7396 410.915 87 410.297 87ZM476.203 86.9023L458.283 87C457.958 87 457.795 86.8372 457.795 86.5117L457.99 17.8105C457.99 17.5501 458.12 17.4199 458.381 17.4199L477.082 17.3223C480.793 17.2246 484.146 18.071 487.141 19.8613C490.168 21.6517 492.577 24.0768 494.367 27.1367C496.19 30.1641 497.102 33.5169 497.102 37.1953V65.9062C497.102 69.7474 496.174 73.263 494.318 76.4531C492.43 79.6107 489.924 82.1335 486.799 84.0215C483.674 85.877 480.142 86.8372 476.203 86.9023ZM477.082 29.2852L470.1 29.3828L470.002 74.6953H476.203C478.677 74.6953 480.76 73.8327 482.453 72.1074C484.146 70.3822 484.992 68.3151 484.992 65.9062V37.0977C484.992 34.9818 484.211 33.1426 482.648 31.5801C481.086 29.985 479.23 29.2201 477.082 29.2852ZM47.293 197H36.0137C35.7207 197 35.5742 196.837 35.5742 196.512V139.48H22.5859C22.2604 139.48 22.0977 139.318 22.0977 138.992L22.1953 127.811C22.1953 127.55 22.3255 127.42 22.5859 127.42H60.5742C60.9323 127.42 61.1113 127.55 61.1113 127.811V138.992C61.1113 139.318 60.9811 139.48 60.7207 139.48H47.5859L47.6836 196.512C47.6836 196.837 47.5534 197 47.293 197ZM94.4492 197.977C90.901 197.977 87.6296 197.065 84.6348 195.242C81.6725 193.419 79.2799 190.994 77.457 187.967C75.6667 184.907 74.7715 181.554 74.7715 177.908L74.8691 146.219C74.8691 142.508 75.7643 139.171 77.5547 136.209C79.3125 133.214 81.6888 130.822 84.6836 129.031C87.6784 127.208 90.9336 126.297 94.4492 126.297C98.0951 126.297 101.367 127.192 104.264 128.982C107.193 130.773 109.537 133.182 111.295 136.209C113.085 139.204 113.98 142.54 113.98 146.219L114.078 177.908C114.078 181.554 113.199 184.891 111.441 187.918C109.651 190.978 107.275 193.419 104.312 195.242C101.35 197.065 98.0625 197.977 94.4492 197.977ZM94.4492 185.916C96.4674 185.916 98.2253 185.102 99.7227 183.475C101.22 181.814 101.969 179.959 101.969 177.908L101.871 146.219C101.871 144.005 101.171 142.133 99.7715 140.604C98.3717 139.074 96.5977 138.309 94.4492 138.309C92.3984 138.309 90.6406 139.057 89.1758 140.555C87.7109 142.052 86.9785 143.94 86.9785 146.219V177.908C86.9785 180.089 87.7109 181.977 89.1758 183.572C90.6406 185.135 92.3984 185.916 94.4492 185.916ZM145.365 197H134.037C133.777 197 133.646 196.837 133.646 196.512L133.842 127.908C133.842 127.583 133.972 127.42 134.232 127.42H145.463C145.723 127.42 145.854 127.583 145.854 127.908V151.59L161.527 127.811C161.788 127.55 162.032 127.42 162.26 127.42H173.734C174.027 127.42 174.092 127.55 173.93 127.811L156.645 155.398L176.029 196.609C176.192 196.87 176.029 197 175.541 197H163.334C163.008 197 162.813 196.87 162.748 196.609L149.223 167.215L145.756 172.684V196.512C145.756 196.837 145.626 197 145.365 197ZM225.236 197H192.912C192.652 197 192.521 196.837 192.521 196.512L192.619 127.811C192.619 127.55 192.749 127.42 193.01 127.42H225.139C225.399 127.42 225.529 127.583 225.529 127.908V139.09C225.529 139.35 225.399 139.48 225.139 139.48H204.631V155.105H225.139C225.399 155.105 225.529 155.236 225.529 155.496L225.627 166.824C225.627 167.085 225.497 167.215 225.236 167.215H204.631V184.695H225.236C225.497 184.695 225.627 184.858 225.627 185.184V196.609C225.627 196.87 225.497 197 225.236 197ZM257.402 197H247.393C246.872 197 246.611 196.772 246.611 196.316L246.514 128.201C246.514 127.68 246.774 127.42 247.295 127.42H256.328L273.223 166.824L272.734 128.201C272.734 127.68 273.027 127.42 273.613 127.42H283.525C283.916 127.42 284.111 127.68 284.111 128.201L284.209 196.414C284.209 196.805 284.046 197 283.721 197H274.932L257.598 160.184L258.33 196.219C258.33 196.74 258.021 197 257.402 197ZM323.406 197.977C319.858 197.977 316.587 197.065 313.592 195.242C310.63 193.419 308.237 190.994 306.414 187.967C304.624 184.907 303.729 181.554 303.729 177.908L303.826 146.219C303.826 142.508 304.721 139.171 306.512 136.209C308.27 133.214 310.646 130.822 313.641 129.031C316.635 127.208 319.891 126.297 323.406 126.297C327.052 126.297 330.324 127.192 333.221 128.982C336.15 130.773 338.494 133.182 340.252 136.209C342.042 139.204 342.938 142.54 342.938 146.219L343.035 177.908C343.035 181.554 342.156 184.891 340.398 187.918C338.608 190.978 336.232 193.419 333.27 195.242C330.307 197.065 327.02 197.977 323.406 197.977ZM323.406 185.916C325.424 185.916 327.182 185.102 328.68 183.475C330.177 181.814 330.926 179.959 330.926 177.908L330.828 146.219C330.828 144.005 330.128 142.133 328.729 140.604C327.329 139.074 325.555 138.309 323.406 138.309C321.355 138.309 319.598 139.057 318.133 140.555C316.668 142.052 315.936 143.94 315.936 146.219V177.908C315.936 180.089 316.668 181.977 318.133 183.572C319.598 185.135 321.355 185.916 323.406 185.916ZM374.322 197H362.994C362.734 197 362.604 196.837 362.604 196.512L362.799 127.811C362.799 127.55 362.929 127.42 363.189 127.42H375.396C375.657 127.42 375.885 127.55 376.08 127.811L385.211 140.994L394.293 127.811C394.488 127.55 394.732 127.42 395.025 127.42H407.281C407.574 127.42 407.721 127.55 407.721 127.811L407.916 196.512C407.916 196.837 407.786 197 407.525 197H396.197C395.937 197 395.807 196.837 395.807 196.512L395.709 145.486L385.211 160.721L374.811 145.486L374.713 196.512C374.713 196.837 374.583 197 374.322 197ZM440.131 197H428.803C428.477 197 428.314 196.837 428.314 196.512L428.412 127.811C428.412 127.55 428.542 127.42 428.803 127.42H440.033C440.294 127.42 440.424 127.55 440.424 127.811L440.521 196.512C440.521 196.837 440.391 197 440.131 197ZM479.719 197.977C476.105 197.977 472.801 197.065 469.807 195.242C466.844 193.419 464.484 190.978 462.727 187.918C461.001 184.826 460.139 181.391 460.139 177.615L460.236 146.414C460.236 142.703 461.083 139.35 462.775 136.355C464.468 133.328 466.796 130.903 469.758 129.08C472.753 127.225 476.073 126.297 479.719 126.297C483.43 126.297 486.734 127.192 489.631 128.982C492.561 130.773 494.888 133.198 496.613 136.258C498.371 139.285 499.25 142.671 499.25 146.414V151.004C499.25 151.264 499.12 151.395 498.859 151.395H487.629C487.368 151.395 487.238 151.264 487.238 151.004V146.414C487.238 144.201 486.522 142.296 485.09 140.701C483.658 139.106 481.867 138.309 479.719 138.309C477.342 138.309 475.52 139.122 474.25 140.75C472.98 142.378 472.346 144.266 472.346 146.414V177.615C472.346 180.057 473.062 182.059 474.494 183.621C475.926 185.151 477.668 185.916 479.719 185.916C481.867 185.916 483.658 185.07 485.09 183.377C486.522 181.652 487.238 179.731 487.238 177.615V172.977C487.238 172.716 487.368 172.586 487.629 172.586H498.957C499.217 172.586 499.348 172.716 499.348 172.977V177.615C499.348 181.359 498.469 184.777 496.711 187.869C494.921 190.929 492.561 193.387 489.631 195.242C486.701 197.065 483.397 197.977 479.719 197.977ZM535.615 197.977C532.067 197.977 528.796 197.065 525.801 195.242C522.839 193.419 520.462 190.994 518.672 187.967C516.914 184.907 516.035 181.554 516.035 177.908V173.318C516.035 172.96 516.198 172.781 516.523 172.781H527.754C528.014 172.781 528.145 172.96 528.145 173.318V177.908C528.145 180.089 528.877 181.977 530.342 183.572C531.807 185.135 533.564 185.916 535.615 185.916C537.699 185.916 539.473 185.118 540.938 183.523C542.402 181.896 543.135 180.024 543.135 177.908C543.135 175.467 541.54 173.335 538.35 171.512C537.829 171.186 537.145 170.796 536.299 170.34C535.485 169.852 534.508 169.298 533.369 168.68C532.23 168.061 531.123 167.459 530.049 166.873C528.975 166.255 527.933 165.669 526.924 165.115C523.278 162.967 520.56 160.281 518.77 157.059C517.012 153.803 516.133 150.158 516.133 146.121C516.133 142.41 517.044 139.057 518.867 136.062C520.69 133.1 523.066 130.757 525.996 129.031C528.958 127.273 532.165 126.395 535.615 126.395C539.163 126.395 542.419 127.273 545.381 129.031C548.343 130.822 550.703 133.198 552.461 136.16C554.251 139.122 555.146 142.443 555.146 146.121V154.324C555.146 154.585 555.016 154.715 554.756 154.715H543.525C543.265 154.715 543.135 154.585 543.135 154.324L543.037 146.121C543.037 143.777 542.305 141.873 540.84 140.408C539.375 138.943 537.633 138.211 535.615 138.211C533.564 138.211 531.807 138.992 530.342 140.555C528.877 142.117 528.145 143.973 528.145 146.121C528.145 148.302 528.6 150.125 529.512 151.59C530.456 153.055 532.165 154.454 534.639 155.789C534.899 155.919 535.501 156.245 536.445 156.766C537.389 157.286 538.431 157.872 539.57 158.523C540.742 159.142 541.8 159.712 542.744 160.232C543.688 160.721 544.258 161.014 544.453 161.111C547.773 162.967 550.394 165.245 552.314 167.947C554.268 170.649 555.244 173.969 555.244 177.908C555.244 181.717 554.365 185.135 552.607 188.162C550.817 191.189 548.441 193.582 545.479 195.34C542.516 197.098 539.229 197.977 535.615 197.977Z" fill="#EEEB3F"/>
<path d="M22.5859 86.5117L17.6655 85.6234L17.5859 86.064V86.5117H22.5859ZM34.9883 17.8105L30.1376 16.5979L30.0973 16.7589L30.0678 16.9223L34.9883 17.8105ZM50.4668 17.8105L55.3933 16.9562L55.362 16.7756L55.3175 16.5979L50.4668 17.8105ZM62.3809 86.5117L67.356 86.0142L67.3381 85.8349L67.3073 85.6574L62.3809 86.5117ZM50.3691 86.5117L55.3443 86.0142L55.3329 85.8999L55.3162 85.7861L50.3691 86.5117ZM49.2949 79.1875L54.242 78.4619L53.6151 74.1875H49.2949V79.1875ZM35.6719 79.1875V74.1875H31.3517L30.7248 78.4619L35.6719 79.1875ZM34.5977 86.5117L29.6506 85.7861L29.6339 85.8999L29.6225 86.0142L34.5977 86.5117ZM42.166 40.418L47.1032 41.2079L47.1193 41.1072L47.1313 41.006L42.166 40.418ZM37.6738 68.4941L32.7366 67.7042L31.8102 73.4941H37.6738V68.4941ZM47.293 68.4941V73.4941H53.0765L52.2405 67.7714L47.293 68.4941ZM43.1914 40.418L48.1389 39.6952L48.1347 39.6667L48.1302 39.6382L43.1914 40.418ZM42.6055 36.707L47.5443 35.9272L37.6402 36.119L42.6055 36.707ZM27.5064 87.4L39.9087 18.6988L30.0678 16.9223L17.6655 85.6234L27.5064 87.4ZM39.839 19.0232C39.683 19.6473 39.2746 20.6283 38.2827 21.4219C37.275 22.2281 36.1919 22.4199 35.4766 22.4199V12.4199C34.5008 12.4199 33.2062 12.6769 32.0357 13.6132C30.881 14.537 30.3587 15.7134 30.1376 16.5979L39.839 19.0232ZM35.4766 22.4199H49.9785V12.4199H35.4766V22.4199ZM49.9785 22.4199C49.2631 22.4199 48.1801 22.2281 47.1724 21.4219C46.1804 20.6283 45.7721 19.6473 45.6161 19.0232L55.3175 16.5979C55.0964 15.7134 54.5741 14.537 53.4194 13.6132C52.2489 12.6769 50.9543 12.4199 49.9785 12.4199V22.4199ZM45.5403 18.6649L57.4544 87.3661L67.3073 85.6574L55.3933 16.9562L45.5403 18.6649ZM57.4057 87.0092C57.3635 86.5876 57.2918 85.1438 58.4033 83.7545C59.6288 82.2225 61.2655 82 61.9902 82V92C63.008 92 64.8562 91.6961 66.212 90.0014C67.4537 88.4493 67.4308 86.7613 67.356 86.0142L57.4057 87.0092ZM61.9902 82H50.9062V92H61.9902V82ZM50.9062 82C51.5512 82 52.7819 82.1698 53.8912 83.1782C54.9969 84.1834 55.2814 85.3853 55.3443 86.0142L45.394 87.0092C45.4894 87.9637 45.8798 89.4097 47.1645 90.5776C48.4528 91.7489 49.9358 92 50.9062 92V82ZM55.3162 85.7861L54.242 78.4619L44.3478 79.9131L45.4221 87.2373L55.3162 85.7861ZM49.2949 74.1875H35.6719V84.1875H49.2949V74.1875ZM30.7248 78.4619L29.6506 85.7861L39.5447 87.2373L40.6189 79.9131L30.7248 78.4619ZM29.6225 86.0142C29.6736 85.503 29.8976 84.3605 30.9156 83.3424C32.0101 82.2479 33.3096 82 34.1094 82V92C35.2021 92 36.7295 91.6707 37.9867 90.4135C39.1675 89.2326 39.4892 87.8459 39.5728 87.0092L29.6225 86.0142ZM34.1094 82H22.9766V92H34.1094V82ZM22.9766 82C23.9499 82 25.4719 82.3594 26.5879 83.7545C27.5335 84.9364 27.5859 86.1403 27.5859 86.5117H17.5859C17.5859 87.2087 17.7035 88.6567 18.7792 90.0014C20.0255 91.5592 21.7428 92 22.9766 92V82ZM37.2288 39.628L32.7366 67.7042L42.611 69.2841L47.1032 41.2079L37.2288 39.628ZM37.6738 73.4941H47.293V63.4941H37.6738V73.4941ZM52.2405 67.7714L48.1389 39.6952L38.2439 41.1407L42.3455 69.2169L52.2405 67.7714ZM48.1302 39.6382L47.5443 35.9272L37.6667 37.4868L38.2526 41.1978L48.1302 39.6382ZM37.6402 36.119L37.2007 39.83L47.1313 41.006L47.5708 37.295L37.6402 36.119ZM80.6309 86.5117L75.6309 86.4975L75.6309 86.5046V86.5117H80.6309ZM80.8262 17.8105L85.8262 17.8248L85.8262 17.8177V17.8105H80.8262ZM110.66 20.1543L113.26 15.8833L113.24 15.8709L113.219 15.8588L110.66 20.1543ZM117.74 27.4297L113.396 29.9054L113.402 29.9155L113.408 29.9256L117.74 27.4297ZM113.736 51.209L110.488 47.4078L106.377 50.9208L110.201 54.7445L113.736 51.209ZM117.057 76.502L121.36 79.0486L121.369 79.0322L121.379 79.0158L117.057 76.502ZM109.488 84.168L112.054 88.4593L112.07 88.4496L112.087 88.4398L109.488 84.168ZM92.8379 29.2852V24.2852H87.8379V29.2852H92.8379ZM92.8379 45.0078H87.8379V50.0078H92.8379V45.0078ZM106.07 42.5664L109.824 45.8695L109.84 45.8511L109.856 45.8326L106.07 42.5664ZM105.924 31.6777L102.315 35.1389L102.333 35.1575L102.351 35.1759L105.924 31.6777ZM92.8379 57.1172V52.1172H87.8654L87.838 57.0896L92.8379 57.1172ZM92.7402 74.793L87.7403 74.7653L87.7125 79.793H92.7402V74.793ZM98.9414 82H81.0215V92H98.9414V82ZM81.0215 82C81.9948 82 83.5169 82.3594 84.6329 83.7545C85.5784 84.9364 85.6309 86.1403 85.6309 86.5117H75.6309C75.6309 87.2087 75.7484 88.6567 76.8242 90.0014C78.0704 91.5592 79.7877 92 81.0215 92V82ZM85.6308 86.5259L85.8262 17.8248L75.8262 17.7963L75.6309 86.4975L85.6308 86.5259ZM85.8262 17.8105C85.8262 18.4511 85.6627 19.8498 84.4594 21.0531C83.2561 22.2564 81.8573 22.4199 81.2168 22.4199V12.4199C80.3159 12.4199 78.7218 12.6485 77.3883 13.982C76.0548 15.3155 75.8262 16.9096 75.8262 17.8105H85.8262ZM81.2168 22.4199H100.455V12.4199H81.2168V22.4199ZM100.455 22.4199C103.346 22.4199 105.855 23.1119 108.101 24.4498L113.219 15.8588C109.345 13.5509 105.052 12.4199 100.455 12.4199V22.4199ZM108.06 24.4253C110.336 25.8102 112.093 27.6194 113.396 29.9054L122.084 24.954C119.937 21.1853 116.974 18.1442 113.26 15.8833L108.06 24.4253ZM113.408 29.9256C114.688 32.1477 115.328 34.54 115.328 37.1953H125.328C125.328 32.8194 124.243 28.7013 122.073 24.9338L113.408 29.9256ZM115.328 37.1953C115.328 39.2692 114.865 41.1367 113.95 42.8744L122.8 47.5319C124.489 44.3217 125.328 40.8506 125.328 37.1953H115.328ZM113.95 42.8744C112.889 44.8902 111.715 46.359 110.488 47.4078L116.985 55.0101C119.338 52.9991 121.256 50.4639 122.8 47.5319L113.95 42.8744ZM110.201 54.7445C111.659 56.2028 112.796 57.8915 113.624 59.8466L122.833 55.9502C121.512 52.8273 119.655 50.0563 117.272 47.6735L110.201 54.7445ZM113.624 59.8466C114.433 61.7596 114.84 63.7655 114.84 65.9062H124.84C124.84 62.4481 124.172 59.1154 122.833 55.9502L113.624 59.8466ZM114.84 65.9062C114.84 68.9425 114.124 71.5999 112.735 73.9881L121.379 79.0158C123.701 75.0238 124.84 70.6174 124.84 65.9062H114.84ZM112.754 73.9553C111.282 76.4414 109.344 78.4034 106.89 79.8961L112.087 88.4398C115.948 86.0914 119.055 82.9427 121.36 79.0486L112.754 73.9553ZM106.922 79.8766C104.582 81.2759 101.961 82 98.9414 82V92C103.669 92 108.079 90.836 112.054 88.4593L106.922 79.8766ZM100.455 24.2852H92.8379V34.2852H100.455V24.2852ZM87.8379 29.2852V45.0078H97.8379V29.2852H87.8379ZM92.8379 50.0078H100.455V40.0078H92.8379V50.0078ZM100.455 50.0078C104.096 50.0078 107.374 48.6539 109.824 45.8695L102.317 39.2633C101.902 39.7341 101.437 40.0078 100.455 40.0078V50.0078ZM109.856 45.8326C111.954 43.4013 113.219 40.484 113.219 37.1953H103.219C103.219 37.7477 103.052 38.4112 102.285 39.3002L109.856 45.8326ZM113.219 37.1953C113.219 33.7235 111.907 30.6417 109.496 28.1796L102.351 35.1759C103 35.8388 103.219 36.4353 103.219 37.1953H113.219ZM109.532 28.2166C107.106 25.6876 104 24.2852 100.455 24.2852V34.2852C101.142 34.2852 101.681 34.4777 102.315 35.1389L109.532 28.2166ZM98.9414 52.1172H92.8379V62.1172H98.9414V52.1172ZM87.838 57.0896L87.7403 74.7653L97.7402 74.8206L97.8378 57.1448L87.838 57.0896ZM92.7402 79.793H98.9414V69.793H92.7402V79.793ZM98.9414 79.793C102.726 79.793 106.069 78.3502 108.711 75.6586L101.574 68.6539C100.765 69.478 99.9744 69.793 98.9414 69.793V79.793ZM108.711 75.6586C111.331 72.9894 112.73 69.6575 112.73 65.9062H102.73C102.73 66.9727 102.405 67.8075 101.574 68.6539L108.711 75.6586ZM112.73 65.9062C112.73 62.1522 111.327 58.8189 108.678 56.1695L101.607 63.2406C102.408 64.0418 102.73 64.8425 102.73 65.9062H112.73ZM108.678 56.1695C106.029 53.5202 102.695 52.1172 98.9414 52.1172V62.1172C100.005 62.1172 100.806 62.4395 101.607 63.2406L108.678 56.1695ZM147.709 85.2422L145.088 89.5005L145.099 89.5069L145.109 89.5132L147.709 85.2422ZM140.531 77.9668L136.216 80.4919L136.232 80.5191L136.248 80.546L140.531 77.9668ZM137.846 67.9082L132.846 67.8928L132.846 67.9005V67.9082H137.846ZM137.943 36.2188L142.943 36.2342L142.943 36.2265V36.2188H137.943ZM140.629 26.209L144.908 28.7953L144.925 28.7677L144.941 28.74L140.629 26.209ZM147.758 19.0312L150.323 23.3228L150.341 23.3126L150.358 23.3022L147.758 19.0312ZM167.338 18.9824L164.709 23.2358L164.72 23.2423L164.731 23.2488L167.338 18.9824ZM174.369 26.209L170.045 28.7197L170.061 28.7472L170.078 28.7746L174.369 26.209ZM177.055 36.2188H172.055V36.2265L172.055 36.2342L177.055 36.2188ZM177.152 67.9082H182.152V67.9005L182.152 67.8928L177.152 67.9082ZM174.516 77.918L178.831 80.443L178.835 80.4358L178.84 80.4286L174.516 77.918ZM162.797 73.4746L166.477 76.8599L166.493 76.8418L166.51 76.8235L162.797 73.4746ZM165.043 67.9082H170.043V67.9005L170.043 67.8928L165.043 67.9082ZM164.945 36.2188H159.945V36.2265L159.945 36.2342L164.945 36.2188ZM152.25 73.5723L148.567 76.9543L148.585 76.9732L148.602 76.992L152.25 73.5723ZM157.523 82.9766C154.881 82.9766 152.51 82.3113 150.309 80.9712L145.109 89.5132C148.897 91.8189 153.07 92.9766 157.523 92.9766V82.9766ZM150.329 80.9839C148.059 79.5867 146.232 77.7418 144.815 75.3875L136.248 80.546C138.476 84.2465 141.435 87.2519 145.088 89.5005L150.329 80.9839ZM144.847 75.4417C143.518 73.1703 142.846 70.6929 142.846 67.9082H132.846C132.846 72.4152 133.964 76.6435 136.216 80.4919L144.847 75.4417ZM142.846 67.9236L142.943 36.2342L132.943 36.2033L132.846 67.8928L142.846 67.9236ZM142.943 36.2188C142.943 33.3512 143.623 30.9208 144.908 28.7953L136.35 23.6227C134.054 27.4217 132.943 31.6644 132.943 36.2188H142.943ZM144.941 28.74C146.272 26.473 148.046 24.6845 150.323 23.3228L145.192 14.7397C141.48 16.9588 138.502 19.9554 136.317 23.678L144.941 28.74ZM150.358 23.3022C152.567 21.9575 154.922 21.2969 157.523 21.2969V11.2969C153.093 11.2969 148.938 12.4591 145.158 14.7603L150.358 23.3022ZM157.523 21.2969C160.309 21.2969 162.658 21.9682 164.709 23.2358L169.966 14.7291C166.223 12.416 162.03 11.2969 157.523 11.2969V21.2969ZM164.731 23.2488C166.937 24.597 168.696 26.3965 170.045 28.7197L178.693 23.6983C176.526 19.9668 173.598 16.9486 169.945 14.716L164.731 23.2488ZM170.078 28.7746C171.379 30.9512 172.055 33.3928 172.055 36.2188H182.055C182.055 31.6879 180.94 27.4564 178.661 23.6434L170.078 28.7746ZM172.055 36.2342L172.152 67.9236L182.152 67.8928L182.055 36.2033L172.055 36.2342ZM172.152 67.9082C172.152 70.7103 171.488 73.1749 170.192 75.4073L178.84 80.4286C181.059 76.6063 182.152 72.3978 182.152 67.9082H172.152ZM170.2 75.3929C168.816 77.759 167.016 79.5995 164.766 80.9839L170.007 89.5005C173.682 87.2391 176.635 84.1968 178.831 80.443L170.2 75.3929ZM164.766 80.9839C162.624 82.3025 160.249 82.9766 157.523 82.9766V92.9766C162.024 92.9766 166.225 91.8277 170.007 89.5005L164.766 80.9839ZM157.523 80.916C161.083 80.916 164.133 79.4067 166.477 76.8599L159.117 70.0893C158.465 70.7977 158.001 70.916 157.523 70.916V80.916ZM166.51 76.8235C168.755 74.3345 170.043 71.3119 170.043 67.9082H160.043C160.043 68.6061 159.834 69.2944 159.084 70.1258L166.51 76.8235ZM170.043 67.8928L169.945 36.2033L159.945 36.2342L160.043 67.9236L170.043 67.8928ZM169.945 36.2188C169.945 32.848 168.838 29.7459 166.535 27.2284L159.157 33.9786C159.653 34.521 159.945 35.1624 159.945 36.2188H169.945ZM166.535 27.2284C164.15 24.6216 161.018 23.3086 157.523 23.3086V33.3086C158.326 33.3086 158.742 33.5255 159.157 33.9786L166.535 27.2284ZM157.523 23.3086C154.095 23.3086 151.059 24.6225 148.676 27.0582L155.824 34.0512C156.371 33.4921 156.85 33.3086 157.523 33.3086V23.3086ZM148.676 27.0582C146.212 29.5763 145.053 32.7591 145.053 36.2188H155.053C155.053 35.1211 155.358 34.5278 155.824 34.0512L148.676 27.0582ZM145.053 36.2188V67.9082H155.053V36.2188H145.053ZM145.053 67.9082C145.053 71.3319 146.249 74.4295 148.567 76.9543L155.933 70.1902C155.322 69.525 155.053 68.8465 155.053 67.9082H145.053ZM148.602 76.992C150.965 79.5124 154.023 80.916 157.523 80.916V70.916C156.922 70.916 156.465 70.7572 155.898 70.1526L148.602 76.992ZM198.186 77.918L193.839 80.3888L193.854 80.416L193.87 80.443L198.186 77.918ZM195.549 67.8105L190.549 67.791L190.549 67.8008V67.8105H195.549ZM195.744 17.8105L200.744 17.8301L200.744 17.8203V17.8105H195.744ZM209.904 73.5723L206.184 76.9129L206.201 76.932L206.219 76.9509L209.904 73.5723ZM220.5 73.5723L224.186 76.9509L224.203 76.932L224.22 76.9129L220.5 73.5723ZM234.66 17.8105H229.66V17.8203L229.66 17.8301L234.66 17.8105ZM234.855 67.8105H239.855V67.8008L239.855 67.791L234.855 67.8105ZM232.219 77.9668L236.534 80.4919L236.55 80.4648L236.566 80.4376L232.219 77.9668ZM225.09 85.291L227.676 89.5702L227.693 89.5598L227.71 89.5493L225.09 85.291ZM215.129 82.9766C212.528 82.9766 210.172 82.3159 207.963 80.9712L202.764 89.5132C206.544 91.8143 210.699 92.9766 215.129 92.9766V82.9766ZM207.963 80.9712C205.684 79.5841 203.878 77.746 202.501 75.3929L193.87 80.443C196.074 84.2097 199.053 87.2544 202.764 89.5132L207.963 80.9712ZM202.532 75.4471C201.214 73.1272 200.549 70.6127 200.549 67.8105H190.549C190.549 72.3001 191.642 76.5238 193.839 80.3888L202.532 75.4471ZM200.549 67.8301L200.744 17.8301L190.744 17.791L190.549 67.791L200.549 67.8301ZM200.744 17.8105C200.744 18.4511 200.581 19.8498 199.377 21.0531C198.174 22.2564 196.775 22.4199 196.135 22.4199V12.4199C195.234 12.4199 193.64 12.6485 192.306 13.982C190.973 15.3155 190.744 16.9096 190.744 17.8105H200.744ZM196.135 22.4199H207.365V12.4199H196.135V22.4199ZM207.365 22.4199C206.725 22.4199 205.326 22.2564 204.123 21.0531C202.919 19.8498 202.756 18.4511 202.756 17.8105H212.756C212.756 16.9096 212.527 15.3155 211.194 13.982C209.86 12.6485 208.266 12.4199 207.365 12.4199V22.4199ZM202.756 17.8105V67.8105H212.756V17.8105H202.756ZM202.756 67.8105C202.756 71.2254 203.886 74.3533 206.184 76.9129L213.625 70.2316C213.058 69.6011 212.756 68.8879 212.756 67.8105H202.756ZM206.219 76.9509C208.562 79.5072 211.624 80.916 215.129 80.916V70.916C214.532 70.916 214.111 70.7623 213.59 70.1936L206.219 76.9509ZM215.129 80.916C218.657 80.916 221.792 79.5624 224.186 76.9509L216.814 70.1936C216.344 70.7071 215.898 70.916 215.129 70.916V80.916ZM224.22 76.9129C226.519 74.3533 227.648 71.2254 227.648 67.8105H217.648C217.648 68.8879 217.346 69.6011 216.78 70.2316L224.22 76.9129ZM227.648 67.8105V17.8105H217.648V67.8105H227.648ZM227.648 17.8105C227.648 18.4511 227.485 19.8498 226.282 21.0531C225.078 22.2564 223.68 22.4199 223.039 22.4199V12.4199C222.138 12.4199 220.544 12.6485 219.211 13.982C217.877 15.3155 217.648 16.9096 217.648 17.8105H227.648ZM223.039 22.4199H234.27V12.4199H223.039V22.4199ZM234.27 22.4199C233.629 22.4199 232.23 22.2564 231.027 21.0531C229.824 19.8498 229.66 18.4511 229.66 17.8105H239.66C239.66 16.9096 239.432 15.3155 238.098 13.982C236.765 12.6485 235.17 12.4199 234.27 12.4199V22.4199ZM229.66 17.8301L229.856 67.8301L239.855 67.791L239.66 17.791L229.66 17.8301ZM229.855 67.8105C229.855 70.6535 229.187 73.183 227.872 75.496L236.566 80.4376C238.766 76.5657 239.855 72.3244 239.855 67.8105H229.855ZM227.903 75.4417C226.519 77.8078 224.719 79.6483 222.469 81.0327L227.71 89.5493C231.385 87.2879 234.338 84.2456 236.534 80.4919L227.903 75.4417ZM222.504 81.0119C220.371 82.3008 217.955 82.9766 215.129 82.9766V92.9766C219.659 92.9766 223.884 91.862 227.676 89.5702L222.504 81.0119ZM264.336 29.4805H269.336V24.4805H264.336V29.4805ZM250.859 28.9922L245.86 28.9485L245.859 28.9704V28.9922H250.859ZM250.957 17.8105L255.957 17.8542L255.957 17.8324V17.8105H250.957ZM276.348 29.4805V24.4805H271.339L271.348 29.489L276.348 29.4805ZM276.445 86.5117L281.445 86.5117L281.445 86.5032L276.445 86.5117ZM276.055 82H264.775V92H276.055V82ZM264.775 82C265.544 82 266.996 82.2376 268.162 83.5331C269.238 84.7285 269.336 86.0262 269.336 86.5117H259.336C259.336 87.3227 259.507 88.8646 260.729 90.2228C262.042 91.681 263.714 92 264.775 92V82ZM269.336 86.5117V29.4805H259.336V86.5117H269.336ZM264.336 24.4805H251.348V34.4805H264.336V24.4805ZM251.348 24.4805C251.956 24.4805 253.33 24.6358 254.517 25.8229C255.704 27.0099 255.859 28.3842 255.859 28.9922H245.859C245.859 29.9257 246.096 31.5442 247.446 32.8939C248.796 34.2437 250.414 34.4805 251.348 34.4805V24.4805ZM255.859 29.0359L255.957 17.8542L245.957 17.7669L245.86 28.9485L255.859 29.0359ZM255.957 17.8105C255.957 18.4511 255.794 19.8498 254.59 21.0531C253.387 22.2564 251.988 22.4199 251.348 22.4199V12.4199C250.447 12.4199 248.853 12.6485 247.519 13.982C246.186 15.3155 245.957 16.9096 245.957 17.8105H255.957ZM251.348 22.4199H289.336V12.4199H251.348V22.4199ZM289.336 22.4199C289.058 22.4199 287.946 22.3959 286.798 21.5613C285.354 20.5114 284.873 18.9591 284.873 17.8105H294.873C294.873 16.4016 294.302 14.6539 292.68 13.4739C291.353 12.509 289.972 12.4199 289.336 12.4199V22.4199ZM284.873 17.8105V28.9922H294.873V17.8105H284.873ZM284.873 28.9922C284.873 28.6207 284.925 27.4169 285.871 26.2349C286.987 24.8399 288.509 24.4805 289.482 24.4805V34.4805C290.716 34.4805 292.434 34.0396 293.68 32.4819C294.756 31.1372 294.873 29.6892 294.873 28.9922H284.873ZM289.482 24.4805H276.348V34.4805H289.482V24.4805ZM271.348 29.489L271.445 86.5203L281.445 86.5032L281.348 29.4719L271.348 29.489ZM271.445 86.5117C271.445 86.1403 271.498 84.9364 272.443 83.7545C273.559 82.3594 275.081 82 276.055 82V92C277.288 92 279.006 91.5592 280.252 90.0014C281.328 88.6567 281.445 87.2087 281.445 86.5117H271.445ZM341.363 86.5117L336.443 85.6234L336.363 86.064V86.5117H341.363ZM353.766 17.8105L348.915 16.5979L348.875 16.7589L348.845 16.9223L353.766 17.8105ZM369.244 17.8105L374.171 16.9562L374.139 16.7756L374.095 16.5979L369.244 17.8105ZM381.158 86.5117L386.133 86.0142L386.115 85.8349L386.085 85.6574L381.158 86.5117ZM369.146 86.5117L374.122 86.0142L374.11 85.8999L374.094 85.7861L369.146 86.5117ZM368.072 79.1875L373.019 78.4619L372.392 74.1875H368.072V79.1875ZM354.449 79.1875V74.1875H350.129L349.502 78.4619L354.449 79.1875ZM353.375 86.5117L348.428 85.7861L348.411 85.8999L348.4 86.0142L353.375 86.5117ZM360.943 40.418L365.881 41.2079L365.897 41.1072L365.909 41.006L360.943 40.418ZM356.451 68.4941L351.514 67.7042L350.588 73.4941H356.451V68.4941ZM366.07 68.4941V73.4941H371.854L371.018 67.7714L366.07 68.4941ZM361.969 40.418L366.916 39.6952L366.912 39.6667L366.908 39.6382L361.969 40.418ZM361.383 36.707L366.322 35.9272L356.418 36.119L361.383 36.707ZM346.284 87.4L358.686 18.6988L348.845 16.9223L336.443 85.6234L346.284 87.4ZM358.616 19.0232C358.46 19.6473 358.052 20.6283 357.06 21.4219C356.052 22.2281 354.969 22.4199 354.254 22.4199V12.4199C353.278 12.4199 351.984 12.6769 350.813 13.6132C349.658 14.537 349.136 15.7134 348.915 16.5979L358.616 19.0232ZM354.254 22.4199H368.756V12.4199H354.254V22.4199ZM368.756 22.4199C368.04 22.4199 366.957 22.2281 365.95 21.4219C364.958 20.6283 364.549 19.6473 364.393 19.0232L374.095 16.5979C373.874 15.7134 373.351 14.537 372.197 13.6132C371.026 12.6769 369.732 12.4199 368.756 12.4199V22.4199ZM364.318 18.6649L376.232 87.3661L386.085 85.6574L374.171 16.9562L364.318 18.6649ZM376.183 87.0092C376.141 86.5876 376.069 85.1438 377.181 83.7545C378.406 82.2225 380.043 82 380.768 82V92C381.785 92 383.634 91.6961 384.989 90.0014C386.231 88.4493 386.208 86.7613 386.133 86.0142L376.183 87.0092ZM380.768 82H369.684V92H380.768V82ZM369.684 82C370.329 82 371.559 82.1698 372.669 83.1782C373.774 84.1834 374.059 85.3853 374.122 86.0142L364.171 87.0092C364.267 87.9637 364.657 89.4097 365.942 90.5776C367.23 91.7489 368.713 92 369.684 92V82ZM374.094 85.7861L373.019 78.4619L363.125 79.9131L364.199 87.2373L374.094 85.7861ZM368.072 74.1875H354.449V84.1875H368.072V74.1875ZM349.502 78.4619L348.428 85.7861L358.322 87.2373L359.396 79.9131L349.502 78.4619ZM348.4 86.0142C348.451 85.503 348.675 84.3605 349.693 83.3424C350.787 82.2479 352.087 82 352.887 82V92C353.979 92 355.507 91.6707 356.764 90.4135C357.945 89.2326 358.267 87.8459 358.35 87.0092L348.4 86.0142ZM352.887 82H341.754V92H352.887V82ZM341.754 82C342.727 82 344.249 82.3594 345.365 83.7545C346.311 84.9364 346.363 86.1403 346.363 86.5117H336.363C336.363 87.2087 336.481 88.6567 337.557 90.0014C338.803 91.5592 340.52 92 341.754 92V82ZM356.006 39.628L351.514 67.7042L361.388 69.2841L365.881 41.2079L356.006 39.628ZM356.451 73.4941H366.07V63.4941H356.451V73.4941ZM371.018 67.7714L366.916 39.6952L357.021 41.1407L361.123 69.2169L371.018 67.7714ZM366.908 39.6382L366.322 35.9272L356.444 37.4868L357.03 41.1978L366.908 39.6382ZM356.418 36.119L355.978 39.83L365.909 41.006L366.348 37.295L356.418 36.119ZM399.506 86.3164L404.506 86.3164L404.506 86.3092L399.506 86.3164ZM399.408 18.2012L394.408 18.2012L394.408 18.2083L399.408 18.2012ZM409.223 17.4199L413.818 15.4496L412.519 12.4199H409.223V17.4199ZM426.117 56.8242L421.522 58.7945L431.117 56.761L426.117 56.8242ZM425.629 18.2012H420.629V18.2328L420.629 18.2644L425.629 18.2012ZM437.006 18.2012L432.006 18.2012L432.006 18.2083L437.006 18.2012ZM437.104 86.4141L442.104 86.4141L442.104 86.4069L437.104 86.4141ZM427.826 87L423.302 89.1299L424.654 92H427.826V87ZM410.492 50.1836L415.016 48.0537L405.493 50.2852L410.492 50.1836ZM411.225 86.2188H416.225V86.1679L416.224 86.1171L411.225 86.2188ZM410.297 82H400.287V92H410.297V82ZM400.287 82C400.646 82 401.848 82.064 402.994 83.0662C404.267 84.18 404.506 85.5871 404.506 86.3164H394.506C394.506 87.5014 394.875 89.2503 396.409 90.592C397.814 91.8221 399.408 92 400.287 92V82ZM404.506 86.3092L404.408 18.194L394.408 18.2083L394.506 86.3236L404.506 86.3092ZM404.408 18.2012C404.408 18.7115 404.277 20.0126 403.139 21.1508C402.001 22.289 400.7 22.4199 400.189 22.4199V12.4199C399.158 12.4199 397.467 12.6811 396.068 14.0797C394.669 15.4783 394.408 17.17 394.408 18.2012H404.408ZM400.189 22.4199H409.223V12.4199H400.189V22.4199ZM404.627 19.3902L421.522 58.7945L430.713 54.8539L413.818 15.4496L404.627 19.3902ZM431.117 56.761L430.629 18.138L420.629 18.2644L421.118 56.8874L431.117 56.761ZM430.629 18.2012C430.629 18.874 430.413 20.2482 429.17 21.3523C428.041 22.3567 426.85 22.4199 426.508 22.4199V12.4199C425.58 12.4199 423.95 12.6134 422.527 13.8782C420.992 15.2427 420.629 17.0075 420.629 18.2012H430.629ZM426.508 22.4199H436.42V12.4199H426.508V22.4199ZM436.42 22.4199C435.395 22.4199 433.9 22.0025 432.859 20.6152C432.022 19.4985 432.006 18.4215 432.006 18.2012H442.006C442.006 17.46 441.892 15.9924 440.859 14.6152C439.624 12.9675 437.835 12.4199 436.42 12.4199V22.4199ZM432.006 18.2083L432.104 86.4212L442.104 86.4069L442.006 18.194L432.006 18.2083ZM432.104 86.4141C432.104 86.0382 432.163 84.8255 433.14 83.6526C434.263 82.3051 435.743 82 436.615 82V92C437.813 92 439.537 91.5972 440.823 90.0544C441.963 88.6863 442.104 87.1806 442.104 86.4141H432.104ZM436.615 82H427.826V92H436.615V82ZM432.35 84.8701L415.016 48.0537L405.969 52.3134L423.302 89.1299L432.35 84.8701ZM405.493 50.2852L406.226 86.3204L416.224 86.1171L415.491 50.082L405.493 50.2852ZM406.225 86.2188C406.225 85.4616 406.49 84.0596 407.772 82.9801C408.889 82.0392 410.025 82 410.297 82V92C411.187 92 412.787 91.8306 414.213 90.6292C415.804 89.2893 416.225 87.4968 416.225 86.2188H406.225ZM476.203 86.9023L476.23 91.9023L476.258 91.9021L476.286 91.9017L476.203 86.9023ZM458.283 87V92H458.297L458.31 91.9999L458.283 87ZM457.795 86.5117L452.795 86.4975L452.795 86.5046V86.5117H457.795ZM457.99 17.8105L462.99 17.8248L462.99 17.8177V17.8105H457.99ZM458.381 17.4199V22.4199H458.394L458.407 22.4199L458.381 17.4199ZM477.082 17.3223L477.108 22.3222L477.161 22.3219L477.214 22.3205L477.082 17.3223ZM487.141 19.8613L484.575 24.1529L484.585 24.159L484.595 24.165L487.141 19.8613ZM494.367 27.1367L490.052 29.6618L490.068 29.689L490.084 29.716L494.367 27.1367ZM494.318 76.4531L498.61 79.0191L498.625 78.9931L498.64 78.967L494.318 76.4531ZM486.799 84.0215L489.352 88.3208L489.368 88.311L489.384 88.3011L486.799 84.0215ZM477.082 29.2852L477.152 34.2847L477.193 34.2841L477.233 34.2829L477.082 29.2852ZM470.1 29.3828L470.03 24.3833L465.11 24.4521L465.1 29.372L470.1 29.3828ZM470.002 74.6953L465.002 74.6845L464.991 79.6953H470.002V74.6953ZM482.453 72.1074L478.884 68.6057L482.453 72.1074ZM482.648 31.5801L479.077 35.079L479.095 35.0974L479.113 35.1156L482.648 31.5801ZM476.176 81.9024L458.256 82.0001L458.31 91.9999L476.23 91.9023L476.176 81.9024ZM458.283 82C458.891 82 460.266 82.1554 461.453 83.3424C462.64 84.5294 462.795 85.9038 462.795 86.5117H452.795C452.795 87.4452 453.032 89.0637 454.381 90.4135C455.731 91.7632 457.35 92 458.283 92V82ZM462.795 86.5259L462.99 17.8248L452.99 17.7963L452.795 86.4975L462.795 86.5259ZM462.99 17.8105C462.99 18.4511 462.827 19.8498 461.623 21.0531C460.42 22.2564 459.021 22.4199 458.381 22.4199V12.4199C457.48 12.4199 455.886 12.6485 454.552 13.982C453.219 15.3155 452.99 16.9096 452.99 17.8105H462.99ZM458.407 22.4199L477.108 22.3222L477.056 12.3223L458.355 12.42L458.407 22.4199ZM477.214 22.3205C480.04 22.2462 482.447 22.8806 484.575 24.1529L489.706 15.5698C485.845 13.2613 481.546 12.2031 476.95 12.324L477.214 22.3205ZM484.595 24.165C486.885 25.5191 488.687 27.3295 490.052 29.6618L498.683 24.6117C496.467 20.8242 493.451 17.7843 489.686 15.5576L484.595 24.165ZM490.084 29.716C491.418 31.932 492.102 34.3869 492.102 37.1953H502.102C502.102 32.6469 500.962 28.3961 498.651 24.5575L490.084 29.716ZM492.102 37.1953V65.9062H502.102V37.1953H492.102ZM492.102 65.9062C492.102 68.9019 491.389 71.5444 489.996 73.9393L498.64 78.967C500.958 74.9816 502.102 70.5929 502.102 65.9062H492.102ZM490.027 73.8872C488.555 76.3482 486.632 78.2803 484.213 79.7419L489.384 88.3011C493.215 85.9866 496.305 82.8732 498.61 79.0191L490.027 73.8872ZM484.246 79.7222C481.932 81.0964 479.264 81.8511 476.12 81.903L476.286 91.9017C481.02 91.8234 485.416 90.6575 489.352 88.3208L484.246 79.7222ZM477.012 24.2856L470.03 24.3833L470.17 34.3823L477.152 34.2847L477.012 24.2856ZM465.1 29.372L465.002 74.6845L475.002 74.7061L475.1 29.3936L465.1 29.372ZM470.002 79.6953H476.203V69.6953H470.002V79.6953ZM476.203 79.6953C479.984 79.6953 483.365 78.3178 486.022 75.6091L478.884 68.6057C478.156 69.3475 477.37 69.6953 476.203 69.6953V79.6953ZM486.022 75.6091C488.629 72.9526 489.992 69.6296 489.992 65.9062H479.992C479.992 67.0006 479.663 67.8117 478.884 68.6057L486.022 75.6091ZM489.992 65.9062V37.0977H479.992V65.9062H489.992ZM489.992 37.0977C489.992 33.5916 488.638 30.4984 486.184 28.0445L479.113 35.1156C479.784 35.7868 479.992 36.372 479.992 37.0977H489.992ZM486.22 28.0812C483.723 25.5323 480.535 24.1782 476.931 24.2875L477.233 34.2829C477.926 34.2619 478.449 34.4378 479.077 35.079L486.22 28.0812ZM35.5742 139.48H40.5742V134.48H35.5742V139.48ZM22.0977 138.992L17.0978 138.949L17.0977 138.97V138.992H22.0977ZM22.1953 127.811L27.1951 127.854L27.1953 127.832V127.811H22.1953ZM47.5859 139.48V134.48H42.5774L42.5859 139.489L47.5859 139.48ZM47.6836 196.512H52.6836L52.6836 196.503L47.6836 196.512ZM47.293 192H36.0137V202H47.293V192ZM36.0137 192C36.7819 192 38.2346 192.238 39.4006 193.533C40.4764 194.728 40.5742 196.026 40.5742 196.512H30.5742C30.5742 197.323 30.7453 198.865 31.9676 200.223C33.2801 201.681 34.9524 202 36.0137 202V192ZM40.5742 196.512V139.48H30.5742V196.512H40.5742ZM35.5742 134.48H22.5859V144.48H35.5742V134.48ZM22.5859 134.48C23.1939 134.48 24.5682 134.636 25.7553 135.823C26.9423 137.01 27.0977 138.384 27.0977 138.992H17.0977C17.0977 139.926 17.3344 141.544 18.6842 142.894C20.034 144.244 21.6525 144.48 22.5859 144.48V134.48ZM27.0975 139.036L27.1951 127.854L17.1955 127.767L17.0978 138.949L27.0975 139.036ZM27.1953 127.811C27.1953 128.451 27.0318 129.85 25.8285 131.053C24.6252 132.256 23.2265 132.42 22.5859 132.42V122.42C21.685 122.42 20.0909 122.649 18.7574 123.982C17.4239 125.316 17.1953 126.91 17.1953 127.811H27.1953ZM22.5859 132.42H60.5742V122.42H22.5859V132.42ZM60.5742 132.42C60.2959 132.42 59.1838 132.396 58.0362 131.561C56.5927 130.511 56.1113 128.959 56.1113 127.811H66.1113C66.1113 126.402 65.5405 124.654 63.9179 123.474C62.5912 122.509 61.2106 122.42 60.5742 122.42V132.42ZM56.1113 127.811V138.992H66.1113V127.811H56.1113ZM56.1113 138.992C56.1113 138.621 56.1638 137.417 57.1093 136.235C58.2253 134.84 59.7474 134.48 60.7207 134.48V144.48C61.9544 144.48 63.6718 144.04 64.918 142.482C65.9938 141.137 66.1113 139.689 66.1113 138.992H56.1113ZM60.7207 134.48H47.5859V144.48H60.7207V134.48ZM42.5859 139.489L42.6836 196.52L52.6836 196.503L52.5859 139.472L42.5859 139.489ZM42.6836 196.512C42.6836 196.14 42.736 194.936 43.6816 193.754C44.7976 192.359 46.3197 192 47.293 192V202C48.5267 202 50.2441 201.559 51.4903 200.001C52.5661 198.657 52.6836 197.209 52.6836 196.512H42.6836ZM84.6348 195.242L82.0143 199.5L82.0246 199.507L82.035 199.513L84.6348 195.242ZM77.457 187.967L73.1415 190.492L73.1574 190.519L73.1736 190.546L77.457 187.967ZM74.7715 177.908L69.7715 177.893L69.7715 177.9V177.908H74.7715ZM74.8691 146.219L79.8691 146.234L79.8691 146.226V146.219H74.8691ZM77.5547 136.209L81.8338 138.795L81.8505 138.768L81.8668 138.74L77.5547 136.209ZM84.6836 129.031L87.2492 133.323L87.2663 133.313L87.2833 133.302L84.6836 129.031ZM104.264 128.982L101.635 133.236L101.646 133.242L101.656 133.249L104.264 128.982ZM111.295 136.209L106.971 138.72L106.987 138.747L107.003 138.775L111.295 136.209ZM113.98 146.219H108.98V146.226L108.98 146.234L113.98 146.219ZM114.078 177.908H119.078V177.9L119.078 177.893L114.078 177.908ZM111.441 187.918L115.757 190.443L115.761 190.436L115.765 190.429L111.441 187.918ZM99.7227 183.475L103.402 186.86L103.419 186.842L103.436 186.823L99.7227 183.475ZM101.969 177.908H106.969V177.9L106.969 177.893L101.969 177.908ZM101.871 146.219H96.8711V146.226L96.8711 146.234L101.871 146.219ZM89.1758 183.572L85.4931 186.954L85.5105 186.973L85.5281 186.992L89.1758 183.572ZM94.4492 192.977C91.8064 192.977 89.4361 192.311 87.2345 190.971L82.035 199.513C85.823 201.819 89.9957 202.977 94.4492 202.977V192.977ZM87.2553 190.984C84.9847 189.587 83.158 187.742 81.7404 185.388L73.1736 190.546C75.4019 194.247 78.3603 197.252 82.0143 199.5L87.2553 190.984ZM81.7726 185.442C80.4436 183.17 79.7715 180.693 79.7715 177.908H69.7715C69.7715 182.415 70.8898 186.643 73.1415 190.492L81.7726 185.442ZM79.7715 177.924L79.8691 146.234L69.8692 146.203L69.7715 177.893L79.7715 177.924ZM79.8691 146.219C79.8691 143.351 80.5492 140.921 81.8338 138.795L73.2755 133.623C70.9795 137.422 69.8691 141.664 69.8691 146.219H79.8691ZM81.8668 138.74C83.1974 136.473 84.9716 134.684 87.2492 133.323L82.118 124.74C78.406 126.959 75.4276 129.955 73.2426 133.678L81.8668 138.74ZM87.2833 133.302C89.4925 131.958 91.848 131.297 94.4492 131.297V121.297C90.0192 121.297 85.8643 122.459 82.0839 124.76L87.2833 133.302ZM94.4492 131.297C97.2347 131.297 99.584 131.968 101.635 133.236L106.892 124.729C103.149 122.416 98.9554 121.297 94.4492 121.297V131.297ZM101.656 133.249C103.862 134.597 105.622 136.396 106.971 138.72L115.619 133.698C113.452 129.967 110.524 126.949 106.871 124.716L101.656 133.249ZM107.003 138.775C108.305 140.951 108.98 143.393 108.98 146.219H118.98C118.98 141.688 117.866 137.456 115.586 133.643L107.003 138.775ZM108.98 146.234L109.078 177.924L119.078 177.893L118.98 146.203L108.98 146.234ZM109.078 177.908C109.078 180.71 108.414 183.175 107.117 185.407L115.765 190.429C117.985 186.606 119.078 182.398 119.078 177.908H109.078ZM107.126 185.393C105.741 187.759 103.942 189.599 101.692 190.984L106.933 199.5C110.608 197.239 113.561 194.197 115.757 190.443L107.126 185.393ZM101.692 190.984C99.5493 192.302 97.1749 192.977 94.4492 192.977V202.977C98.9501 202.977 103.151 201.828 106.933 199.5L101.692 190.984ZM94.4492 190.916C98.0085 190.916 101.059 189.407 103.402 186.86L96.043 180.089C95.3913 180.798 94.9264 180.916 94.4492 180.916V190.916ZM103.436 186.823C105.68 184.335 106.969 181.312 106.969 177.908H96.9688C96.9688 178.606 96.7597 179.294 96.0098 180.126L103.436 186.823ZM106.969 177.893L106.871 146.203L96.8711 146.234L96.9688 177.924L106.969 177.893ZM106.871 146.219C106.871 142.848 105.764 139.746 103.461 137.228L96.0825 143.979C96.5787 144.521 96.8711 145.162 96.8711 146.219H106.871ZM103.461 137.228C101.076 134.622 97.9435 133.309 94.4492 133.309V143.309C95.2518 143.309 95.6679 143.525 96.0825 143.979L103.461 137.228ZM94.4492 133.309C91.0212 133.309 87.9844 134.622 85.6016 137.058L92.75 144.051C93.2968 143.492 93.7757 143.309 94.4492 143.309V133.309ZM85.6016 137.058C83.1382 139.576 81.9785 142.759 81.9785 146.219H91.9785C91.9785 145.121 92.2836 144.528 92.75 144.051L85.6016 137.058ZM81.9785 146.219V177.908H91.9785V146.219H81.9785ZM81.9785 177.908C81.9785 181.332 83.1744 184.429 85.4931 186.954L92.8584 180.19C92.2475 179.525 91.9785 178.847 91.9785 177.908H81.9785ZM85.5281 186.992C87.891 189.512 90.9488 190.916 94.4492 190.916V180.916C93.848 180.916 93.3903 180.757 92.8235 180.153L85.5281 186.992ZM133.646 196.512L128.647 196.497L128.646 196.505V196.512H133.646ZM133.842 127.908L138.842 127.922L138.842 127.915V127.908H133.842ZM145.854 151.59H140.854V168.261L150.028 154.342L145.854 151.59ZM161.527 127.811L157.992 124.275L157.632 124.634L157.353 125.059L161.527 127.811ZM173.93 127.811L178.167 130.465L178.17 130.461L173.93 127.811ZM156.645 155.398L152.407 152.744L150.958 155.057L152.12 157.527L156.645 155.398ZM176.029 196.609L171.505 198.738L171.632 199.007L171.789 199.259L176.029 196.609ZM162.748 196.609L167.599 195.397L167.485 194.944L167.29 194.519L162.748 196.609ZM149.223 167.215L153.765 165.125L149.922 156.773L145 164.538L149.223 167.215ZM145.756 172.684L141.533 170.007L140.756 171.232V172.684H145.756ZM145.365 192H134.037V202H145.365V192ZM134.037 192C135.01 192 136.532 192.359 137.648 193.754C138.594 194.936 138.646 196.14 138.646 196.512H128.646C128.646 197.209 128.764 198.657 129.84 200.001C131.086 201.559 132.803 202 134.037 202V192ZM138.646 196.526L138.842 127.922L128.842 127.894L128.647 196.497L138.646 196.526ZM138.842 127.908C138.842 128.28 138.789 129.484 137.844 130.665C136.728 132.06 135.206 132.42 134.232 132.42V122.42C132.999 122.42 131.281 122.861 130.035 124.419C128.959 125.763 128.842 127.211 128.842 127.908H138.842ZM134.232 132.42H145.463V122.42H134.232V132.42ZM145.463 132.42C144.49 132.42 142.968 132.06 141.852 130.665C140.906 129.484 140.854 128.28 140.854 127.908H150.854C150.854 127.211 150.736 125.763 149.66 124.419C148.414 122.861 146.697 122.42 145.463 122.42V132.42ZM140.854 127.908V151.59H150.854V127.908H140.854ZM150.028 154.342L165.702 130.562L157.353 125.059L141.679 148.838L150.028 154.342ZM165.063 131.346C164.939 131.47 163.976 132.42 162.26 132.42V122.42C160.087 122.42 158.636 123.631 157.992 124.275L165.063 131.346ZM162.26 132.42H173.734V122.42H162.26V132.42ZM173.734 132.42C173.504 132.42 172.918 132.403 172.203 132.143C171.428 131.862 170.246 131.184 169.531 129.754C168.84 128.372 168.992 127.094 169.158 126.427C169.321 125.775 169.583 125.332 169.69 125.161L178.17 130.461C178.358 130.159 178.672 129.602 178.86 128.852C179.051 128.088 179.199 126.729 178.475 125.282C177.727 123.786 176.484 123.06 175.62 122.745C174.815 122.453 174.111 122.42 173.734 122.42V132.42ZM169.693 125.156L152.407 152.744L160.882 158.053L178.167 130.465L169.693 125.156ZM152.12 157.527L171.505 198.738L180.554 194.481L161.169 153.27L152.12 157.527ZM171.789 199.259C171.593 198.946 171.09 198.061 171.09 196.78C171.09 195.197 171.852 193.841 172.906 192.998C173.753 192.32 174.579 192.13 174.866 192.073C175.219 192.002 175.472 192 175.541 192V202C175.854 202 176.31 201.982 176.827 201.878C177.276 201.789 178.224 201.549 179.153 200.807C180.288 199.899 181.09 198.462 181.09 196.78C181.09 195.402 180.547 194.403 180.269 193.959L171.789 199.259ZM175.541 192H163.334V202H175.541V192ZM163.334 192C163.789 192 164.732 192.086 165.717 192.742C166.803 193.466 167.376 194.506 167.599 195.397L157.897 197.822C158.185 198.973 158.889 200.208 160.17 201.063C161.35 201.849 162.553 202 163.334 202V192ZM167.29 194.519L153.765 165.125L144.68 169.305L158.206 198.699L167.29 194.519ZM145 164.538L141.533 170.007L149.979 175.361L153.446 169.892L145 164.538ZM140.756 172.684V196.512H150.756V172.684H140.756ZM140.756 196.512C140.756 196.14 140.808 194.936 141.754 193.754C142.87 192.359 144.392 192 145.365 192V202C146.599 202 148.316 201.559 149.563 200.001C150.638 198.657 150.756 197.209 150.756 196.512H140.756ZM192.521 196.512L187.521 196.505V196.512H192.521ZM192.619 127.811L197.619 127.818V127.811H192.619ZM204.631 139.48V134.48H199.631V139.48H204.631ZM204.631 155.105H199.631V160.105H204.631V155.105ZM225.529 155.496H220.529V155.518L220.529 155.539L225.529 155.496ZM225.627 166.824H230.627V166.803L230.627 166.781L225.627 166.824ZM204.631 167.215V162.215H199.631V167.215H204.631ZM204.631 184.695H199.631V189.695H204.631V184.695ZM225.236 192H192.912V202H225.236V192ZM192.912 192C193.885 192 195.407 192.359 196.523 193.754C197.469 194.936 197.521 196.14 197.521 196.512H187.521C187.521 197.209 187.639 198.657 188.715 200.001C189.961 201.559 191.678 202 192.912 202V192ZM197.521 196.519L197.619 127.818L187.619 127.803L187.521 196.505L197.521 196.519ZM197.619 127.811C197.619 128.451 197.456 129.85 196.252 131.053C195.049 132.256 193.65 132.42 193.01 132.42V122.42C192.109 122.42 190.515 122.649 189.181 123.982C187.848 125.316 187.619 126.91 187.619 127.811H197.619ZM193.01 132.42H225.139V122.42H193.01V132.42ZM225.139 132.42C224.165 132.42 222.643 132.06 221.527 130.665C220.582 129.484 220.529 128.28 220.529 127.908H230.529C230.529 127.211 230.412 125.763 229.336 124.419C228.09 122.861 226.372 122.42 225.139 122.42V132.42ZM220.529 127.908V139.09H230.529V127.908H220.529ZM220.529 139.09C220.529 138.449 220.693 137.051 221.896 135.847C223.099 134.644 224.498 134.48 225.139 134.48V144.48C226.04 144.48 227.634 144.252 228.967 142.918C230.301 141.585 230.529 139.991 230.529 139.09H220.529ZM225.139 134.48H204.631V144.48H225.139V134.48ZM199.631 139.48V155.105H209.631V139.48H199.631ZM204.631 160.105H225.139V150.105H204.631V160.105ZM225.139 160.105C224.498 160.105 223.099 159.942 221.896 158.739C220.693 157.535 220.529 156.137 220.529 155.496H230.529C230.529 154.595 230.301 153.001 228.967 151.668C227.634 150.334 226.04 150.105 225.139 150.105V160.105ZM220.529 155.539L220.627 166.867L230.627 166.781L230.529 155.453L220.529 155.539ZM220.627 166.824C220.627 166.184 220.79 164.785 221.994 163.582C223.197 162.378 224.596 162.215 225.236 162.215V172.215C226.137 172.215 227.731 171.986 229.065 170.653C230.398 169.319 230.627 167.725 230.627 166.824H220.627ZM225.236 162.215H204.631V172.215H225.236V162.215ZM199.631 167.215V184.695H209.631V167.215H199.631ZM204.631 189.695H225.236V179.695H204.631V189.695ZM225.236 189.695C224.263 189.695 222.741 189.336 221.625 187.941C220.679 186.759 220.627 185.555 220.627 185.184H230.627C230.627 184.487 230.509 183.039 229.434 181.694C228.187 180.136 226.47 179.695 225.236 179.695V189.695ZM220.627 185.184V196.609H230.627V185.184H220.627ZM220.627 196.609C220.627 195.969 220.79 194.57 221.994 193.367C223.197 192.164 224.596 192 225.236 192V202C226.137 202 227.731 201.771 229.065 200.438C230.398 199.104 230.627 197.51 230.627 196.609H220.627ZM246.611 196.316L251.611 196.316L251.611 196.309L246.611 196.316ZM246.514 128.201L241.514 128.201L241.514 128.208L246.514 128.201ZM256.328 127.42L260.924 125.45L259.625 122.42H256.328V127.42ZM273.223 166.824L268.627 168.795L278.222 166.761L273.223 166.824ZM272.734 128.201H267.734V128.233L267.735 128.264L272.734 128.201ZM284.111 128.201L279.111 128.201L279.111 128.208L284.111 128.201ZM284.209 196.414L289.209 196.414L289.209 196.407L284.209 196.414ZM274.932 197L270.408 199.13L271.759 202H274.932V197ZM257.598 160.184L262.121 158.054L252.599 160.285L257.598 160.184ZM258.33 196.219H263.33V196.168L263.329 196.117L258.33 196.219ZM257.402 192H247.393V202H257.402V192ZM247.393 192C247.751 192 248.954 192.064 250.099 193.066C251.372 194.18 251.611 195.587 251.611 196.316H241.611C241.611 197.501 241.981 199.25 243.514 200.592C244.92 201.822 246.513 202 247.393 202V192ZM251.611 196.309L251.514 128.194L241.514 128.208L241.611 196.324L251.611 196.309ZM251.514 128.201C251.514 128.711 251.383 130.013 250.245 131.151C249.106 132.289 247.805 132.42 247.295 132.42V122.42C246.264 122.42 244.572 122.681 243.173 124.08C241.775 125.478 241.514 127.17 241.514 128.201H251.514ZM247.295 132.42H256.328V122.42H247.295V132.42ZM251.733 129.39L268.627 168.795L277.818 164.854L260.924 125.45L251.733 129.39ZM278.222 166.761L277.734 128.138L267.735 128.264L268.223 166.887L278.222 166.761ZM277.734 128.201C277.734 128.874 277.518 130.248 276.276 131.352C275.146 132.357 273.955 132.42 273.613 132.42V122.42C272.685 122.42 271.055 122.613 269.632 123.878C268.097 125.243 267.734 127.008 267.734 128.201H277.734ZM273.613 132.42H283.525V122.42H273.613V132.42ZM283.525 132.42C282.501 132.42 281.005 132.003 279.965 130.615C279.127 129.498 279.111 128.422 279.111 128.201H289.111C289.111 127.46 288.998 125.992 287.965 124.615C286.729 122.968 284.941 122.42 283.525 122.42V132.42ZM279.111 128.208L279.209 196.421L289.209 196.407L289.111 128.194L279.111 128.208ZM279.209 196.414C279.209 196.038 279.268 194.825 280.246 193.653C281.369 192.305 282.849 192 283.721 192V202C284.918 202 286.642 201.597 287.928 200.054C289.068 198.686 289.209 197.181 289.209 196.414H279.209ZM283.721 192H274.932V202H283.721V192ZM279.455 194.87L262.121 158.054L253.074 162.313L270.408 199.13L279.455 194.87ZM252.599 160.285L253.331 196.32L263.329 196.117L262.597 160.082L252.599 160.285ZM253.33 196.219C253.33 195.462 253.596 194.06 254.877 192.98C255.995 192.039 257.13 192 257.402 192V202C258.293 202 259.892 201.831 261.319 200.629C262.91 199.289 263.33 197.497 263.33 196.219H253.33ZM313.592 195.242L310.971 199.5L310.982 199.507L310.992 199.513L313.592 195.242ZM306.414 187.967L302.099 190.492L302.114 190.519L302.131 190.546L306.414 187.967ZM303.729 177.908L298.729 177.893L298.729 177.9V177.908H303.729ZM303.826 146.219L308.826 146.234L308.826 146.226V146.219H303.826ZM306.512 136.209L310.791 138.795L310.808 138.768L310.824 138.74L306.512 136.209ZM313.641 129.031L316.206 133.323L316.223 133.313L316.24 133.302L313.641 129.031ZM333.221 128.982L330.592 133.236L330.603 133.242L330.613 133.249L333.221 128.982ZM340.252 136.209L335.928 138.72L335.944 138.747L335.96 138.775L340.252 136.209ZM342.938 146.219H337.938V146.226L337.938 146.234L342.938 146.219ZM343.035 177.908H348.035V177.9L348.035 177.893L343.035 177.908ZM340.398 187.918L344.714 190.443L344.718 190.436L344.722 190.429L340.398 187.918ZM328.68 183.475L332.359 186.86L332.376 186.842L332.393 186.823L328.68 183.475ZM330.926 177.908H335.926V177.9L335.926 177.893L330.926 177.908ZM330.828 146.219H325.828V146.226L325.828 146.234L330.828 146.219ZM318.133 183.572L314.45 186.954L314.468 186.973L314.485 186.992L318.133 183.572ZM323.406 192.977C320.763 192.977 318.393 192.311 316.192 190.971L310.992 199.513C314.78 201.819 318.953 202.977 323.406 202.977V192.977ZM316.212 190.984C313.942 189.587 312.115 187.742 310.697 185.388L302.131 190.546C304.359 194.247 307.317 197.252 310.971 199.5L316.212 190.984ZM310.73 185.442C309.401 183.17 308.729 180.693 308.729 177.908H298.729C298.729 182.415 299.847 186.643 302.099 190.492L310.73 185.442ZM308.728 177.924L308.826 146.234L298.826 146.203L298.729 177.893L308.728 177.924ZM308.826 146.219C308.826 143.351 309.506 140.921 310.791 138.795L302.233 133.623C299.936 137.422 298.826 141.664 298.826 146.219H308.826ZM310.824 138.74C312.154 136.473 313.929 134.684 316.206 133.323L311.075 124.74C307.363 126.959 304.385 129.955 302.2 133.678L310.824 138.74ZM316.24 133.302C318.45 131.958 320.805 131.297 323.406 131.297V121.297C318.976 121.297 314.821 122.459 311.041 124.76L316.24 133.302ZM323.406 131.297C326.192 131.297 328.541 131.968 330.592 133.236L335.849 124.729C332.106 122.416 327.912 121.297 323.406 121.297V131.297ZM330.613 133.249C332.82 134.597 334.579 136.396 335.928 138.72L344.576 133.698C342.409 129.967 339.481 126.949 335.828 124.716L330.613 133.249ZM335.96 138.775C337.262 140.951 337.938 143.393 337.938 146.219H347.938C347.938 141.688 346.823 137.456 344.544 133.643L335.96 138.775ZM337.938 146.234L338.035 177.924L348.035 177.893L347.937 146.203L337.938 146.234ZM338.035 177.908C338.035 180.71 337.371 183.175 336.074 185.407L344.722 190.429C346.942 186.606 348.035 182.398 348.035 177.908H338.035ZM336.083 185.393C334.698 187.759 332.899 189.599 330.649 190.984L335.89 199.5C339.565 197.239 342.518 194.197 344.714 190.443L336.083 185.393ZM330.649 190.984C328.506 192.302 326.132 192.977 323.406 192.977V202.977C327.907 202.977 332.108 201.828 335.89 199.5L330.649 190.984ZM323.406 190.916C326.966 190.916 330.016 189.407 332.359 186.86L325 180.089C324.348 180.798 323.883 180.916 323.406 180.916V190.916ZM332.393 186.823C334.637 184.335 335.926 181.312 335.926 177.908H325.926C325.926 178.606 325.717 179.294 324.967 180.126L332.393 186.823ZM335.926 177.893L335.828 146.203L325.828 146.234L325.926 177.924L335.926 177.893ZM335.828 146.219C335.828 142.848 334.721 139.746 332.418 137.228L325.039 143.979C325.536 144.521 325.828 145.162 325.828 146.219H335.828ZM332.418 137.228C330.033 134.622 326.901 133.309 323.406 133.309V143.309C324.209 143.309 324.625 143.525 325.039 143.979L332.418 137.228ZM323.406 133.309C319.978 133.309 316.941 134.622 314.559 137.058L321.707 144.051C322.254 143.492 322.733 143.309 323.406 143.309V133.309ZM314.559 137.058C312.095 139.576 310.936 142.759 310.936 146.219H320.936C320.936 145.121 321.241 144.528 321.707 144.051L314.559 137.058ZM310.936 146.219V177.908H320.936V146.219H310.936ZM310.936 177.908C310.936 181.332 312.131 184.429 314.45 186.954L321.815 180.19C321.204 179.525 320.936 178.847 320.936 177.908H310.936ZM314.485 186.992C316.848 189.512 319.906 190.916 323.406 190.916V180.916C322.805 180.916 322.347 180.757 321.78 180.153L314.485 186.992ZM362.604 196.512L357.604 196.498L357.604 196.505V196.512H362.604ZM362.799 127.811L367.799 127.825L367.799 127.818V127.811H362.799ZM376.08 127.811L380.19 124.964L380.137 124.886L380.08 124.811L376.08 127.811ZM385.211 140.994L381.101 143.841L385.222 149.792L389.328 143.831L385.211 140.994ZM394.293 127.811L390.293 124.811L390.233 124.891L390.175 124.974L394.293 127.811ZM407.721 127.811H402.721V127.818L402.721 127.825L407.721 127.811ZM407.916 196.512H412.916V196.505L412.916 196.498L407.916 196.512ZM395.807 196.512L400.807 196.512L400.807 196.502L395.807 196.512ZM395.709 145.486L400.709 145.477L400.678 129.463L391.592 142.649L395.709 145.486ZM385.211 160.721L381.081 163.54L385.192 169.56L389.328 163.558L385.211 160.721ZM374.811 145.486L378.94 142.667L369.841 129.34L369.811 145.477L374.811 145.486ZM374.713 196.512L369.713 196.502V196.512H374.713ZM374.322 192H362.994V202H374.322V192ZM362.994 192C363.967 192 365.49 192.359 366.606 193.754C367.551 194.936 367.604 196.14 367.604 196.512H357.604C357.604 197.209 357.721 198.657 358.797 200.001C360.043 201.559 361.76 202 362.994 202V192ZM367.603 196.526L367.799 127.825L357.799 127.796L357.604 196.498L367.603 196.526ZM367.799 127.811C367.799 128.451 367.635 129.85 366.432 131.053C365.229 132.256 363.83 132.42 363.189 132.42V122.42C362.289 122.42 360.694 122.649 359.361 123.982C358.027 125.316 357.799 126.91 357.799 127.811H367.799ZM363.189 132.42H375.396V122.42H363.189V132.42ZM375.396 132.42C374.649 132.42 373.917 132.222 373.282 131.859C372.679 131.514 372.296 131.099 372.08 130.811L380.08 124.811C379.202 123.64 377.621 122.42 375.396 122.42V132.42ZM371.97 130.657L381.101 143.841L389.321 138.147L380.19 124.964L371.97 130.657ZM389.328 143.831L398.411 130.647L390.175 124.974L381.093 138.158L389.328 143.831ZM398.293 130.811C398.028 131.163 397.603 131.595 396.975 131.929C396.331 132.273 395.65 132.42 395.025 132.42V122.42C392.968 122.42 391.312 123.452 390.293 124.811L398.293 130.811ZM395.025 132.42H407.281V122.42H395.025V132.42ZM407.281 132.42C406.793 132.42 405.492 132.324 404.289 131.255C402.974 130.085 402.721 128.614 402.721 127.811H412.721C412.721 126.747 412.395 125.08 410.933 123.781C409.583 122.581 408.063 122.42 407.281 122.42V132.42ZM402.721 127.825L402.916 196.526L412.916 196.498L412.721 127.796L402.721 127.825ZM402.916 196.512C402.916 196.14 402.968 194.936 403.914 193.754C405.03 192.359 406.552 192 407.525 192V202C408.759 202 410.476 201.559 411.723 200.001C412.798 198.657 412.916 197.209 412.916 196.512H402.916ZM407.525 192H396.197V202H407.525V192ZM396.197 192C397.171 192 398.693 192.359 399.809 193.754C400.754 194.936 400.807 196.14 400.807 196.512H390.807C390.807 197.209 390.924 198.657 392 200.001C393.246 201.559 394.964 202 396.197 202V192ZM400.807 196.502L400.709 145.477L390.709 145.496L390.807 196.521L400.807 196.502ZM391.592 142.649L381.094 157.884L389.328 163.558L399.826 148.323L391.592 142.649ZM389.34 157.902L378.94 142.667L370.681 148.305L381.081 163.54L389.34 157.902ZM369.811 145.477L369.713 196.502L379.713 196.521L379.811 145.496L369.811 145.477ZM369.713 196.512C369.713 196.14 369.765 194.936 370.711 193.754C371.827 192.359 373.349 192 374.322 192V202C375.556 202 377.273 201.559 378.52 200.001C379.595 198.657 379.713 197.209 379.713 196.512H369.713ZM428.314 196.512L423.314 196.505V196.512H428.314ZM428.412 127.811L433.412 127.818V127.811H428.412ZM440.424 127.811L435.424 127.811L435.424 127.818L440.424 127.811ZM440.521 196.512L445.521 196.512L445.521 196.505L440.521 196.512ZM440.131 192H428.803V202H440.131V192ZM428.803 192C429.411 192 430.785 192.155 431.972 193.342C433.159 194.529 433.314 195.904 433.314 196.512H423.314C423.314 197.445 423.551 199.064 424.901 200.413C426.251 201.763 427.869 202 428.803 202V192ZM433.314 196.519L433.412 127.818L423.412 127.803L423.314 196.505L433.314 196.519ZM433.412 127.811C433.412 128.451 433.249 129.85 432.045 131.053C430.842 132.256 429.443 132.42 428.803 132.42V122.42C427.902 122.42 426.308 122.649 424.974 123.982C423.641 125.316 423.412 126.91 423.412 127.811H433.412ZM428.803 132.42H440.033V122.42H428.803V132.42ZM440.033 132.42C439.393 132.42 437.994 132.256 436.791 131.053C435.587 129.85 435.424 128.451 435.424 127.811H445.424C445.424 126.91 445.195 125.316 443.862 123.982C442.528 122.649 440.934 122.42 440.033 122.42V132.42ZM435.424 127.818L435.521 196.519L445.521 196.505L445.424 127.803L435.424 127.818ZM435.521 196.512C435.521 196.14 435.574 194.936 436.519 193.754C437.635 192.359 439.158 192 440.131 192V202C441.365 202 443.082 201.559 444.328 200.001C445.404 198.657 445.521 197.209 445.521 196.512H435.521ZM469.807 195.242L467.186 199.5L467.197 199.507L467.207 199.513L469.807 195.242ZM462.727 187.918L458.36 190.354L458.375 190.381L458.391 190.409L462.727 187.918ZM460.139 177.615L455.139 177.6L455.139 177.607V177.615H460.139ZM460.236 146.414L465.236 146.43L465.236 146.422V146.414H460.236ZM462.775 136.355L467.128 138.816L467.134 138.806L467.14 138.796L462.775 136.355ZM469.758 129.08L472.378 133.338L472.385 133.334L472.391 133.33L469.758 129.08ZM489.631 128.982L487.002 133.236L487.013 133.242L487.024 133.249L489.631 128.982ZM496.613 136.258L492.258 138.714L492.273 138.741L492.289 138.768L496.613 136.258ZM474.494 183.621L470.808 187L470.826 187.019L470.844 187.038L474.494 183.621ZM485.09 183.377L488.907 186.607L488.922 186.589L488.937 186.571L485.09 183.377ZM496.711 187.869L501.026 190.394L501.042 190.367L501.058 190.34L496.711 187.869ZM489.631 195.242L492.272 199.487L492.289 199.477L492.306 199.466L489.631 195.242ZM479.719 192.977C476.993 192.977 474.593 192.302 472.406 190.971L467.207 199.513C471.01 201.828 475.218 202.977 479.719 202.977V192.977ZM472.427 190.984C470.186 189.605 468.411 187.775 467.062 185.427L458.391 190.409C460.558 194.18 463.503 197.234 467.186 199.5L472.427 190.984ZM467.093 185.482C465.811 183.184 465.139 180.597 465.139 177.615H455.139C455.139 182.186 456.192 186.467 458.36 190.354L467.093 185.482ZM465.139 177.631L465.236 146.43L455.236 146.398L455.139 177.6L465.139 177.631ZM465.236 146.414C465.236 143.495 465.893 141.001 467.128 138.816L458.423 133.895C456.272 137.699 455.236 141.911 455.236 146.414H465.236ZM467.14 138.796C468.414 136.515 470.141 134.715 472.378 133.338L467.137 124.822C463.45 127.091 460.522 130.141 458.411 133.915L467.14 138.796ZM472.391 133.33C474.567 131.983 476.969 131.297 479.719 131.297V121.297C475.177 121.297 470.939 122.467 467.124 124.83L472.391 133.33ZM479.719 131.297C482.587 131.297 484.965 131.977 487.002 133.236L492.259 124.729C488.502 122.407 484.272 121.297 479.719 121.297V131.297ZM487.024 133.249C489.208 134.584 490.941 136.378 492.258 138.714L500.969 133.802C498.835 130.017 495.913 126.962 492.238 124.716L487.024 133.249ZM492.289 138.768C493.574 140.98 494.25 143.489 494.25 146.414H504.25C504.25 141.852 503.169 137.59 500.937 133.747L492.289 138.768ZM494.25 146.414V151.004H504.25V146.414H494.25ZM494.25 151.004C494.25 150.363 494.414 148.965 495.617 147.761C496.82 146.558 498.219 146.395 498.859 146.395V156.395C499.76 156.395 501.354 156.166 502.688 154.832C504.021 153.499 504.25 151.905 504.25 151.004H494.25ZM498.859 146.395H487.629V156.395H498.859V146.395ZM487.629 146.395C488.269 146.395 489.668 146.558 490.871 147.761C492.075 148.965 492.238 150.363 492.238 151.004H482.238C482.238 151.905 482.467 153.499 483.8 154.832C485.134 156.166 486.728 156.395 487.629 156.395V146.395ZM492.238 151.004V146.414H482.238V151.004H492.238ZM492.238 146.414C492.238 143.011 491.095 139.906 488.81 137.361L481.37 144.042C481.949 144.687 482.238 145.39 482.238 146.414H492.238ZM488.81 137.361C486.427 134.707 483.283 133.309 479.719 133.309V143.309C480.451 143.309 480.888 143.505 481.37 144.042L488.81 137.361ZM479.719 133.309C476.065 133.309 472.675 134.639 470.307 137.675L478.193 143.825C478.364 143.606 478.62 143.309 479.719 143.309V133.309ZM470.307 137.675C468.323 140.219 467.346 143.2 467.346 146.414H477.346C477.346 145.331 477.638 144.536 478.193 143.825L470.307 137.675ZM467.346 146.414V177.615H477.346V146.414H467.346ZM467.346 177.615C467.346 181.104 468.403 184.376 470.808 187L478.18 180.242C477.721 179.742 477.346 179.009 477.346 177.615H467.346ZM470.844 187.038C473.198 189.553 476.251 190.916 479.719 190.916V180.916C479.085 180.916 478.655 180.749 478.144 180.204L470.844 187.038ZM479.719 190.916C483.391 190.916 486.559 189.381 488.907 186.607L481.273 180.147C480.756 180.759 480.343 180.916 479.719 180.916V190.916ZM488.937 186.571C491.066 184.006 492.238 180.971 492.238 177.615H482.238C482.238 178.491 481.978 179.297 481.243 180.183L488.937 186.571ZM492.238 177.615V172.977H482.238V177.615H492.238ZM492.238 172.977C492.238 173.617 492.075 175.016 490.871 176.219C489.668 177.422 488.269 177.586 487.629 177.586V167.586C486.728 167.586 485.134 167.815 483.8 169.148C482.467 170.482 482.238 172.076 482.238 172.977H492.238ZM487.629 177.586H498.957V167.586H487.629V177.586ZM498.957 177.586C498.317 177.586 496.918 177.422 495.714 176.219C494.511 175.016 494.348 173.617 494.348 172.977H504.348C504.348 172.076 504.119 170.482 502.786 169.148C501.452 167.815 499.858 167.586 498.957 167.586V177.586ZM494.348 172.977V177.615H504.348V172.977H494.348ZM494.348 177.615C494.348 180.54 493.671 183.099 492.364 185.398L501.058 190.34C503.266 186.454 504.348 182.178 504.348 177.615H494.348ZM492.395 185.344C490.999 187.731 489.195 189.6 486.956 191.018L492.306 199.466C495.926 197.174 498.842 194.127 501.026 190.394L492.395 185.344ZM486.989 190.997C484.905 192.294 482.528 192.977 479.719 192.977V202.977C484.267 202.977 488.497 201.837 492.272 199.487L486.989 190.997ZM525.801 195.242L523.18 199.5L523.191 199.507L523.201 199.513L525.801 195.242ZM518.672 187.967L514.336 190.457L514.352 190.485L514.368 190.512L518.672 187.967ZM530.342 183.572L526.659 186.954L526.677 186.973L526.694 186.992L530.342 183.572ZM540.938 183.523L544.62 186.905L544.637 186.887L544.654 186.868L540.938 183.523ZM538.35 171.512L535.7 175.752L535.783 175.804L535.869 175.853L538.35 171.512ZM536.299 170.34L533.726 174.627L533.826 174.687L533.928 174.742L536.299 170.34ZM530.049 166.873L527.554 171.206L527.604 171.235L527.655 171.263L530.049 166.873ZM526.924 165.115L524.385 169.423L524.452 169.462L524.52 169.499L526.924 165.115ZM518.77 157.059L514.37 159.434L514.384 159.461L514.399 159.487L518.77 157.059ZM518.867 136.062L514.609 133.442L514.603 133.452L514.596 133.463L518.867 136.062ZM525.996 129.031L528.533 133.34L528.54 133.335L528.548 133.331L525.996 129.031ZM545.381 129.031L547.967 124.752L547.95 124.742L547.932 124.731L545.381 129.031ZM552.461 136.16L548.161 138.712L548.171 138.729L548.182 138.746L552.461 136.16ZM543.135 154.324H548.135V154.294L548.134 154.265L543.135 154.324ZM543.037 146.121H538.037V146.151L538.037 146.181L543.037 146.121ZM529.512 151.59L525.266 154.231L525.287 154.265L525.309 154.298L529.512 151.59ZM534.639 155.789L532.265 160.19L532.333 160.226L532.403 160.261L534.639 155.789ZM539.57 158.523L537.09 162.865L537.162 162.906L537.237 162.945L539.57 158.523ZM542.744 160.232L540.329 164.61L540.387 164.643L540.447 164.674L542.744 160.232ZM544.453 161.111L546.892 156.747L546.792 156.691L546.689 156.639L544.453 161.111ZM552.314 167.947L548.239 170.844L548.251 170.86L548.262 170.877L552.314 167.947ZM552.607 188.162L556.911 190.707L556.921 190.69L556.931 190.673L552.607 188.162ZM535.615 192.977C532.972 192.977 530.602 192.311 528.401 190.971L523.201 199.513C526.989 201.819 531.162 202.977 535.615 202.977V192.977ZM528.421 190.984C526.159 189.592 524.357 187.758 522.976 185.422L514.368 190.512C516.567 194.23 519.518 197.247 523.18 199.5L528.421 190.984ZM523.007 185.476C521.7 183.2 521.035 180.71 521.035 177.908H511.035C511.035 182.398 512.128 186.614 514.336 190.457L523.007 185.476ZM521.035 177.908V173.318H511.035V177.908H521.035ZM521.035 173.318C521.035 173.798 520.936 175.092 519.857 176.279C518.695 177.557 517.261 177.781 516.523 177.781V167.781C515.461 167.781 513.782 168.095 512.458 169.552C511.215 170.918 511.035 172.48 511.035 173.318H521.035ZM516.523 177.781H527.754V167.781H516.523V177.781ZM527.754 177.781C526.605 177.781 525.053 177.3 524.003 175.856C523.169 174.709 523.145 173.597 523.145 173.318H533.145C533.145 172.682 533.055 171.301 532.091 169.975C530.911 168.352 529.163 167.781 527.754 167.781V177.781ZM523.145 173.318V177.908H533.145V173.318H523.145ZM523.145 177.908C523.145 181.332 524.34 184.429 526.659 186.954L534.024 180.19C533.413 179.525 533.145 178.847 533.145 177.908H523.145ZM526.694 186.992C529.057 189.512 532.115 190.916 535.615 190.916V180.916C535.014 180.916 534.556 180.757 533.989 180.153L526.694 186.992ZM535.615 190.916C539.16 190.916 542.251 189.486 544.62 186.905L537.255 180.141C536.695 180.751 536.237 180.916 535.615 180.916V190.916ZM544.654 186.868C546.913 184.358 548.135 181.306 548.135 177.908H538.135C538.135 178.742 537.891 179.434 537.221 180.179L544.654 186.868ZM548.135 177.908C548.135 172.867 544.723 169.395 540.83 167.171L535.869 175.853C537.081 176.545 537.672 177.121 537.935 177.473C538.148 177.758 538.135 177.866 538.135 177.908H548.135ZM541 167.272C540.352 166.867 539.564 166.419 538.669 165.937L533.928 174.742C534.726 175.172 535.306 175.506 535.7 175.752L541 167.272ZM538.871 166.052C537.978 165.517 536.936 164.927 535.755 164.285L530.984 173.074C532.081 173.67 532.992 174.187 533.726 174.627L538.871 166.052ZM535.755 164.285C534.618 163.668 533.514 163.068 532.443 162.484L527.655 171.263C528.732 171.85 529.842 172.454 530.984 173.074L535.755 164.285ZM532.544 162.54C531.442 161.905 530.37 161.302 529.328 160.731L524.52 169.499C525.496 170.035 526.508 170.604 527.554 171.206L532.544 162.54ZM529.462 160.808C526.468 159.043 524.438 156.965 523.14 154.63L514.399 159.487C516.682 163.597 520.088 166.89 524.385 169.423L529.462 160.808ZM523.169 154.683C521.841 152.223 521.133 149.405 521.133 146.121H511.133C511.133 150.91 512.183 155.384 514.37 159.434L523.169 154.683ZM521.133 146.121C521.133 143.271 521.82 140.827 523.138 138.662L514.596 133.463C512.268 137.287 511.133 141.549 511.133 146.121H521.133ZM523.125 138.683C524.531 136.399 526.323 134.641 528.533 133.34L523.459 124.723C519.81 126.872 516.849 129.802 514.609 133.442L523.125 138.683ZM528.548 133.331C530.736 132.032 533.061 131.395 535.615 131.395V121.395C531.268 121.395 527.18 122.514 523.444 124.731L528.548 133.331ZM535.615 131.395C538.294 131.395 540.663 132.046 542.829 133.331L547.932 124.731C544.174 122.501 540.033 121.395 535.615 121.395V131.395ZM542.795 133.31C545.056 134.677 546.826 136.461 548.161 138.712L556.761 133.609C554.581 129.935 551.631 126.966 547.967 124.752L542.795 133.31ZM548.182 138.746C549.471 140.879 550.146 143.295 550.146 146.121H560.146C560.146 141.591 559.032 137.366 556.74 133.574L548.182 138.746ZM550.146 146.121V154.324H560.146V146.121H550.146ZM550.146 154.324C550.146 153.684 550.31 152.285 551.513 151.082C552.717 149.878 554.115 149.715 554.756 149.715V159.715C555.657 159.715 557.251 159.486 558.584 158.153C559.918 156.819 560.146 155.225 560.146 154.324H550.146ZM554.756 149.715H543.525V159.715H554.756V149.715ZM543.525 149.715C544.166 149.715 545.565 149.878 546.768 151.082C547.971 152.285 548.135 153.684 548.135 154.324H538.135C538.135 155.225 538.363 156.819 539.697 158.153C541.03 159.486 542.624 159.715 543.525 159.715V149.715ZM548.134 154.265L548.037 146.062L538.037 146.181L538.135 154.384L548.134 154.265ZM548.037 146.121C548.037 142.641 546.904 139.401 544.375 136.873L537.304 143.944C537.705 144.345 538.037 144.914 538.037 146.121H548.037ZM544.375 136.873C542.001 134.498 538.998 133.211 535.615 133.211V143.211C536.269 143.211 536.749 143.389 537.304 143.944L544.375 136.873ZM535.615 133.211C532.115 133.211 529.057 134.615 526.694 137.135L533.989 143.974C534.556 143.37 535.014 143.211 535.615 143.211V133.211ZM526.694 137.135C524.357 139.627 523.145 142.707 523.145 146.121H533.145C533.145 145.239 533.396 144.607 533.989 143.974L526.694 137.135ZM523.145 146.121C523.145 148.991 523.747 151.789 525.266 154.231L533.757 148.948C533.454 148.461 533.145 147.613 533.145 146.121H523.145ZM525.309 154.298C526.908 156.78 529.456 158.674 532.265 160.19L537.013 151.389C534.874 150.235 534.003 149.329 533.715 148.881L525.309 154.298ZM532.403 160.261C532.553 160.336 533.058 160.607 534.03 161.144L538.861 152.388C537.945 151.883 537.245 151.502 536.875 151.317L532.403 160.261ZM534.03 161.144C534.948 161.65 535.968 162.223 537.09 162.865L542.051 154.182C540.894 153.521 539.831 152.923 538.861 152.388L534.03 161.144ZM537.237 162.945C538.387 163.553 539.417 164.107 540.329 164.61L545.16 155.855C544.183 155.316 543.097 154.731 541.904 154.102L537.237 162.945ZM540.447 164.674C541.376 165.154 541.983 165.467 542.217 165.583L546.689 156.639C546.532 156.561 546.001 156.288 545.041 155.791L540.447 164.674ZM542.014 165.476C544.782 167.023 546.807 168.83 548.239 170.844L556.39 165.05C553.98 161.661 550.765 158.911 546.892 156.747L542.014 165.476ZM548.262 170.877C549.493 172.579 550.244 174.825 550.244 177.908H560.244C560.244 173.114 559.042 168.719 556.367 165.018L548.262 170.877ZM550.244 177.908C550.244 180.915 549.56 183.453 548.283 185.651L556.931 190.673C559.17 186.817 560.244 182.519 560.244 177.908H550.244ZM548.304 185.617C546.931 187.937 545.151 189.72 542.927 191.04L548.03 199.64C551.73 197.444 554.703 194.442 556.911 190.707L548.304 185.617ZM542.927 191.04C540.775 192.317 538.376 192.977 535.615 192.977V202.977C540.081 202.977 544.257 201.879 548.03 199.64L542.927 191.04Z" fill="black" mask="url(#path-1-outside-1_304_1611)"/>
</g>
<defs>
<clipPath id="clip0_304_1611">
<rect width="589" height="223" fill="white"/>
</clipPath>
</defs>
</svg>
