<svg width="548" height="148" viewBox="0 0 548 148" fill="none" xmlns="http://www.w3.org/2000/svg">
<g clip-path="url(#clip0_358_83)">
<rect width="548" height="148" fill="white"/>
<rect y="-11" width="548" height="159" fill="black"/>
<path d="M0 148C1.27241 122.812 16.2528 104.512 28.2731 84.6827C29.4946 82.6677 31.1138 81.5301 33.0924 80.584C40.711 76.9411 49.6072 75.7804 57.51 72.4573C86.4204 60.3007 85.8673 15.0014 96 -11" stroke="white" stroke-width="9" stroke-linecap="round"/>
<path d="M313.544 121.795C304.495 148.942 319.868 177.561 336.056 198.086C343.727 198.086 350.333 196.638 357.63 194.084C371.967 189.066 389.298 189.497 404.217 186.955C425.193 183.38 445.649 178.448 466.875 176.449C485.157 174.728 503.338 172.715 521.529 170.196C554.028 165.696 594.032 157.95 617.205 132.364C636.809 110.717 639.31 85.2688 633.088 57.7615C631.16 49.2355 629.548 36.1465 623.333 29.1214C617.557 22.592 608.12 19.3416 600.071 16.8649C581.218 11.0641 561.768 10.2364 542.165 10.2364C519.693 10.2364 496.981 10.9857 474.942 15.7393C452.108 20.6642 428.281 36.3984 404.342 33.2485C391.793 31.5974 378.857 28.4373 366.197 28.1208C351.686 27.758 336.755 27.5435 322.799 32.1229C308.617 36.7763 310.296 45.9687 311.856 58.4494C313.953 75.2275 322.995 91.197 319.172 108.288C317.957 113.718 315.181 116.885 313.544 121.795Z" fill="#DADADA" stroke="white" stroke-width="9" stroke-linecap="round"/>
<path d="M194.63 113.05C193.763 112.703 192.853 112.053 191.9 111.1C191.033 110.147 190.513 109.323 190.34 108.63C189.907 106.897 189.43 104.773 188.91 102.26C188.39 99.7467 187.87 97.06 187.35 94.2C186.83 91.34 186.31 88.4367 185.79 85.49C185.357 82.4567 184.923 79.5967 184.49 76.91C184.057 74.1367 183.71 71.6667 183.45 69.5C183.19 67.3333 183.017 65.6 182.93 64.3C182.93 62.9133 183.407 62.1333 184.36 61.96C186.613 61.7 188.217 62.5233 189.17 64.43C189.603 65.99 190.08 67.7667 190.6 69.76C191.12 71.7533 191.64 73.92 192.16 76.26C194.24 75.48 196.103 74.4833 197.75 73.27C199.397 72.0567 200.74 70.7567 201.78 69.37C202.907 67.8967 203.687 66.4233 204.12 64.95C204.64 63.39 204.727 61.8733 204.38 60.4C203.947 58.7533 202.733 57.54 200.74 56.76C198.747 55.98 196.493 55.59 193.98 55.59C190.513 55.59 187.393 56.24 184.62 57.54C181.933 58.7533 179.463 60.27 177.21 62.09C176.17 62.87 175.043 63.13 173.83 62.87C172.53 62.5233 171.663 61.7 171.23 60.4C171.23 59.1867 171.447 58.1467 171.88 57.28C172.313 56.4133 172.877 55.6333 173.57 54.94C176.257 52.1667 179.42 50.2167 183.06 49.09C186.787 47.9633 190.687 47.4 194.76 47.4C198.053 47.4 201.217 47.92 204.25 48.96C207.37 50 210.013 51.8633 212.18 54.55C213.22 56.2833 213.74 58.1033 213.74 60.01C213.827 61.9167 213.567 63.78 212.96 65.6C212.353 67.42 211.487 69.1533 210.36 70.8C209.32 72.4467 208.237 73.8767 207.11 75.09C209.277 74.9167 211.487 75.1333 213.74 75.74C215.993 76.26 217.987 77.2133 219.72 78.6C221.54 79.9 223.013 81.6333 224.14 83.8C225.267 85.9667 225.83 88.5667 225.83 91.6C225.83 95.0667 225.05 98.23 223.49 101.09C222.017 103.95 220.023 106.377 217.51 108.37C215.083 110.363 212.267 111.923 209.06 113.05C205.94 114.177 202.69 114.74 199.31 114.74C197.837 114.74 196.667 114.307 195.8 113.44C195.367 113.44 194.977 113.31 194.63 113.05ZM194.11 85.75C194.803 89.13 195.453 92.64 196.06 96.28C196.667 99.92 197.317 103.56 198.01 107.2H198.53C200.437 107.2 202.517 106.853 204.77 106.16C207.11 105.467 209.277 104.47 211.27 103.17C213.263 101.783 214.91 100.137 216.21 98.23C217.51 96.2367 218.117 94.0267 218.03 91.6C217.597 89.4333 216.6 87.7867 215.04 86.66C213.48 85.5333 211.573 84.7967 209.32 84.45C207.153 84.1033 204.727 84.1033 202.04 84.45C199.44 84.71 196.797 85.1433 194.11 85.75ZM294.085 63C294.432 64.56 294.778 66.4233 295.125 68.59C295.472 70.67 295.688 72.88 295.775 75.22C295.948 77.4733 295.992 79.8133 295.905 82.24C295.818 84.6667 295.558 87.0067 295.125 89.26C294.605 91.86 293.565 94.2433 292.005 96.41C290.445 98.5767 288.538 100.527 286.285 102.26C284.118 103.993 281.692 105.423 279.005 106.55C276.405 107.59 273.762 108.37 271.075 108.89C268.475 109.323 265.875 109.41 263.275 109.15C260.762 108.803 258.508 108.067 256.515 106.94C254.262 105.64 252.442 103.95 251.055 101.87C249.668 99.79 249.062 97.2333 249.235 94.2C249.408 91.2533 249.668 88.5667 250.015 86.14C250.362 83.6267 250.795 81.2433 251.315 78.99C251.922 76.7367 252.572 74.4833 253.265 72.23C253.958 69.89 254.695 67.4633 255.475 64.95C255.908 63.8233 256.688 63.1733 257.815 63C258.248 62.9133 258.768 62.9133 259.375 63C259.635 63 259.982 63.1733 260.415 63.52C260.935 63.78 261.412 64.17 261.845 64.69C262.278 65.21 262.625 65.8167 262.885 66.51C263.232 67.2033 263.275 67.9833 263.015 68.85C262.235 71.6233 261.455 74.44 260.675 77.3C259.895 80.16 259.202 82.89 258.595 85.49C258.075 88.09 257.728 90.43 257.555 92.51C257.468 94.5033 257.685 96.0633 258.205 97.19C259.332 98.8367 260.848 99.92 262.755 100.44C264.748 100.873 266.828 100.917 268.995 100.57C271.162 100.223 273.242 99.66 275.235 98.88C277.315 98.0133 279.092 97.1033 280.565 96.15C282.905 94.59 284.595 92.64 285.635 90.3C286.762 87.96 287.455 85.4033 287.715 82.63C287.975 79.8567 287.932 76.9533 287.585 73.92C287.325 70.8867 286.935 67.8967 286.415 64.95C286.242 64.17 286.285 63.1733 286.545 61.96C286.805 60.7467 287.498 59.7933 288.625 59.1C289.838 58.4067 290.922 58.4933 291.875 59.36C292.915 60.2267 293.652 61.44 294.085 63Z" fill="white"/>
<path d="M345.125 82.76C344.779 84.1467 344.432 86.1833 344.085 88.87C343.825 91.47 343.565 94.2433 343.305 97.19C343.132 100.05 342.959 102.823 342.785 105.51C342.699 108.197 342.655 110.277 342.655 111.75C342.655 114.263 341.269 115.52 338.495 115.52C337.542 115.52 336.632 115.26 335.765 114.74C334.985 114.22 334.595 113.223 334.595 111.75C334.595 108.11 334.725 104.167 334.985 99.92C335.245 95.6733 335.592 91.2967 336.025 86.79C332.992 81.2433 330.132 75.7833 327.445 70.41C324.845 65.0367 322.635 60.0967 320.815 55.59C320.469 54.81 320.165 53.9867 319.905 53.12C319.732 52.1667 319.645 51.3 319.645 50.52C319.732 49.74 319.949 49.09 320.295 48.57C320.642 47.9633 321.249 47.5733 322.115 47.4C323.069 47.3133 323.979 47.4 324.845 47.66C325.799 47.8333 326.622 48.3967 327.315 49.35C328.009 51.17 328.875 53.25 329.915 55.59C330.955 57.93 332.039 60.3133 333.165 62.74C334.292 65.1667 335.419 67.5067 336.545 69.76C337.672 71.9267 338.669 73.79 339.535 75.35C343.435 70.15 347.119 64.82 350.585 59.36C354.139 53.9 357.432 48.7 360.465 43.76C361.592 42.0267 362.762 41.0733 363.975 40.9C365.189 40.7267 366.185 40.9867 366.965 41.68C367.659 42.2 368.049 43.0667 368.135 44.28C368.309 45.4933 368.179 46.5767 367.745 47.53C366.272 50.13 364.539 52.99 362.545 56.11C360.639 59.1433 358.645 62.22 356.565 65.34C354.572 68.46 352.579 71.5367 350.585 74.57C348.592 77.6033 346.772 80.3333 345.125 82.76Z" fill="black"/>
</g>
<defs>
<clipPath id="clip0_358_83">
<rect width="548" height="148" fill="white"/>
</clipPath>
</defs>
</svg>
