<svg width="253" height="156" viewBox="0 0 253 156" fill="none" xmlns="http://www.w3.org/2000/svg">
<rect width="253" height="96" rx="21" fill="#F4EA4C"/>
<rect x="0.5" y="96.5" width="252" height="59" rx="20.5" stroke="#F4EA4C"/>
<path d="M109.27 115.58C115.33 115.58 120.67 118.49 120.67 126.5C120.67 134.54 115.33 137.45 109.27 137.45C103.24 137.45 97.9 134.54 97.9 126.5C97.9 118.49 103.24 115.58 109.27 115.58ZM109.27 132.92C112.99 132.92 114.01 129.89 114.01 126.5C114.01 123.14 112.99 120.08 109.27 120.08C105.58 120.08 104.53 123.14 104.53 126.5C104.53 129.89 105.58 132.92 109.27 132.92ZM143.18 116H147.11L133.76 137H129.8L143.18 116ZM136.28 121.61C136.28 125.57 133.7 127.61 129.38 127.61C125.06 127.61 122.48 125.57 122.48 121.61C122.48 117.62 125.06 115.58 129.38 115.58C133.7 115.58 136.28 117.62 136.28 121.61ZM129.38 124.58C131.06 124.58 131.66 123.32 131.66 121.61C131.66 119.87 131.06 118.61 129.38 118.61C127.7 118.61 127.1 119.87 127.1 121.61C127.1 123.32 127.7 124.58 129.38 124.58ZM147.53 125.39C151.85 125.39 154.43 127.46 154.43 131.42C154.43 135.38 151.85 137.45 147.53 137.45C143.21 137.45 140.63 135.38 140.63 131.42C140.63 127.46 143.21 125.39 147.53 125.39ZM147.53 134.39C149.21 134.39 149.81 133.16 149.81 131.42C149.81 129.68 149.21 128.45 147.53 128.45C145.85 128.45 145.25 129.68 145.25 131.42C145.25 133.16 145.85 134.39 147.53 134.39Z" fill="#F4EA4C"/>
<path d="M108.86 41.75C108.6 41.79 108.23 41.82 107.75 41.84C107.27 41.84 106.78 41.81 106.28 41.75C105.78 41.69 105.35 41.58 104.99 41.42C104.63 41.24 104.43 40.98 104.39 40.64C104.37 40.3 104.47 40.03 104.69 39.83C104.93 39.63 105.21 39.48 105.53 39.38C105.85 39.26 106.13 39.19 106.37 39.17C106.63 39.13 106.76 39.11 106.76 39.11L115.16 38.33C115.16 38.33 115.3 38.33 115.58 38.33C115.86 38.31 116.18 38.32 116.54 38.36C116.92 38.4 117.26 38.5 117.56 38.66C117.86 38.8 118.02 39.03 118.04 39.35C118.08 39.67 117.98 39.94 117.74 40.16C117.52 40.36 117.25 40.53 116.93 40.67C116.61 40.79 116.33 40.88 116.09 40.94C115.85 40.98 115.73 41 115.73 41L113.81 41.3C113.89 41.8 113.98 42.51 114.08 43.43C114.18 44.33 114.28 45.33 114.38 46.43C114.48 47.53 114.57 48.61 114.65 49.67C114.73 50.73 114.79 51.68 114.83 52.52C114.89 53.36 114.92 53.96 114.92 54.32C114.92 54.78 114.79 55.13 114.53 55.37C114.29 55.59 114 55.75 113.66 55.85C113.34 55.93 113.05 55.98 112.79 56C112.55 56 112.43 56 112.43 56C112.43 56 112.3 56 112.04 56C111.78 55.98 111.48 55.9 111.14 55.76C110.82 55.62 110.53 55.36 110.27 54.98C110.03 54.6 109.91 54.03 109.91 53.27C109.91 52.59 109.87 51.76 109.79 50.78C109.73 49.8 109.65 48.79 109.55 47.75C109.45 46.69 109.34 45.71 109.22 44.81C109.12 43.91 109.03 43.18 108.95 42.62C108.89 42.04 108.86 41.75 108.86 41.75ZM121.548 39.8C121.528 39.8 121.558 39.69 121.638 39.47C121.738 39.23 121.958 39 122.298 38.78C122.638 38.56 123.198 38.44 123.978 38.42C124.678 38.4 125.208 38.49 125.568 38.69C125.928 38.87 126.168 39.05 126.288 39.23C126.428 39.41 126.498 39.5 126.498 39.5C126.498 39.5 126.608 39.76 126.828 40.28C127.048 40.8 127.348 41.49 127.728 42.35C128.108 43.19 128.528 44.13 128.988 45.17C129.448 46.21 129.908 47.27 130.368 48.35C130.848 49.41 131.288 50.41 131.688 51.35C132.108 52.27 132.458 53.05 132.738 53.69C133.018 54.31 133.198 54.7 133.278 54.86C133.458 55.24 133.558 55.51 133.578 55.67C133.598 55.83 133.588 55.94 133.548 56C133.528 56.04 133.518 56.07 133.518 56.09C133.378 56.37 133.098 56.61 132.678 56.81C132.278 57.03 131.788 57.15 131.208 57.17C130.408 57.19 129.828 57.1 129.468 56.9C129.108 56.72 128.868 56.53 128.748 56.33C128.648 56.15 128.608 56.07 128.628 56.09C128.628 56.09 128.518 55.86 128.298 55.4C128.098 54.94 127.858 54.39 127.578 53.75C127.298 53.09 127.038 52.49 126.798 51.95C126.798 51.95 126.658 51.95 126.378 51.95C126.118 51.95 125.808 51.95 125.448 51.95C125.088 51.95 124.768 51.95 124.488 51.95C124.228 51.95 124.098 51.95 124.098 51.95C124.018 52.23 123.938 52.58 123.858 53C123.778 53.4 123.708 53.76 123.648 54.08C123.588 54.4 123.558 54.56 123.558 54.56C123.558 54.56 123.508 54.68 123.408 54.92C123.328 55.16 123.098 55.4 122.718 55.64C122.338 55.88 121.708 56 120.828 56C120.168 56 119.668 55.93 119.328 55.79C119.008 55.63 118.788 55.45 118.668 55.25C118.568 55.05 118.518 54.88 118.518 54.74C118.518 54.58 118.518 54.5 118.518 54.5C118.558 54.3 118.638 53.89 118.758 53.27C118.898 52.63 119.058 51.87 119.238 50.99C119.438 50.09 119.638 49.14 119.838 48.14C120.058 47.14 120.268 46.15 120.468 45.17C120.668 44.19 120.848 43.3 121.008 42.5C121.168 41.68 121.298 41.03 121.398 40.55C121.498 40.05 121.548 39.8 121.548 39.8ZM124.698 44.54C124.678 44.62 124.658 44.78 124.638 45.02L124.518 45.86C124.478 46.32 124.428 46.81 124.368 47.33C124.308 47.85 124.248 48.34 124.188 48.8C124.148 49.04 124.118 49.19 124.098 49.25H124.488C124.728 49.25 124.988 49.24 125.268 49.22C125.548 49.2 125.798 49.19 126.018 49.19C125.938 49.03 125.868 48.83 125.808 48.59C125.768 48.33 125.718 48.09 125.658 47.87C125.538 47.41 125.398 46.93 125.238 46.43C125.098 45.93 124.968 45.46 124.848 45.02C124.788 44.78 124.738 44.62 124.698 44.54ZM141.141 43.94L142.911 39.83C142.911 39.83 142.971 39.7 143.091 39.44C143.231 39.18 143.501 38.92 143.901 38.66C144.321 38.4 144.951 38.28 145.791 38.3C146.631 38.3 147.181 38.45 147.441 38.75C147.721 39.03 147.821 39.37 147.741 39.77C147.681 40.15 147.551 40.51 147.351 40.85C147.231 41.05 147.011 41.39 146.691 41.87C146.391 42.35 146.051 42.89 145.671 43.49C145.291 44.09 144.921 44.67 144.561 45.23C144.201 45.77 143.901 46.22 143.661 46.58C143.441 46.94 143.331 47.12 143.331 47.12L148.581 54.23C148.581 54.23 148.631 54.31 148.731 54.47C148.831 54.61 148.881 54.8 148.881 55.04C148.901 55.28 148.791 55.52 148.551 55.76C148.331 56 147.891 56.21 147.231 56.39C146.571 56.57 146.001 56.58 145.521 56.42C145.061 56.26 144.681 56.04 144.381 55.76C144.081 55.46 143.861 55.19 143.721 54.95C143.581 54.71 143.511 54.59 143.511 54.59L141.711 50.69L140.181 54.95C140.181 54.95 140.131 55.04 140.031 55.22C139.931 55.38 139.691 55.55 139.311 55.73C138.951 55.91 138.371 56 137.571 56C136.771 56 136.211 55.86 135.891 55.58C135.591 55.28 135.441 54.95 135.441 54.59C135.441 54.21 135.511 53.89 135.651 53.63C135.731 53.47 135.911 53.16 136.191 52.7C136.471 52.22 136.791 51.68 137.151 51.08C137.511 50.48 137.861 49.9 138.201 49.34C138.541 48.76 138.821 48.29 139.041 47.93C139.281 47.55 139.401 47.36 139.401 47.36L134.961 41.12C134.961 41.12 134.901 41.03 134.781 40.85C134.681 40.67 134.631 40.45 134.631 40.19C134.631 39.93 134.771 39.69 135.051 39.47C135.331 39.25 135.861 39.1 136.641 39.02C137.301 38.96 137.841 39.01 138.261 39.17C138.681 39.31 139.001 39.5 139.221 39.74C139.461 39.96 139.621 40.16 139.701 40.34C139.801 40.52 139.851 40.61 139.851 40.61L141.141 43.94Z" fill="#212121"/>
</svg>
