<svg width="253" height="96" viewBox="0 0 253 96" fill="none" xmlns="http://www.w3.org/2000/svg">
<rect width="253" height="96" rx="21" fill="#F4EA4C"/>
<path d="M34.71 55.38C34.71 55.38 34.69 55.1 34.65 54.54C34.63 53.98 34.59 53.26 34.53 52.38C34.49 51.5 34.44 50.56 34.38 49.56C34.32 48.54 34.26 47.57 34.2 46.65C34.16 45.71 34.13 44.93 34.11 44.31C34.09 43.67 34.08 43.29 34.08 43.17C34.12 42.83 34.15 42.56 34.17 42.36C34.21 42.14 34.31 41.99 34.47 41.91C34.59 41.85 34.62 41.77 34.56 41.67C34.52 41.57 34.51 41.44 34.53 41.28C34.57 41.12 34.77 40.95 35.13 40.77C35.41 40.63 35.85 40.43 36.45 40.17C37.07 39.89 37.81 39.67 38.67 39.51C39.53 39.35 40.45 39.37 41.43 39.57C42.41 39.75 43.4 40.22 44.4 40.98C45.08 41.5 45.49 42.04 45.63 42.6C45.79 43.14 45.79 43.67 45.63 44.19C45.47 44.69 45.24 45.15 44.94 45.57C44.64 45.97 44.36 46.29 44.1 46.53C43.86 46.77 43.74 46.89 43.74 46.89C43.74 46.89 43.88 46.94 44.16 47.04C44.44 47.14 44.78 47.3 45.18 47.52C45.6 47.74 46.02 48.04 46.44 48.42C46.86 48.78 47.21 49.23 47.49 49.77C47.79 50.31 47.95 50.94 47.97 51.66C48.01 52.88 47.63 53.88 46.83 54.66C46.05 55.44 44.96 56.03 43.56 56.43C42.18 56.81 40.59 57 38.79 57C37.75 57 36.95 56.92 36.39 56.76C35.83 56.6 35.43 56.41 35.19 56.19C34.95 55.97 34.81 55.78 34.77 55.62C34.73 55.46 34.71 55.38 34.71 55.38ZM38.7 42.45C38.7 42.45 38.7 42.61 38.7 42.93C38.72 43.23 38.73 43.59 38.73 44.01C38.75 44.43 38.77 44.82 38.79 45.18C38.83 45.52 38.87 45.73 38.91 45.81C38.95 45.89 39.09 45.87 39.33 45.75C39.57 45.63 39.82 45.45 40.08 45.21C40.36 44.95 40.58 44.66 40.74 44.34C40.92 44 40.98 43.67 40.92 43.35C40.78 42.71 40.49 42.34 40.05 42.24C39.61 42.14 39.16 42.21 38.7 42.45ZM39.36 49.41L39.57 54.39C39.57 54.39 39.71 54.39 39.99 54.39C40.27 54.39 40.61 54.36 41.01 54.3C41.41 54.24 41.8 54.11 42.18 53.91C42.58 53.71 42.89 53.42 43.11 53.04C43.35 52.64 43.43 52.1 43.35 51.42C43.27 50.74 43.08 50.24 42.78 49.92C42.5 49.58 42.16 49.36 41.76 49.26C41.38 49.16 41 49.13 40.62 49.17C40.26 49.19 39.96 49.24 39.72 49.32C39.48 49.38 39.36 49.41 39.36 49.41ZM51.5651 39.66C51.5651 39.66 51.6951 39.68 51.9551 39.72C52.2151 39.74 52.5051 39.83 52.8251 39.99C53.1651 40.13 53.4551 40.39 53.6951 40.77C53.9351 41.13 54.0351 41.66 53.9951 42.36C53.9751 42.82 53.9451 43.44 53.9051 44.22C53.8851 44.98 53.8751 45.82 53.8751 46.74C53.8751 47.64 53.8951 48.54 53.9351 49.44C53.9951 50.34 54.0851 51.17 54.2051 51.93C54.3451 52.69 54.5251 53.3 54.7451 53.76C54.9851 54.2 55.2751 54.41 55.6151 54.39C55.9751 54.37 56.2451 54.13 56.4251 53.67C56.6051 53.19 56.7251 52.59 56.7851 51.87C56.8451 51.13 56.8651 50.35 56.8451 49.53C56.8251 48.71 56.7851 47.93 56.7251 47.19C56.6651 46.43 56.6051 45.81 56.5451 45.33C56.5051 44.83 56.4751 44.55 56.4551 44.49C56.4351 44.41 56.4051 44.24 56.3651 43.98C56.3251 43.72 56.3451 43.44 56.4251 43.14C56.5051 42.84 56.7051 42.57 57.0251 42.33C57.3651 42.09 57.8951 41.94 58.6151 41.88C59.3351 41.82 59.8951 41.91 60.2951 42.15C60.6951 42.39 60.9751 42.68 61.1351 43.02C61.3151 43.36 61.4151 43.66 61.4351 43.92C61.4751 44.18 61.4951 44.31 61.4951 44.31C61.4951 44.31 61.5251 44.54 61.5851 45C61.6651 45.46 61.7251 46.07 61.7651 46.83C61.8251 47.57 61.8251 48.39 61.7651 49.29C61.7251 50.19 61.5951 51.1 61.3751 52.02C61.1751 52.92 60.8451 53.75 60.3851 54.51C59.9251 55.25 59.3051 55.85 58.5251 56.31C57.7451 56.77 56.7651 57 55.5851 57C54.4051 57 53.4051 56.76 52.5851 56.28C51.7851 55.78 51.1251 55.13 50.6051 54.33C50.1051 53.51 49.7151 52.6 49.4351 51.6C49.1751 50.6 48.9951 49.58 48.8951 48.54C48.8151 47.48 48.7751 46.48 48.7751 45.54C48.7951 44.6 48.8251 43.78 48.8651 43.08C48.9251 42.38 48.9651 41.88 48.9851 41.58C49.0251 41.06 49.1751 40.67 49.4351 40.41C49.6951 40.13 49.9851 39.94 50.3051 39.84C50.6451 39.74 50.9351 39.69 51.1751 39.69C51.4351 39.67 51.5651 39.66 51.5651 39.66ZM64.7283 39.39C64.7283 39.39 64.8983 39.37 65.2383 39.33C65.5783 39.29 65.9783 39.34 66.4383 39.48C66.9183 39.62 67.3283 39.96 67.6683 40.5C67.8883 40.84 68.1083 41.25 68.3283 41.73C68.5683 42.19 68.7783 42.65 68.9583 43.11C69.1583 43.57 69.3183 43.95 69.4383 44.25C69.5583 44.55 69.6183 44.7 69.6183 44.7L71.4183 40.32C71.4183 40.32 71.4883 40.23 71.6283 40.05C71.7883 39.87 72.0383 39.7 72.3783 39.54C72.7383 39.38 73.2283 39.32 73.8483 39.36C75.6683 39.48 76.3383 40.05 75.8583 41.07C75.7583 41.27 75.5783 41.64 75.3183 42.18C75.0583 42.7 74.7583 43.29 74.4183 43.95C74.0983 44.59 73.7783 45.22 73.4583 45.84C73.1583 46.46 72.9083 46.97 72.7083 47.37C72.5083 47.77 72.4083 47.97 72.4083 47.97L72.5583 55.29C72.5583 55.29 72.5583 55.38 72.5583 55.56C72.5783 55.72 72.5383 55.92 72.4383 56.16C72.3383 56.38 72.1283 56.58 71.8083 56.76C71.4883 56.92 70.9983 57 70.3383 57C69.4583 57 68.8083 56.88 68.3883 56.64C67.9883 56.4 67.7383 56.14 67.6383 55.86C67.5383 55.56 67.4883 55.34 67.4883 55.2C67.4883 55.12 67.4783 54.82 67.4583 54.3C67.4583 53.78 67.4583 53.17 67.4583 52.47C67.4583 51.77 67.4483 51.07 67.4283 50.37C67.4283 49.67 67.4183 49.09 67.3983 48.63C67.3983 48.17 67.3983 47.94 67.3983 47.94L63.4083 41.58C63.4083 41.58 63.3483 41.49 63.2283 41.31C63.1083 41.13 63.0283 40.92 62.9883 40.68C62.9683 40.42 63.0783 40.17 63.3183 39.93C63.5583 39.69 64.0283 39.51 64.7283 39.39ZM85.2246 48.27C85.2246 46.67 85.5046 45.21 86.0646 43.89C86.6246 42.55 87.3846 41.49 88.3446 40.71C89.3046 39.91 90.3646 39.51 91.5246 39.51C92.3846 39.51 93.2046 39.74 93.9846 40.2C94.7646 40.64 95.4546 41.27 96.0546 42.09C96.6546 42.89 97.1246 43.82 97.4646 44.88C97.8046 45.94 97.9746 47.07 97.9746 48.27C97.9746 49.47 97.8046 50.6 97.4646 51.66C97.1246 52.72 96.6546 53.66 96.0546 54.48C95.4546 55.28 94.7646 55.91 93.9846 56.37C93.2046 56.81 92.3846 57.03 91.5246 57.03C90.3646 57.03 89.3046 56.64 88.3446 55.86C87.3846 55.06 86.6246 54 86.0646 52.68C85.5046 51.36 85.2246 49.89 85.2246 48.27ZM89.8146 48.15C89.8146 49.31 89.8946 50.38 90.0546 51.36C90.2146 52.32 90.4346 53.09 90.7146 53.67C90.9946 54.23 91.3046 54.51 91.6446 54.51C91.9846 54.51 92.2946 54.23 92.5746 53.67C92.8546 53.09 93.0746 52.32 93.2346 51.36C93.3946 50.38 93.4746 49.31 93.4746 48.15C93.4746 46.97 93.3946 45.9 93.2346 44.94C93.0746 43.98 92.8546 43.21 92.5746 42.63C92.2946 42.05 91.9846 41.76 91.6446 41.76C91.3046 41.76 90.9946 42.05 90.7146 42.63C90.4346 43.21 90.2146 43.98 90.0546 44.94C89.8946 45.9 89.8146 46.97 89.8146 48.15ZM103.573 57C102.853 57 102.303 56.92 101.923 56.76C101.563 56.58 101.303 56.38 101.143 56.16C101.003 55.92 100.923 55.72 100.903 55.56C100.903 55.38 100.903 55.29 100.903 55.29C100.903 55.29 100.873 54.99 100.813 54.39C100.753 53.79 100.673 53.02 100.573 52.08C100.473 51.12 100.363 50.1 100.243 49.02C100.143 47.92 100.033 46.87 99.9129 45.87C99.8129 44.85 99.7329 43.99 99.6729 43.29C99.6129 42.57 99.5729 42.12 99.5529 41.94C99.5329 41.42 99.6429 40.97 99.8829 40.59C100.143 40.19 100.763 39.96 101.743 39.9C102.403 39.86 102.933 39.96 103.333 40.2C103.733 40.44 104.023 40.69 104.203 40.95C104.383 41.19 104.473 41.31 104.473 41.31L107.293 48.15L108.403 50.22L107.713 44.52C107.713 44.52 107.713 44.19 107.713 43.53C107.733 42.87 107.773 42.08 107.833 41.16C107.873 40.7 108.023 40.35 108.283 40.11C108.543 39.87 108.833 39.7 109.153 39.6C109.493 39.5 109.783 39.45 110.023 39.45C110.283 39.43 110.413 39.42 110.413 39.42C110.413 39.42 110.523 39.43 110.743 39.45C110.983 39.47 111.253 39.56 111.553 39.72C111.853 39.86 112.113 40.12 112.333 40.5C112.573 40.86 112.683 41.39 112.663 42.09C112.643 42.95 112.673 43.93 112.753 45.03C112.833 46.11 112.933 47.22 113.053 48.36C113.193 49.5 113.323 50.57 113.443 51.57C113.583 52.55 113.703 53.37 113.803 54.03C113.923 54.69 113.993 55.1 114.013 55.26C114.053 55.5 114.063 55.79 114.043 56.13C114.023 56.47 113.863 56.77 113.563 57.03C113.283 57.29 112.753 57.43 111.973 57.45C111.193 57.45 110.613 57.36 110.233 57.18C109.853 57 109.593 56.82 109.453 56.64C109.333 56.44 109.273 56.34 109.273 56.34L104.773 48.27C104.773 48.27 104.813 48.47 104.893 48.87C104.973 49.27 105.063 49.79 105.163 50.43C105.283 51.07 105.393 51.76 105.493 52.5C105.613 53.24 105.703 53.95 105.763 54.63C105.823 55.31 105.743 55.82 105.523 56.16C105.323 56.48 105.063 56.7 104.743 56.82C104.443 56.94 104.173 57 103.933 57C103.693 57 103.573 57 103.573 57ZM124.838 55.38L123.458 42.3C123.458 42.3 123.428 42.24 123.368 42.12C123.328 42 123.318 41.84 123.338 41.64C123.358 41.44 123.468 41.23 123.668 41.01C123.888 40.79 124.258 40.59 124.778 40.41C125.478 40.15 126.298 39.94 127.238 39.78C128.198 39.6 129.208 39.55 130.268 39.63C131.348 39.71 132.408 40.03 133.448 40.59C134.068 40.91 134.528 41.37 134.828 41.97C135.128 42.57 135.308 43.21 135.368 43.89C135.428 44.57 135.428 45.22 135.368 45.84C135.328 46.46 135.258 46.97 135.158 47.37C135.078 47.77 135.038 47.97 135.038 47.97C135.038 47.97 134.968 48.12 134.828 48.42C134.688 48.72 134.418 49.06 134.018 49.44C133.638 49.8 133.078 50.09 132.338 50.31L136.598 54.9C136.598 54.9 136.668 54.98 136.808 55.14C136.948 55.3 137.058 55.5 137.138 55.74C137.238 55.96 137.218 56.19 137.078 56.43C136.958 56.65 136.628 56.84 136.088 57C135.528 57.16 135.028 57.2 134.588 57.12C134.168 57.04 133.818 56.91 133.538 56.73C133.278 56.55 133.078 56.38 132.938 56.22C132.798 56.06 132.728 55.98 132.728 55.98L128.768 51.09L129.758 55.32C129.758 55.32 129.778 55.41 129.818 55.59C129.858 55.75 129.838 55.94 129.758 56.16C129.678 56.38 129.478 56.58 129.158 56.76C128.838 56.92 128.328 57 127.628 57C126.928 57 126.378 56.92 125.978 56.76C125.598 56.6 125.328 56.41 125.168 56.19C125.008 55.97 124.908 55.78 124.868 55.62C124.848 55.46 124.838 55.38 124.838 55.38ZM127.688 42.27L128.408 48.3C128.408 48.3 128.518 48.31 128.738 48.33C128.978 48.35 129.258 48.33 129.578 48.27C129.918 48.21 130.238 48.07 130.538 47.85C130.858 47.61 131.118 47.25 131.318 46.77C131.518 46.27 131.588 45.59 131.528 44.73C131.468 43.91 131.308 43.31 131.048 42.93C130.788 42.53 130.468 42.28 130.088 42.18C129.708 42.06 129.308 42.03 128.888 42.09C128.468 42.13 128.068 42.19 127.688 42.27ZM141.339 40.8C141.319 40.8 141.349 40.69 141.429 40.47C141.529 40.23 141.749 40 142.089 39.78C142.429 39.56 142.989 39.44 143.769 39.42C144.469 39.4 144.999 39.49 145.359 39.69C145.719 39.87 145.959 40.05 146.079 40.23C146.219 40.41 146.289 40.5 146.289 40.5C146.289 40.5 146.399 40.76 146.619 41.28C146.839 41.8 147.139 42.49 147.519 43.35C147.899 44.19 148.319 45.13 148.779 46.17C149.239 47.21 149.699 48.27 150.159 49.35C150.639 50.41 151.079 51.41 151.479 52.35C151.899 53.27 152.249 54.05 152.529 54.69C152.809 55.31 152.989 55.7 153.069 55.86C153.249 56.24 153.349 56.51 153.369 56.67C153.389 56.83 153.379 56.94 153.339 57C153.319 57.04 153.309 57.07 153.309 57.09C153.169 57.37 152.889 57.61 152.469 57.81C152.069 58.03 151.579 58.15 150.999 58.17C150.199 58.19 149.619 58.1 149.259 57.9C148.899 57.72 148.659 57.53 148.539 57.33C148.439 57.15 148.399 57.07 148.419 57.09C148.419 57.09 148.309 56.86 148.089 56.4C147.889 55.94 147.649 55.39 147.369 54.75C147.089 54.09 146.829 53.49 146.589 52.95C146.589 52.95 146.449 52.95 146.169 52.95C145.909 52.95 145.599 52.95 145.239 52.95C144.879 52.95 144.559 52.95 144.279 52.95C144.019 52.95 143.889 52.95 143.889 52.95C143.809 53.23 143.729 53.58 143.649 54C143.569 54.4 143.499 54.76 143.439 55.08C143.379 55.4 143.349 55.56 143.349 55.56C143.349 55.56 143.299 55.68 143.199 55.92C143.119 56.16 142.889 56.4 142.509 56.64C142.129 56.88 141.499 57 140.619 57C139.959 57 139.459 56.93 139.119 56.79C138.799 56.63 138.579 56.45 138.459 56.25C138.359 56.05 138.309 55.88 138.309 55.74C138.309 55.58 138.309 55.5 138.309 55.5C138.349 55.3 138.429 54.89 138.549 54.27C138.689 53.63 138.849 52.87 139.029 51.99C139.229 51.09 139.429 50.14 139.629 49.14C139.849 48.14 140.059 47.15 140.259 46.17C140.459 45.19 140.639 44.3 140.799 43.5C140.959 42.68 141.089 42.03 141.189 41.55C141.289 41.05 141.339 40.8 141.339 40.8ZM144.489 45.54C144.469 45.62 144.449 45.78 144.429 46.02L144.309 46.86C144.269 47.32 144.219 47.81 144.159 48.33C144.099 48.85 144.039 49.34 143.979 49.8C143.939 50.04 143.909 50.19 143.889 50.25H144.279C144.519 50.25 144.779 50.24 145.059 50.22C145.339 50.2 145.589 50.19 145.809 50.19C145.729 50.03 145.659 49.83 145.599 49.59C145.559 49.33 145.509 49.09 145.449 48.87C145.329 48.41 145.189 47.93 145.029 47.43C144.889 46.93 144.759 46.46 144.639 46.02C144.579 45.78 144.529 45.62 144.489 45.54ZM153.058 39.39C153.058 39.39 153.228 39.37 153.568 39.33C153.908 39.29 154.308 39.34 154.768 39.48C155.248 39.62 155.658 39.96 155.998 40.5C156.218 40.84 156.438 41.25 156.658 41.73C156.898 42.19 157.108 42.65 157.288 43.11C157.488 43.57 157.648 43.95 157.768 44.25C157.888 44.55 157.948 44.7 157.948 44.7L159.748 40.32C159.748 40.32 159.818 40.23 159.958 40.05C160.118 39.87 160.368 39.7 160.708 39.54C161.068 39.38 161.558 39.32 162.178 39.36C163.998 39.48 164.668 40.05 164.188 41.07C164.088 41.27 163.908 41.64 163.648 42.18C163.388 42.7 163.088 43.29 162.748 43.95C162.428 44.59 162.108 45.22 161.788 45.84C161.488 46.46 161.238 46.97 161.038 47.37C160.838 47.77 160.738 47.97 160.738 47.97L160.888 55.29C160.888 55.29 160.888 55.38 160.888 55.56C160.908 55.72 160.868 55.92 160.768 56.16C160.668 56.38 160.458 56.58 160.138 56.76C159.818 56.92 159.328 57 158.668 57C157.788 57 157.138 56.88 156.718 56.64C156.318 56.4 156.068 56.14 155.968 55.86C155.868 55.56 155.818 55.34 155.818 55.2C155.818 55.12 155.808 54.82 155.788 54.3C155.788 53.78 155.788 53.17 155.788 52.47C155.788 51.77 155.778 51.07 155.758 50.37C155.758 49.67 155.748 49.09 155.728 48.63C155.728 48.17 155.728 47.94 155.728 47.94L151.738 41.58C151.738 41.58 151.678 41.49 151.558 41.31C151.438 41.13 151.358 40.92 151.318 40.68C151.298 40.42 151.408 40.17 151.648 39.93C151.888 39.69 152.358 39.51 153.058 39.39ZM166.842 55.05C166.762 53.87 166.672 52.64 166.572 51.36C166.472 50.06 166.372 48.82 166.272 47.64C166.192 46.46 166.122 45.46 166.062 44.64C166.002 43.8 165.952 43.26 165.912 43.02C165.852 42.56 165.872 42.25 165.972 42.09C166.092 41.91 166.152 41.82 166.152 41.82C166.152 41.82 166.082 41.75 165.942 41.61C165.802 41.45 165.732 41.28 165.732 41.1C165.732 40.78 165.922 40.52 166.302 40.32C166.702 40.12 167.152 39.97 167.652 39.87C168.152 39.77 168.592 39.7 168.972 39.66C169.372 39.62 169.572 39.6 169.572 39.6C169.572 39.6 169.772 39.59 170.172 39.57C170.572 39.55 171.082 39.57 171.702 39.63C172.342 39.69 173.022 39.85 173.742 40.11C174.482 40.35 175.182 40.74 175.842 41.28C176.522 41.82 177.092 42.56 177.552 43.5C178.012 44.42 178.292 45.6 178.392 47.04C178.512 48.74 178.432 50.17 178.152 51.33C177.892 52.49 177.492 53.44 176.952 54.18C176.432 54.9 175.832 55.46 175.152 55.86C174.472 56.26 173.762 56.54 173.022 56.7C172.302 56.84 171.612 56.93 170.952 56.97C170.312 56.99 169.752 57 169.272 57C168.572 57 168.042 56.9 167.682 56.7C167.342 56.5 167.112 56.28 166.992 56.04C166.892 55.78 166.842 55.55 166.842 55.35C166.842 55.15 166.842 55.05 166.842 55.05ZM170.052 42.3L171.372 54.45C171.372 54.45 171.462 54.44 171.642 54.42C171.822 54.4 172.042 54.31 172.302 54.15C172.582 53.99 172.842 53.7 173.082 53.28C173.342 52.86 173.542 52.27 173.682 51.51C173.822 50.73 173.852 49.72 173.772 48.48C173.692 46.92 173.522 45.71 173.262 44.85C173.022 43.97 172.722 43.34 172.362 42.96C172.022 42.58 171.652 42.36 171.252 42.3C170.852 42.24 170.452 42.24 170.052 42.3ZM180.723 55.47C180.663 54.79 180.623 53.94 180.603 52.92C180.583 51.88 180.573 50.77 180.573 49.59C180.573 48.41 180.583 47.27 180.603 46.17C180.643 45.05 180.683 44.06 180.723 43.2C180.763 42.34 180.803 41.72 180.843 41.34C180.903 40.86 181.073 40.5 181.353 40.26C181.633 40 181.943 39.82 182.283 39.72C182.643 39.62 182.943 39.57 183.183 39.57C183.443 39.55 183.573 39.54 183.573 39.54C183.573 39.54 183.693 39.56 183.933 39.6C184.193 39.62 184.473 39.67 184.773 39.75C185.073 39.83 185.283 39.97 185.403 40.17C185.663 40.57 185.783 40.96 185.763 41.34C185.763 41.7 185.743 42.17 185.703 42.75C185.583 44.25 185.513 45.72 185.493 47.16C185.473 48.6 185.473 49.91 185.493 51.09C185.513 52.27 185.533 53.21 185.553 53.91C185.593 54.61 185.613 54.96 185.613 54.96C185.613 54.96 185.603 55.07 185.583 55.29C185.583 55.49 185.523 55.72 185.403 55.98C185.283 56.24 185.053 56.48 184.713 56.7C184.373 56.9 183.873 57 183.213 57C182.553 57 182.043 56.93 181.683 56.79C181.343 56.63 181.103 56.45 180.963 56.25C180.843 56.03 180.773 55.85 180.753 55.71C180.733 55.55 180.723 55.47 180.723 55.47ZM190.725 39.66C190.725 39.66 190.855 39.68 191.115 39.72C191.375 39.74 191.665 39.83 191.985 39.99C192.325 40.13 192.615 40.39 192.855 40.77C193.095 41.13 193.195 41.66 193.155 42.36C193.135 42.82 193.105 43.44 193.065 44.22C193.045 44.98 193.035 45.82 193.035 46.74C193.035 47.64 193.055 48.54 193.095 49.44C193.155 50.34 193.245 51.17 193.365 51.93C193.505 52.69 193.685 53.3 193.905 53.76C194.145 54.2 194.435 54.41 194.775 54.39C195.135 54.37 195.405 54.13 195.585 53.67C195.765 53.19 195.885 52.59 195.945 51.87C196.005 51.13 196.025 50.35 196.005 49.53C195.985 48.71 195.945 47.93 195.885 47.19C195.825 46.43 195.765 45.81 195.705 45.33C195.665 44.83 195.635 44.55 195.615 44.49C195.595 44.41 195.565 44.24 195.525 43.98C195.485 43.72 195.505 43.44 195.585 43.14C195.665 42.84 195.865 42.57 196.185 42.33C196.525 42.09 197.055 41.94 197.775 41.88C198.495 41.82 199.055 41.91 199.455 42.15C199.855 42.39 200.135 42.68 200.295 43.02C200.475 43.36 200.575 43.66 200.595 43.92C200.635 44.18 200.655 44.31 200.655 44.31C200.655 44.31 200.685 44.54 200.745 45C200.825 45.46 200.885 46.07 200.925 46.83C200.985 47.57 200.985 48.39 200.925 49.29C200.885 50.19 200.755 51.1 200.535 52.02C200.335 52.92 200.005 53.75 199.545 54.51C199.085 55.25 198.465 55.85 197.685 56.31C196.905 56.77 195.925 57 194.745 57C193.565 57 192.565 56.76 191.745 56.28C190.945 55.78 190.285 55.13 189.765 54.33C189.265 53.51 188.875 52.6 188.595 51.6C188.335 50.6 188.155 49.58 188.055 48.54C187.975 47.48 187.935 46.48 187.935 45.54C187.955 44.6 187.985 43.78 188.025 43.08C188.085 42.38 188.125 41.88 188.145 41.58C188.185 41.06 188.335 40.67 188.595 40.41C188.855 40.13 189.145 39.94 189.465 39.84C189.805 39.74 190.095 39.69 190.335 39.69C190.595 39.67 190.725 39.66 190.725 39.66ZM205.148 57C204.408 57 203.848 56.9 203.468 56.7C203.108 56.5 202.868 56.27 202.748 56.01C202.628 55.75 202.568 55.52 202.568 55.32C202.568 55.12 202.568 55.02 202.568 55.02L202.208 42C202.208 42 202.198 41.9 202.178 41.7C202.158 41.5 202.198 41.27 202.298 41.01C202.398 40.73 202.608 40.49 202.928 40.29C203.248 40.07 203.748 39.96 204.428 39.96C205.328 39.94 206.008 40.07 206.468 40.35C206.928 40.61 207.228 40.88 207.368 41.16C207.528 41.42 207.608 41.55 207.608 41.55L211.058 47.82C211.058 47.82 211.138 47.64 211.298 47.28C211.478 46.9 211.688 46.43 211.928 45.87C212.188 45.31 212.448 44.74 212.708 44.16C212.968 43.58 213.198 43.08 213.398 42.66C213.598 42.22 213.728 41.94 213.788 41.82C213.888 41.62 214.068 41.35 214.328 41.01C214.588 40.65 214.958 40.32 215.438 40.02C215.938 39.72 216.588 39.56 217.388 39.54C217.988 39.52 218.448 39.59 218.768 39.75C219.088 39.89 219.308 40.06 219.428 40.26C219.568 40.46 219.648 40.64 219.668 40.8C219.688 40.96 219.698 41.04 219.698 41.04C219.698 41.04 219.698 41.3 219.698 41.82C219.698 42.32 219.698 42.99 219.698 43.83C219.718 44.67 219.728 45.59 219.728 46.59C219.728 47.59 219.728 48.6 219.728 49.62C219.728 50.62 219.728 51.54 219.728 52.38C219.748 53.22 219.758 53.9 219.758 54.42C219.758 54.94 219.758 55.21 219.758 55.23C219.758 55.25 219.748 55.35 219.728 55.53C219.728 55.71 219.658 55.92 219.518 56.16C219.378 56.38 219.128 56.58 218.768 56.76C218.428 56.92 217.918 57 217.238 57C216.558 57 216.038 56.93 215.678 56.79C215.338 56.63 215.098 56.46 214.958 56.28C214.818 56.08 214.738 55.91 214.718 55.77C214.698 55.63 214.688 55.56 214.688 55.56C214.688 55.56 214.688 55.39 214.688 55.05C214.688 54.69 214.688 54.25 214.688 53.73C214.708 53.19 214.718 52.66 214.718 52.14C214.738 51.6 214.748 51.15 214.748 50.79C214.748 50.43 214.748 50.25 214.748 50.25L214.988 45.96L213.428 49.29C213.428 49.29 213.368 49.4 213.248 49.62C213.148 49.84 212.948 50.06 212.648 50.28C212.348 50.5 211.898 50.62 211.298 50.64C210.718 50.66 210.258 50.58 209.918 50.4C209.598 50.2 209.368 50.01 209.228 49.83C209.108 49.63 209.048 49.53 209.048 49.53L207.098 45.96C207.098 45.96 207.108 46.2 207.128 46.68C207.168 47.14 207.208 47.75 207.248 48.51C207.288 49.25 207.328 50.04 207.368 50.88C207.408 51.7 207.438 52.48 207.458 53.22C207.498 53.94 207.528 54.52 207.548 54.96C207.568 55.5 207.458 55.92 207.218 56.22C206.978 56.5 206.698 56.7 206.378 56.82C206.058 56.92 205.768 56.98 205.508 57C205.268 57 205.148 57 205.148 57Z" fill="#212121"/>
</svg>
