<svg width="253" height="156" viewBox="0 0 253 156" fill="none" xmlns="http://www.w3.org/2000/svg">
<rect width="253" height="96" rx="20" fill="#F4EA4C"/>
<rect x="0.5" y="96.5" width="252" height="59" rx="19.5" stroke="#F4EA4C"/>
<path d="M96.35 45.03C95.67 45.03 95.15 44.95 94.79 44.79C94.43 44.61 94.17 44.41 94.01 44.19C93.87 43.97 93.79 43.77 93.77 43.59C93.75 43.39 93.74 43.27 93.74 43.23C93.74 43.13 93.7 42.97 93.62 42.75C93.56 42.51 93.36 42.39 93.02 42.39C92.46 42.39 91.96 42.56 91.52 42.9C91.1 43.24 90.87 43.74 90.83 44.4C90.79 45.06 90.96 45.63 91.34 46.11C91.72 46.59 92.47 46.84 93.59 46.86C94.15 46.86 94.74 46.94 95.36 47.1C95.98 47.26 96.56 47.52 97.1 47.88C97.66 48.22 98.1 48.69 98.42 49.29C98.76 49.87 98.93 50.6 98.93 51.48C98.91 53.24 98.44 54.6 97.52 55.56C96.6 56.52 95.07 57 92.93 57C91.51 57 90.37 56.83 89.51 56.49C88.65 56.13 88.02 55.71 87.62 55.23C87.24 54.75 87.04 54.32 87.02 53.94C87 53.56 87.02 53.19 87.08 52.83C87.16 52.47 87.37 52.16 87.71 51.9C88.07 51.64 88.64 51.48 89.42 51.42C90.22 51.36 90.79 51.43 91.13 51.63C91.47 51.81 91.68 52.02 91.76 52.26C91.86 52.5 91.91 52.65 91.91 52.71C91.91 52.77 91.93 52.92 91.97 53.16C92.03 53.38 92.13 53.6 92.27 53.82C92.43 54.02 92.65 54.12 92.93 54.12C93.35 54.12 93.71 53.95 94.01 53.61C94.31 53.27 94.5 52.72 94.58 51.96C94.72 50.46 93.97 49.71 92.33 49.71C91.93 49.71 91.41 49.65 90.77 49.53C90.15 49.39 89.53 49.15 88.91 48.81C88.29 48.45 87.77 47.95 87.35 47.31C86.93 46.67 86.73 45.83 86.75 44.79C86.77 43.75 86.96 42.9 87.32 42.24C87.68 41.56 88.15 41.04 88.73 40.68C89.33 40.3 89.98 40.03 90.68 39.87C91.4 39.71 92.11 39.62 92.81 39.6C93.75 39.58 94.65 39.69 95.51 39.93C96.39 40.17 97.12 40.54 97.7 41.04C98.3 41.52 98.64 42.15 98.72 42.93C98.78 43.51 98.69 43.95 98.45 44.25C98.23 44.53 97.95 44.73 97.61 44.85C97.29 44.95 97 45.01 96.74 45.03C96.48 45.03 96.35 45.03 96.35 45.03ZM103.012 39.66C103.012 39.66 103.142 39.68 103.402 39.72C103.662 39.74 103.952 39.83 104.272 39.99C104.612 40.13 104.902 40.39 105.142 40.77C105.382 41.13 105.482 41.66 105.442 42.36C105.422 42.82 105.392 43.44 105.352 44.22C105.332 44.98 105.322 45.82 105.322 46.74C105.322 47.64 105.342 48.54 105.382 49.44C105.442 50.34 105.532 51.17 105.652 51.93C105.792 52.69 105.972 53.3 106.192 53.76C106.432 54.2 106.722 54.41 107.062 54.39C107.422 54.37 107.692 54.13 107.872 53.67C108.052 53.19 108.172 52.59 108.232 51.87C108.292 51.13 108.312 50.35 108.292 49.53C108.272 48.71 108.232 47.93 108.172 47.19C108.112 46.43 108.052 45.81 107.992 45.33C107.952 44.83 107.922 44.55 107.902 44.49C107.882 44.41 107.852 44.24 107.812 43.98C107.772 43.72 107.792 43.44 107.872 43.14C107.952 42.84 108.152 42.57 108.472 42.33C108.812 42.09 109.342 41.94 110.062 41.88C110.782 41.82 111.342 41.91 111.742 42.15C112.142 42.39 112.422 42.68 112.582 43.02C112.762 43.36 112.862 43.66 112.882 43.92C112.922 44.18 112.942 44.31 112.942 44.31C112.942 44.31 112.972 44.54 113.032 45C113.112 45.46 113.172 46.07 113.212 46.83C113.272 47.57 113.272 48.39 113.212 49.29C113.172 50.19 113.042 51.1 112.822 52.02C112.622 52.92 112.292 53.75 111.832 54.51C111.372 55.25 110.752 55.85 109.972 56.31C109.192 56.77 108.212 57 107.032 57C105.852 57 104.852 56.76 104.032 56.28C103.232 55.78 102.572 55.13 102.052 54.33C101.552 53.51 101.162 52.6 100.882 51.6C100.622 50.6 100.442 49.58 100.342 48.54C100.262 47.48 100.222 46.48 100.222 45.54C100.242 44.6 100.272 43.78 100.312 43.08C100.372 42.38 100.412 41.88 100.432 41.58C100.472 41.06 100.622 40.67 100.882 40.41C101.142 40.13 101.432 39.94 101.752 39.84C102.092 39.74 102.382 39.69 102.622 39.69C102.882 39.67 103.012 39.66 103.012 39.66ZM117.526 57C116.766 57 116.216 56.89 115.876 56.67C115.536 56.43 115.326 56.2 115.246 55.98C115.166 55.76 115.126 55.65 115.126 55.65C115.126 55.65 115.116 55.41 115.096 54.93C115.096 54.43 115.086 53.78 115.066 52.98C115.066 52.18 115.056 51.3 115.036 50.34C115.016 49.38 114.996 48.42 114.976 47.46C114.976 46.5 114.966 45.62 114.946 44.82C114.926 44.02 114.906 43.38 114.886 42.9C114.886 42.4 114.886 42.15 114.886 42.15C114.866 42.15 114.756 42.05 114.556 41.85C114.376 41.65 114.276 41.44 114.256 41.22C114.256 41.06 114.446 40.83 114.826 40.53C115.206 40.23 115.846 39.98 116.746 39.78C117.666 39.56 118.926 39.52 120.526 39.66C121.966 39.78 123.096 40.02 123.916 40.38C124.756 40.72 125.366 41.09 125.746 41.49C126.126 41.87 126.366 42.21 126.466 42.51C126.566 42.79 126.616 42.93 126.616 42.93C126.616 42.93 126.626 42.96 126.646 43.02C126.686 43.08 126.716 43.27 126.736 43.59C126.776 43.89 126.806 44.39 126.826 45.09C126.846 45.79 126.846 46.77 126.826 48.03C126.806 49.05 126.566 49.86 126.106 50.46C125.666 51.06 125.116 51.51 124.456 51.81C123.796 52.09 123.136 52.28 122.476 52.38C121.836 52.46 121.296 52.5 120.856 52.5C120.416 52.48 120.196 52.47 120.196 52.47C120.196 52.47 120.196 52.69 120.196 53.13C120.216 53.55 120.216 54.26 120.196 55.26C120.196 55.76 120.056 56.14 119.776 56.4C119.516 56.64 119.206 56.8 118.846 56.88C118.506 56.96 118.196 57 117.916 57C117.656 57 117.526 57 117.526 57ZM119.896 42.45L120.166 49.89C120.166 49.89 120.296 49.88 120.556 49.86C120.816 49.82 121.116 49.72 121.456 49.56C121.796 49.4 122.086 49.13 122.326 48.75C122.586 48.35 122.696 47.79 122.656 47.07C122.616 46.11 122.576 45.39 122.536 44.91C122.496 44.43 122.466 44.12 122.446 43.98C122.446 43.82 122.446 43.74 122.446 43.74C122.446 43.74 122.426 43.66 122.386 43.5C122.366 43.32 122.286 43.13 122.146 42.93C122.006 42.73 121.756 42.58 121.396 42.48C121.056 42.36 120.556 42.35 119.896 42.45ZM131.354 57C130.594 57 130.044 56.89 129.704 56.67C129.364 56.43 129.154 56.2 129.074 55.98C128.994 55.76 128.954 55.65 128.954 55.65C128.954 55.65 128.944 55.41 128.924 54.93C128.924 54.43 128.914 53.78 128.894 52.98C128.894 52.18 128.884 51.3 128.864 50.34C128.844 49.38 128.824 48.42 128.804 47.46C128.804 46.5 128.794 45.62 128.774 44.82C128.754 44.02 128.734 43.38 128.714 42.9C128.714 42.4 128.714 42.15 128.714 42.15C128.694 42.15 128.584 42.05 128.384 41.85C128.204 41.65 128.104 41.44 128.084 41.22C128.084 41.06 128.274 40.83 128.654 40.53C129.034 40.23 129.674 39.98 130.574 39.78C131.494 39.56 132.754 39.52 134.354 39.66C135.794 39.78 136.924 40.02 137.744 40.38C138.584 40.72 139.194 41.09 139.574 41.49C139.954 41.87 140.194 42.21 140.294 42.51C140.394 42.79 140.444 42.93 140.444 42.93C140.444 42.93 140.454 42.96 140.474 43.02C140.514 43.08 140.544 43.27 140.564 43.59C140.604 43.89 140.634 44.39 140.654 45.09C140.674 45.79 140.674 46.77 140.654 48.03C140.634 49.05 140.394 49.86 139.934 50.46C139.494 51.06 138.944 51.51 138.284 51.81C137.624 52.09 136.964 52.28 136.304 52.38C135.664 52.46 135.124 52.5 134.684 52.5C134.244 52.48 134.024 52.47 134.024 52.47C134.024 52.47 134.024 52.69 134.024 53.13C134.044 53.55 134.044 54.26 134.024 55.26C134.024 55.76 133.884 56.14 133.604 56.4C133.344 56.64 133.034 56.8 132.674 56.88C132.334 56.96 132.024 57 131.744 57C131.484 57 131.354 57 131.354 57ZM133.724 42.45L133.994 49.89C133.994 49.89 134.124 49.88 134.384 49.86C134.644 49.82 134.944 49.72 135.284 49.56C135.624 49.4 135.914 49.13 136.154 48.75C136.414 48.35 136.524 47.79 136.484 47.07C136.444 46.11 136.404 45.39 136.364 44.91C136.324 44.43 136.294 44.12 136.274 43.98C136.274 43.82 136.274 43.74 136.274 43.74C136.274 43.74 136.254 43.66 136.214 43.5C136.194 43.32 136.114 43.13 135.974 42.93C135.834 42.73 135.584 42.58 135.224 42.48C134.884 42.36 134.384 42.35 133.724 42.45ZM148.602 52.8C148.622 52.8 148.802 52.8 149.142 52.8C149.482 52.78 149.902 52.77 150.402 52.77C150.902 52.75 151.392 52.74 151.872 52.74C152.372 52.72 152.792 52.71 153.132 52.71C153.472 52.69 153.642 52.68 153.642 52.68C153.642 52.68 153.752 52.68 153.972 52.68C154.192 52.68 154.452 52.72 154.752 52.8C155.052 52.86 155.312 53 155.532 53.22C155.772 53.44 155.902 53.78 155.922 54.24C155.942 54.68 155.812 55.03 155.532 55.29C155.272 55.53 154.952 55.7 154.572 55.8C154.212 55.88 153.882 55.93 153.582 55.95C153.302 55.97 153.162 55.98 153.162 55.98C153.162 55.98 152.952 56 152.532 56.04C152.132 56.06 151.602 56.11 150.942 56.19C150.282 56.27 149.562 56.38 148.782 56.52C148.002 56.64 147.252 56.8 146.532 57C145.812 57.2 145.212 57.27 144.732 57.21C144.272 57.17 143.912 57.07 143.652 56.91C143.392 56.73 143.202 56.55 143.082 56.37C142.982 56.17 142.932 56.04 142.932 55.98C142.912 55.84 142.952 55.67 143.052 55.47C143.152 55.25 143.342 55.1 143.622 55.02C143.722 55 143.772 54.72 143.772 54.18C143.772 53.62 143.732 52.91 143.652 52.05C143.592 51.17 143.502 50.22 143.382 49.2C143.262 48.18 143.122 47.17 142.962 46.17C142.822 45.17 142.682 44.28 142.542 43.5C142.402 42.72 142.262 42.14 142.122 41.76C141.922 41.18 141.902 40.73 142.062 40.41C142.222 40.09 142.442 39.86 142.722 39.72C143.022 39.56 143.292 39.46 143.532 39.42C143.792 39.38 143.922 39.36 143.922 39.36C143.922 39.36 144.052 39.35 144.312 39.33C144.592 39.29 144.912 39.31 145.272 39.39C145.652 39.45 146.002 39.62 146.322 39.9C146.662 40.16 146.902 40.6 147.042 41.22C147.222 42.04 147.432 43.01 147.672 44.13C147.932 45.23 148.152 46.5 148.332 47.94C148.532 49.38 148.622 51 148.602 52.8ZM155.463 39.39C155.463 39.39 155.633 39.37 155.973 39.33C156.313 39.29 156.713 39.34 157.173 39.48C157.653 39.62 158.063 39.96 158.403 40.5C158.623 40.84 158.843 41.25 159.063 41.73C159.303 42.19 159.513 42.65 159.693 43.11C159.893 43.57 160.053 43.95 160.173 44.25C160.293 44.55 160.353 44.7 160.353 44.7L162.153 40.32C162.153 40.32 162.223 40.23 162.363 40.05C162.523 39.87 162.773 39.7 163.113 39.54C163.473 39.38 163.963 39.32 164.583 39.36C166.403 39.48 167.073 40.05 166.593 41.07C166.493 41.27 166.313 41.64 166.053 42.18C165.793 42.7 165.493 43.29 165.153 43.95C164.833 44.59 164.513 45.22 164.193 45.84C163.893 46.46 163.643 46.97 163.443 47.37C163.243 47.77 163.143 47.97 163.143 47.97L163.293 55.29C163.293 55.29 163.293 55.38 163.293 55.56C163.313 55.72 163.273 55.92 163.173 56.16C163.073 56.38 162.863 56.58 162.543 56.76C162.223 56.92 161.733 57 161.073 57C160.193 57 159.543 56.88 159.123 56.64C158.723 56.4 158.473 56.14 158.373 55.86C158.273 55.56 158.223 55.34 158.223 55.2C158.223 55.12 158.213 54.82 158.193 54.3C158.193 53.78 158.193 53.17 158.193 52.47C158.193 51.77 158.183 51.07 158.163 50.37C158.163 49.67 158.153 49.09 158.133 48.63C158.133 48.17 158.133 47.94 158.133 47.94L154.143 41.58C154.143 41.58 154.083 41.49 153.963 41.31C153.843 41.13 153.763 40.92 153.723 40.68C153.703 40.42 153.813 40.17 154.053 39.93C154.293 39.69 154.763 39.51 155.463 39.39Z" fill="#212121"/>
<path d="M113.74 116H118.51V137H111.97V121.64L106.9 124.79V120.26L113.74 116ZM141.574 125.96C144.274 126.65 145.984 128.09 145.984 130.82C145.984 135.65 142.714 137 136.144 137H121.504V116H136.774C141.814 116 145.204 117.11 145.204 121.4C145.204 123.86 143.824 125.21 141.574 125.93V125.96ZM136.054 120.86H128.614V124.25H136.054C137.824 124.25 138.274 123.47 138.274 122.51C138.274 121.55 137.824 120.86 136.054 120.86ZM136.414 132.17C138.334 132.17 138.784 131.33 138.784 130.22C138.784 129.23 138.274 128.54 136.414 128.54H128.614V132.17H136.414Z" fill="#F4EA4C"/>
</svg>
