<svg width="864" height="242" viewBox="0 0 864 242" fill="none" xmlns="http://www.w3.org/2000/svg">
<path d="M11.4 168.2C11.4 168.2 11.2667 166.333 11 162.6C10.8667 158.867 10.6 154.067 10.2 148.2C9.93333 142.333 9.6 136.067 9.2 129.4C8.8 122.6 8.4 116.133 8 110C7.73333 103.733 7.53333 98.5333 7.4 94.4C7.26667 90.1333 7.2 87.6 7.2 86.8C7.46667 84.5333 7.66667 82.7333 7.8 81.4C8.06667 79.9333 8.73333 78.9333 9.8 78.4C10.6 78 10.8 77.4667 10.4 76.8C10.1333 76.1333 10.0667 75.2667 10.2 74.2C10.4667 73.1333 11.8 72 14.2 70.8C16.0667 69.8667 19 68.5333 23 66.8C27.1333 64.9333 32.0667 63.4667 37.8 62.4C43.5333 61.3333 49.6667 61.4667 56.2 62.8C62.7333 64 69.3333 67.1333 76 72.2C80.5333 75.6667 83.2667 79.2667 84.2 83C85.2667 86.6 85.2667 90.1333 84.2 93.6C83.1333 96.9333 81.6 100 79.6 102.8C77.6 105.467 75.7333 107.6 74 109.2C72.4 110.8 71.6 111.6 71.6 111.6C71.6 111.6 72.5333 111.933 74.4 112.6C76.2667 113.267 78.5333 114.333 81.2 115.8C84 117.267 86.8 119.267 89.6 121.8C92.4 124.2 94.7333 127.2 96.6 130.8C98.6 134.4 99.6667 138.6 99.8 143.4C100.067 151.533 97.5333 158.2 92.2 163.4C87 168.6 79.7333 172.533 70.4 175.2C61.2 177.733 50.6 179 38.6 179C31.6667 179 26.3333 178.467 22.6 177.4C18.8667 176.333 16.2 175.067 14.6 173.6C13 172.133 12.0667 170.867 11.8 169.8C11.5333 168.733 11.4 168.2 11.4 168.2ZM38 82C38 82 38 83.0667 38 85.2C38.1333 87.2 38.2 89.6 38.2 92.4C38.3333 95.2 38.4667 97.8 38.6 100.2C38.8667 102.467 39.1333 103.867 39.4 104.4C39.6667 104.933 40.6 104.8 42.2 104C43.8 103.2 45.4667 102 47.2 100.4C49.0667 98.6667 50.5333 96.7333 51.6 94.6C52.8 92.3333 53.2 90.1333 52.8 88C51.8667 83.7333 49.9333 81.2667 47 80.6C44.0667 79.9333 41.0667 80.4 38 82ZM42.4 128.4L43.8 161.6C43.8 161.6 44.7333 161.6 46.6 161.6C48.4667 161.6 50.7333 161.4 53.4 161C56.0667 160.6 58.6667 159.733 61.2 158.4C63.8667 157.067 65.9333 155.133 67.4 152.6C69 149.933 69.5333 146.333 69 141.8C68.4667 137.267 67.2 133.933 65.2 131.8C63.3333 129.533 61.0667 128.067 58.4 127.4C55.8667 126.733 53.3333 126.533 50.8 126.8C48.4 126.933 46.4 127.267 44.8 127.8C43.2 128.2 42.4 128.4 42.4 128.4ZM126.167 71C126.034 71 126.234 70.2667 126.767 68.8C127.434 67.2 128.901 65.6667 131.167 64.2C133.434 62.7333 137.167 61.9333 142.367 61.8C147.034 61.6667 150.567 62.2667 152.967 63.6C155.367 64.8 156.967 66 157.767 67.2C158.701 68.4 159.167 69 159.167 69C159.167 69 159.901 70.7333 161.367 74.2C162.834 77.6667 164.834 82.2667 167.367 88C169.901 93.6 172.701 99.8667 175.767 106.8C178.834 113.733 181.901 120.8 184.967 128C188.167 135.067 191.101 141.733 193.767 148C196.567 154.133 198.901 159.333 200.767 163.6C202.634 167.733 203.834 170.333 204.367 171.4C205.567 173.933 206.234 175.733 206.367 176.8C206.501 177.867 206.434 178.6 206.167 179C206.034 179.267 205.967 179.467 205.967 179.6C205.034 181.467 203.167 183.067 200.367 184.4C197.701 185.867 194.434 186.667 190.567 186.8C185.234 186.933 181.367 186.333 178.967 185C176.567 183.8 174.967 182.533 174.167 181.2C173.501 180 173.234 179.467 173.367 179.6C173.367 179.6 172.634 178.067 171.167 175C169.834 171.933 168.234 168.267 166.367 164C164.501 159.6 162.767 155.6 161.167 152C161.167 152 160.234 152 158.367 152C156.634 152 154.567 152 152.167 152C149.767 152 147.634 152 145.767 152C144.034 152 143.167 152 143.167 152C142.634 153.867 142.101 156.2 141.567 159C141.034 161.667 140.567 164.067 140.167 166.2C139.767 168.333 139.567 169.4 139.567 169.4C139.567 169.4 139.234 170.2 138.567 171.8C138.034 173.4 136.501 175 133.967 176.6C131.434 178.2 127.234 179 121.367 179C116.967 179 113.634 178.533 111.367 177.6C109.234 176.533 107.767 175.333 106.967 174C106.301 172.667 105.967 171.533 105.967 170.6C105.967 169.533 105.967 169 105.967 169C106.234 167.667 106.767 164.933 107.567 160.8C108.501 156.533 109.567 151.467 110.767 145.6C112.101 139.6 113.434 133.267 114.767 126.6C116.234 119.933 117.634 113.333 118.967 106.8C120.301 100.267 121.501 94.3333 122.567 89C123.634 83.5333 124.501 79.2 125.167 76C125.834 72.6667 126.167 71 126.167 71ZM147.167 102.6C147.034 103.133 146.901 104.2 146.767 105.8L145.967 111.4C145.701 114.467 145.367 117.733 144.967 121.2C144.567 124.667 144.167 127.933 143.767 131C143.501 132.6 143.301 133.6 143.167 134H145.767C147.367 134 149.101 133.933 150.967 133.8C152.834 133.667 154.501 133.6 155.967 133.6C155.434 132.533 154.967 131.2 154.567 129.6C154.301 127.867 153.967 126.267 153.567 124.8C152.767 121.733 151.834 118.533 150.767 115.2C149.834 111.867 148.967 108.733 148.167 105.8C147.767 104.2 147.434 103.133 147.167 102.6ZM220.189 168.2C220.189 168.2 220.056 166.333 219.789 162.6C219.656 158.867 219.389 154.067 218.989 148.2C218.722 142.333 218.389 136.067 217.989 129.4C217.589 122.6 217.189 116.133 216.789 110C216.522 103.733 216.322 98.5333 216.189 94.4C216.056 90.1333 215.989 87.6 215.989 86.8C216.256 84.5333 216.456 82.7333 216.589 81.4C216.856 79.9333 217.522 78.9333 218.589 78.4C219.389 78 219.589 77.4667 219.189 76.8C218.922 76.1333 218.856 75.2667 218.989 74.2C219.256 73.1333 220.589 72 222.989 70.8C224.856 69.8667 227.789 68.5333 231.789 66.8C235.922 64.9333 240.856 63.4667 246.589 62.4C252.322 61.3333 258.456 61.4667 264.989 62.8C271.522 64 278.122 67.1333 284.789 72.2C289.322 75.6667 292.056 79.2667 292.989 83C294.056 86.6 294.056 90.1333 292.989 93.6C291.922 96.9333 290.389 100 288.389 102.8C286.389 105.467 284.522 107.6 282.789 109.2C281.189 110.8 280.389 111.6 280.389 111.6C280.389 111.6 281.322 111.933 283.189 112.6C285.056 113.267 287.322 114.333 289.989 115.8C292.789 117.267 295.589 119.267 298.389 121.8C301.189 124.2 303.522 127.2 305.389 130.8C307.389 134.4 308.456 138.6 308.589 143.4C308.856 151.533 306.322 158.2 300.989 163.4C295.789 168.6 288.522 172.533 279.189 175.2C269.989 177.733 259.389 179 247.389 179C240.456 179 235.122 178.467 231.389 177.4C227.656 176.333 224.989 175.067 223.389 173.6C221.789 172.133 220.856 170.867 220.589 169.8C220.322 168.733 220.189 168.2 220.189 168.2ZM246.789 82C246.789 82 246.789 83.0667 246.789 85.2C246.922 87.2 246.989 89.6 246.989 92.4C247.122 95.2 247.256 97.8 247.389 100.2C247.656 102.467 247.922 103.867 248.189 104.4C248.456 104.933 249.389 104.8 250.989 104C252.589 103.2 254.256 102 255.989 100.4C257.856 98.6667 259.322 96.7333 260.389 94.6C261.589 92.3333 261.989 90.1333 261.589 88C260.656 83.7333 258.722 81.2667 255.789 80.6C252.856 79.9333 249.856 80.4 246.789 82ZM251.189 128.4L252.589 161.6C252.589 161.6 253.522 161.6 255.389 161.6C257.256 161.6 259.522 161.4 262.189 161C264.856 160.6 267.456 159.733 269.989 158.4C272.656 157.067 274.722 155.133 276.189 152.6C277.789 149.933 278.322 146.333 277.789 141.8C277.256 137.267 275.989 133.933 273.989 131.8C272.122 129.533 269.856 128.067 267.189 127.4C264.656 126.733 262.122 126.533 259.589 126.8C257.189 126.933 255.189 127.267 253.589 127.8C251.989 128.2 251.189 128.4 251.189 128.4ZM326.756 61.6C326.756 61.6 327.89 61.4667 330.156 61.2C332.423 60.9333 335.09 61.2667 338.156 62.2C341.356 63.1333 344.09 65.4 346.356 69C347.823 71.2667 349.29 74 350.756 77.2C352.356 80.2667 353.756 83.3333 354.956 86.4C356.29 89.4667 357.356 92 358.156 94C358.956 96 359.356 97 359.356 97L371.356 67.8C371.356 67.8 371.823 67.2 372.756 66C373.823 64.8 375.49 63.6667 377.756 62.6C380.156 61.5333 383.423 61.1333 387.556 61.4C399.69 62.2 404.156 66 400.956 72.8C400.29 74.1333 399.09 76.6 397.356 80.2C395.623 83.6667 393.623 87.6 391.356 92C389.223 96.2667 387.09 100.467 384.956 104.6C382.956 108.733 381.29 112.133 379.956 114.8C378.623 117.467 377.956 118.8 377.956 118.8L378.956 167.6C378.956 167.6 378.956 168.2 378.956 169.4C379.09 170.467 378.823 171.8 378.156 173.4C377.49 174.867 376.09 176.2 373.956 177.4C371.823 178.467 368.556 179 364.156 179C358.29 179 353.956 178.2 351.156 176.6C348.49 175 346.823 173.267 346.156 171.4C345.49 169.4 345.156 167.933 345.156 167C345.156 166.467 345.09 164.467 344.956 161C344.956 157.533 344.956 153.467 344.956 148.8C344.956 144.133 344.89 139.467 344.756 134.8C344.756 130.133 344.69 126.267 344.556 123.2C344.556 120.133 344.556 118.6 344.556 118.6L317.956 76.2C317.956 76.2 317.556 75.6 316.756 74.4C315.956 73.2 315.423 71.8 315.156 70.2C315.023 68.4667 315.756 66.8 317.356 65.2C318.956 63.6 322.09 62.4 326.756 61.6ZM483.198 71C483.065 71 483.265 70.2667 483.798 68.8C484.465 67.2 485.932 65.6667 488.198 64.2C490.465 62.7333 494.198 61.9333 499.398 61.8C504.065 61.6667 507.598 62.2667 509.998 63.6C512.398 64.8 513.998 66 514.798 67.2C515.732 68.4 516.198 69 516.198 69C516.198 69 516.932 70.7333 518.398 74.2C519.865 77.6667 521.865 82.2667 524.398 88C526.932 93.6 529.732 99.8667 532.798 106.8C535.865 113.733 538.932 120.8 541.998 128C545.198 135.067 548.132 141.733 550.798 148C553.598 154.133 555.932 159.333 557.798 163.6C559.665 167.733 560.865 170.333 561.398 171.4C562.598 173.933 563.265 175.733 563.398 176.8C563.532 177.867 563.465 178.6 563.198 179C563.065 179.267 562.998 179.467 562.998 179.6C562.065 181.467 560.198 183.067 557.398 184.4C554.732 185.867 551.465 186.667 547.598 186.8C542.265 186.933 538.398 186.333 535.998 185C533.598 183.8 531.998 182.533 531.198 181.2C530.532 180 530.265 179.467 530.398 179.6C530.398 179.6 529.665 178.067 528.198 175C526.865 171.933 525.265 168.267 523.398 164C521.532 159.6 519.798 155.6 518.198 152C518.198 152 517.265 152 515.398 152C513.665 152 511.598 152 509.198 152C506.798 152 504.665 152 502.798 152C501.065 152 500.198 152 500.198 152C499.665 153.867 499.132 156.2 498.598 159C498.065 161.667 497.598 164.067 497.198 166.2C496.798 168.333 496.598 169.4 496.598 169.4C496.598 169.4 496.265 170.2 495.598 171.8C495.065 173.4 493.532 175 490.998 176.6C488.465 178.2 484.265 179 478.398 179C473.998 179 470.665 178.533 468.398 177.6C466.265 176.533 464.798 175.333 463.998 174C463.332 172.667 462.998 171.533 462.998 170.6C462.998 169.533 462.998 169 462.998 169C463.265 167.667 463.798 164.933 464.598 160.8C465.532 156.533 466.598 151.467 467.798 145.6C469.132 139.6 470.465 133.267 471.798 126.6C473.265 119.933 474.665 113.333 475.998 106.8C477.332 100.267 478.532 94.3333 479.598 89C480.665 83.5333 481.532 79.2 482.198 76C482.865 72.6667 483.198 71 483.198 71ZM504.198 102.6C504.065 103.133 503.932 104.2 503.798 105.8L502.998 111.4C502.732 114.467 502.398 117.733 501.998 121.2C501.598 124.667 501.198 127.933 500.798 131C500.532 132.6 500.332 133.6 500.198 134H502.798C504.398 134 506.132 133.933 507.998 133.8C509.865 133.667 511.532 133.6 512.998 133.6C512.465 132.533 511.998 131.2 511.598 129.6C511.332 127.867 510.998 126.267 510.598 124.8C509.798 121.733 508.865 118.533 507.798 115.2C506.865 111.867 505.998 108.733 505.198 105.8C504.798 104.2 504.465 103.133 504.198 102.6ZM598.22 179C593.42 179 589.754 178.467 587.22 177.4C584.82 176.2 583.087 174.867 582.02 173.4C581.087 171.8 580.554 170.467 580.42 169.4C580.42 168.2 580.42 167.6 580.42 167.6C580.42 167.6 580.22 165.6 579.82 161.6C579.42 157.6 578.887 152.467 578.22 146.2C577.554 139.8 576.82 133 576.02 125.8C575.354 118.467 574.62 111.467 573.82 104.8C573.154 98 572.62 92.2667 572.22 87.6C571.82 82.8 571.554 79.8 571.42 78.6C571.287 75.1333 572.02 72.1333 573.62 69.6C575.354 66.9333 579.487 65.4 586.02 65C590.42 64.7333 593.954 65.4 596.62 67C599.287 68.6 601.22 70.2667 602.42 72C603.62 73.6 604.22 74.4 604.22 74.4L623.02 120L630.42 133.8L625.82 95.8C625.82 95.8 625.82 93.6 625.82 89.2C625.954 84.8 626.22 79.5333 626.62 73.4C626.887 70.3333 627.887 68 629.62 66.4C631.354 64.8 633.287 63.6667 635.42 63C637.687 62.3333 639.62 62 641.22 62C642.954 61.8667 643.82 61.8 643.82 61.8C643.82 61.8 644.554 61.8667 646.02 62C647.62 62.1333 649.42 62.7333 651.42 63.8C653.42 64.7333 655.154 66.4667 656.62 69C658.22 71.4 658.954 74.9333 658.82 79.6C658.687 85.3333 658.887 91.8667 659.42 99.2C659.954 106.4 660.62 113.8 661.42 121.4C662.354 129 663.22 136.133 664.02 142.8C664.954 149.333 665.754 154.8 666.42 159.2C667.22 163.6 667.687 166.333 667.82 167.4C668.087 169 668.154 170.933 668.02 173.2C667.887 175.467 666.82 177.467 664.82 179.2C662.954 180.933 659.42 181.867 654.22 182C649.02 182 645.154 181.4 642.62 180.2C640.087 179 638.354 177.8 637.42 176.6C636.62 175.267 636.22 174.6 636.22 174.6L606.22 120.8C606.22 120.8 606.487 122.133 607.02 124.8C607.554 127.467 608.154 130.933 608.82 135.2C609.62 139.467 610.354 144.067 611.02 149C611.82 153.933 612.42 158.667 612.82 163.2C613.22 167.733 612.687 171.133 611.22 173.4C609.887 175.533 608.154 177 606.02 177.8C604.02 178.6 602.22 179 600.62 179C599.02 179 598.22 179 598.22 179ZM685.638 166C685.104 158.133 684.504 149.933 683.838 141.4C683.171 132.733 682.504 124.467 681.838 116.6C681.304 108.733 680.838 102.067 680.438 96.6C680.038 91 679.704 87.4 679.438 85.8C679.038 82.7333 679.171 80.6667 679.838 79.6C680.638 78.4 681.038 77.8 681.038 77.8C681.038 77.8 680.571 77.3333 679.638 76.4C678.704 75.3333 678.238 74.2 678.238 73C678.238 70.8667 679.504 69.1333 682.038 67.8C684.704 66.4667 687.704 65.4667 691.038 64.8C694.371 64.1333 697.304 63.6667 699.837 63.4C702.504 63.1333 703.838 63 703.838 63C703.838 63 705.171 62.9333 707.838 62.8C710.504 62.6667 713.904 62.8 718.038 63.2C722.304 63.6 726.838 64.6667 731.638 66.4C736.571 68 741.238 70.6 745.638 74.2C750.171 77.8 753.971 82.7333 757.038 89C760.104 95.1333 761.971 103 762.638 112.6C763.438 123.933 762.904 133.467 761.038 141.2C759.304 148.933 756.638 155.267 753.038 160.2C749.571 165 745.571 168.733 741.038 171.4C736.504 174.067 731.771 175.933 726.838 177C722.038 177.933 717.438 178.533 713.038 178.8C708.771 178.933 705.038 179 701.838 179C697.171 179 693.638 178.333 691.238 177C688.971 175.667 687.438 174.2 686.637 172.6C685.971 170.867 685.638 169.333 685.638 168C685.638 166.667 685.638 166 685.638 166ZM707.038 81L715.838 162C715.838 162 716.438 161.933 717.638 161.8C718.838 161.667 720.304 161.067 722.038 160C723.904 158.933 725.638 157 727.238 154.2C728.971 151.4 730.304 147.467 731.238 142.4C732.171 137.2 732.371 130.467 731.838 122.2C731.304 111.8 730.171 103.733 728.438 98C726.838 92.1333 724.838 87.9333 722.438 85.4C720.171 82.8667 717.704 81.4 715.038 81C712.371 80.6 709.704 80.6 707.038 81ZM784.178 61.6C784.178 61.6 785.311 61.4667 787.578 61.2C789.845 60.9333 792.511 61.2667 795.578 62.2C798.778 63.1333 801.511 65.4 803.778 69C805.245 71.2667 806.711 74 808.178 77.2C809.778 80.2667 811.178 83.3333 812.378 86.4C813.711 89.4667 814.778 92 815.578 94C816.378 96 816.778 97 816.778 97L828.778 67.8C828.778 67.8 829.245 67.2 830.178 66C831.245 64.8 832.911 63.6667 835.178 62.6C837.578 61.5333 840.845 61.1333 844.978 61.4C857.111 62.2 861.578 66 858.378 72.8C857.711 74.1333 856.511 76.6 854.778 80.2C853.045 83.6667 851.045 87.6 848.778 92C846.645 96.2667 844.511 100.467 842.378 104.6C840.378 108.733 838.711 112.133 837.378 114.8C836.045 117.467 835.378 118.8 835.378 118.8L836.378 167.6C836.378 167.6 836.378 168.2 836.378 169.4C836.511 170.467 836.245 171.8 835.578 173.4C834.911 174.867 833.511 176.2 831.378 177.4C829.245 178.467 825.978 179 821.578 179C815.711 179 811.378 178.2 808.578 176.6C805.911 175 804.245 173.267 803.578 171.4C802.911 169.4 802.578 167.933 802.578 167C802.578 166.467 802.511 164.467 802.378 161C802.378 157.533 802.378 153.467 802.378 148.8C802.378 144.133 802.311 139.467 802.178 134.8C802.178 130.133 802.111 126.267 801.978 123.2C801.978 120.133 801.978 118.6 801.978 118.6L775.378 76.2C775.378 76.2 774.978 75.6 774.178 74.4C773.378 73.2 772.845 71.8 772.578 70.2C772.445 68.4667 773.178 66.8 774.778 65.2C776.378 63.6 779.511 62.4 784.178 61.6Z" fill="#F4EA4C"/>
</svg>
