<svg width="235" height="235" viewBox="0 0 235 235" fill="none" xmlns="http://www.w3.org/2000/svg">
<path d="M160.478 43L142.04 98.6309L200.548 95.2197L148.173 121.519L191.956 160.478L136.325 142.04L139.737 200.548L113.437 148.173L74.4782 191.956L92.916 136.325L34.4086 139.737L86.7831 113.437L43 74.4782L98.6309 92.916L95.2197 34.4086L121.519 86.7831L160.478 43Z" fill="#F4EA4C"/>
<path d="M137.048 103.5C135.572 104.171 133.981 104.612 132.333 104.823C134.02 103.807 135.323 102.197 135.936 100.261C134.345 101.219 132.582 101.89 130.723 102.274C129.209 100.625 127.081 99.667 124.666 99.667C120.162 99.667 116.482 103.347 116.482 107.889C116.482 108.541 116.559 109.174 116.693 109.768C109.87 109.423 103.794 106.145 99.7495 101.181C99.0403 102.389 98.6378 103.807 98.6378 105.302C98.6378 108.158 100.075 110.688 102.299 112.125C100.938 112.125 99.6728 111.742 98.5612 111.167V111.224C98.5612 115.211 101.398 118.546 105.155 119.294C103.948 119.624 102.682 119.67 101.455 119.428C101.976 121.062 102.995 122.491 104.371 123.516C105.746 124.54 107.407 125.108 109.122 125.139C106.216 127.44 102.613 128.684 98.9062 128.666C98.2545 128.666 97.6028 128.628 96.9512 128.551C100.593 130.889 104.925 132.25 109.563 132.25C124.666 132.25 132.965 119.715 132.965 108.848C132.965 108.484 132.965 108.139 132.946 107.774C134.556 106.624 135.936 105.168 137.048 103.5Z" fill="#212121"/>
</svg>
