<svg width="236" height="236" viewBox="0 0 236 236" fill="none" xmlns="http://www.w3.org/2000/svg">
<path d="M161 43.5215L138.468 102.294L201.069 95.7412L143.579 121.367L192.478 161L133.706 138.468L140.258 201.069L114.632 143.579L74.9997 192.478L97.5312 133.706L34.93 140.258L92.4204 114.632L43.5215 74.9997L102.294 97.5312L95.7412 34.93L121.367 92.4204L161 43.5215Z" fill="#F4EA4C"/>
<g clip-path="url(#clip0_207_446)">
<path fill-rule="evenodd" clip-rule="evenodd" d="M129.258 104.122C129.711 103.931 130.206 103.865 130.694 103.931C131.181 103.997 131.641 104.192 132.027 104.497C132.413 104.801 132.71 105.203 132.888 105.662C133.066 106.12 133.118 106.618 133.038 107.103L128.88 132.324C128.477 134.757 125.807 136.152 123.576 134.94C121.71 133.926 118.938 132.364 116.444 130.734C115.198 129.918 111.379 127.306 111.848 125.447C112.252 123.857 118.668 117.884 122.335 114.333C123.774 112.938 123.118 112.133 121.418 113.417C117.198 116.603 110.422 121.448 108.182 122.812C106.205 124.015 105.175 124.22 103.943 124.015C101.695 123.641 99.6107 123.062 97.9094 122.356C95.6104 121.403 95.7222 118.242 97.9075 117.322L129.258 104.122Z" fill="#212121"/>
</g>
<defs>
<clipPath id="clip0_207_446">
<rect width="44" height="44" fill="white" transform="translate(93 96)"/>
</clipPath>
</defs>
</svg>
