<svg width="447" height="218" viewBox="0 0 447 218" fill="none" xmlns="http://www.w3.org/2000/svg">
<path d="M22.32 63.8C22.2 63.8 22.38 63.14 22.86 61.82C23.46 60.38 24.78 59 26.82 57.68C28.86 56.36 32.22 55.64 36.9 55.52C41.1 55.4 44.28 55.94 46.44 57.14C48.6 58.22 50.04 59.3 50.76 60.38C51.6 61.46 52.02 62 52.02 62C52.02 62 52.68 63.56 54 66.68C55.32 69.8 57.12 73.94 59.4 79.1C61.68 84.14 64.2 89.78 66.96 96.02C69.72 102.26 72.48 108.62 75.24 115.1C78.12 121.46 80.76 127.46 83.16 133.1C85.68 138.62 87.78 143.3 89.46 147.14C91.14 150.86 92.22 153.2 92.7 154.16C93.78 156.44 94.38 158.06 94.5 159.02C94.62 159.98 94.56 160.64 94.32 161C94.2 161.24 94.14 161.42 94.14 161.54C93.3 163.22 91.62 164.66 89.1 165.86C86.7 167.18 83.76 167.9 80.28 168.02C75.48 168.14 72 167.6 69.84 166.4C67.68 165.32 66.24 164.18 65.52 162.98C64.92 161.9 64.68 161.42 64.8 161.54C64.8 161.54 64.14 160.16 62.82 157.4C61.62 154.64 60.18 151.34 58.5 147.5C56.82 143.54 55.26 139.94 53.82 136.7C53.82 136.7 52.98 136.7 51.3 136.7C49.74 136.7 47.88 136.7 45.72 136.7C43.56 136.7 41.64 136.7 39.96 136.7C38.4 136.7 37.62 136.7 37.62 136.7C37.14 138.38 36.66 140.48 36.18 143C35.7 145.4 35.28 147.56 34.92 149.48C34.56 151.4 34.38 152.36 34.38 152.36C34.38 152.36 34.08 153.08 33.48 154.52C33 155.96 31.62 157.4 29.34 158.84C27.06 160.28 23.28 161 18 161C14.04 161 11.04 160.58 9 159.74C7.08 158.78 5.76 157.7 5.04 156.5C4.44 155.3 4.14 154.28 4.14 153.44C4.14 152.48 4.14 152 4.14 152C4.38 150.8 4.86 148.34 5.58 144.62C6.42 140.78 7.38 136.22 8.46 130.94C9.66 125.54 10.86 119.84 12.06 113.84C13.38 107.84 14.64 101.9 15.84 96.02C17.04 90.14 18.12 84.8 19.08 80C20.04 75.08 20.82 71.18 21.42 68.3C22.02 65.3 22.32 63.8 22.32 63.8ZM41.22 92.24C41.1 92.72 40.98 93.68 40.86 95.12L40.14 100.16C39.9 102.92 39.6 105.86 39.24 108.98C38.88 112.1 38.52 115.04 38.16 117.8C37.92 119.24 37.74 120.14 37.62 120.5H39.96C41.4 120.5 42.96 120.44 44.64 120.32C46.32 120.2 47.82 120.14 49.14 120.14C48.66 119.18 48.24 117.98 47.88 116.54C47.64 114.98 47.34 113.54 46.98 112.22C46.26 109.46 45.42 106.58 44.46 103.58C43.62 100.58 42.84 97.76 42.12 95.12C41.76 93.68 41.46 92.72 41.22 92.24ZM106.94 151.28C106.94 151.28 106.82 149.6 106.58 146.24C106.46 142.88 106.22 138.56 105.86 133.28C105.62 128 105.32 122.36 104.96 116.36C104.6 110.24 104.24 104.42 103.88 98.9C103.64 93.26 103.46 88.58 103.34 84.86C103.22 81.02 103.16 78.74 103.16 78.02C103.4 75.98 103.58 74.36 103.7 73.16C103.94 71.84 104.54 70.94 105.5 70.46C106.22 70.1 106.4 69.62 106.04 69.02C105.8 68.42 105.74 67.64 105.86 66.68C106.1 65.72 107.3 64.7 109.46 63.62C111.14 62.78 113.78 61.58 117.38 60.02C121.1 58.34 125.54 57.02 130.7 56.06C135.86 55.1 141.38 55.22 147.26 56.42C153.14 57.5 159.08 60.32 165.08 64.88C169.16 68 171.62 71.24 172.46 74.6C173.42 77.84 173.42 81.02 172.46 84.14C171.5 87.14 170.12 89.9 168.32 92.42C166.52 94.82 164.84 96.74 163.28 98.18C161.84 99.62 161.12 100.34 161.12 100.34C161.12 100.34 161.96 100.64 163.64 101.24C165.32 101.84 167.36 102.8 169.76 104.12C172.28 105.44 174.8 107.24 177.32 109.52C179.84 111.68 181.94 114.38 183.62 117.62C185.42 120.86 186.38 124.64 186.5 128.96C186.74 136.28 184.46 142.28 179.66 146.96C174.98 151.64 168.44 155.18 160.04 157.58C151.76 159.86 142.22 161 131.42 161C125.18 161 120.38 160.52 117.02 159.56C113.66 158.6 111.26 157.46 109.82 156.14C108.38 154.82 107.54 153.68 107.3 152.72C107.06 151.76 106.94 151.28 106.94 151.28ZM130.88 73.7C130.88 73.7 130.88 74.66 130.88 76.58C131 78.38 131.06 80.54 131.06 83.06C131.18 85.58 131.3 87.92 131.42 90.08C131.66 92.12 131.9 93.38 132.14 93.86C132.38 94.34 133.22 94.22 134.66 93.5C136.1 92.78 137.6 91.7 139.16 90.26C140.84 88.7 142.16 86.96 143.12 85.04C144.2 83 144.56 81.02 144.2 79.1C143.36 75.26 141.62 73.04 138.98 72.44C136.34 71.84 133.64 72.26 130.88 73.7ZM134.84 115.46L136.1 145.34C136.1 145.34 136.94 145.34 138.62 145.34C140.3 145.34 142.34 145.16 144.74 144.8C147.14 144.44 149.48 143.66 151.76 142.46C154.16 141.26 156.02 139.52 157.34 137.24C158.78 134.84 159.26 131.6 158.78 127.52C158.3 123.44 157.16 120.44 155.36 118.52C153.68 116.48 151.64 115.16 149.24 114.56C146.96 113.96 144.68 113.78 142.4 114.02C140.24 114.14 138.44 114.44 137 114.92C135.56 115.28 134.84 115.46 134.84 115.46ZM192.41 108.62C192.41 99.02 194.09 90.26 197.45 82.34C200.81 74.3 205.37 67.94 211.13 63.26C216.89 58.46 223.25 56.06 230.21 56.06C235.37 56.06 240.29 57.44 244.97 60.2C249.65 62.84 253.79 66.62 257.39 71.54C260.99 76.34 263.81 81.92 265.85 88.28C267.89 94.64 268.91 101.42 268.91 108.62C268.91 115.82 267.89 122.6 265.85 128.96C263.81 135.32 260.99 140.96 257.39 145.88C253.79 150.68 249.65 154.46 244.97 157.22C240.29 159.86 235.37 161.18 230.21 161.18C223.25 161.18 216.89 158.84 211.13 154.16C205.37 149.36 200.81 143 197.45 135.08C194.09 127.16 192.41 118.34 192.41 108.62ZM219.95 107.9C219.95 114.86 220.43 121.28 221.39 127.16C222.35 132.92 223.67 137.54 225.35 141.02C227.03 144.38 228.89 146.06 230.93 146.06C232.97 146.06 234.83 144.38 236.51 141.02C238.19 137.54 239.51 132.92 240.47 127.16C241.43 121.28 241.91 114.86 241.91 107.9C241.91 100.82 241.43 94.4 240.47 88.64C239.51 82.88 238.19 78.26 236.51 74.78C234.83 71.3 232.97 69.56 230.93 69.56C228.89 69.56 227.03 71.3 225.35 74.78C223.67 78.26 222.35 82.88 221.39 88.64C220.43 94.4 219.95 100.82 219.95 107.9ZM293.5 56.96C293.5 56.96 294.28 57.08 295.84 57.32C297.4 57.44 299.14 57.98 301.06 58.94C303.1 59.78 304.84 61.34 306.28 63.62C307.72 65.78 308.32 68.96 308.08 73.16C307.96 75.92 307.78 79.64 307.54 84.32C307.42 88.88 307.36 93.92 307.36 99.44C307.36 104.84 307.48 110.24 307.72 115.64C308.08 121.04 308.62 126.02 309.34 130.58C310.18 135.14 311.26 138.8 312.58 141.56C314.02 144.2 315.76 145.46 317.8 145.34C319.96 145.22 321.58 143.78 322.66 141.02C323.74 138.14 324.46 134.54 324.82 130.22C325.18 125.78 325.3 121.1 325.18 116.18C325.06 111.26 324.82 106.58 324.46 102.14C324.1 97.58 323.74 93.86 323.38 90.98C323.14 87.98 322.96 86.3 322.84 85.94C322.72 85.46 322.54 84.44 322.3 82.88C322.06 81.32 322.18 79.64 322.66 77.84C323.14 76.04 324.34 74.42 326.26 72.98C328.3 71.54 331.48 70.64 335.8 70.28C340.12 69.92 343.48 70.46 345.88 71.9C348.28 73.34 349.96 75.08 350.92 77.12C352 79.16 352.6 80.96 352.72 82.52C352.96 84.08 353.08 84.86 353.08 84.86C353.08 84.86 353.26 86.24 353.62 89C354.1 91.76 354.46 95.42 354.7 99.98C355.06 104.42 355.06 109.34 354.7 114.74C354.46 120.14 353.68 125.6 352.36 131.12C351.16 136.52 349.18 141.5 346.42 146.06C343.66 150.5 339.94 154.1 335.26 156.86C330.58 159.62 324.7 161 317.62 161C310.54 161 304.54 159.56 299.62 156.68C294.82 153.68 290.86 149.78 287.74 144.98C284.74 140.06 282.4 134.6 280.72 128.6C279.16 122.6 278.08 116.48 277.48 110.24C277 103.88 276.76 97.88 276.76 92.24C276.88 86.6 277.06 81.68 277.3 77.48C277.66 73.28 277.9 70.28 278.02 68.48C278.26 65.36 279.16 63.02 280.72 61.46C282.28 59.78 284.02 58.64 285.94 58.04C287.98 57.44 289.72 57.14 291.16 57.14C292.72 57.02 293.5 56.96 293.5 56.96ZM386.699 75.5C385.139 75.74 382.919 75.92 380.039 76.04C377.159 76.04 374.219 75.86 371.219 75.5C368.219 75.14 365.639 74.48 363.479 73.52C361.319 72.44 360.119 70.88 359.879 68.84C359.759 66.8 360.359 65.18 361.679 63.98C363.119 62.78 364.799 61.88 366.719 61.28C368.639 60.56 370.319 60.14 371.759 60.02C373.319 59.78 374.099 59.66 374.099 59.66L424.499 54.98C424.499 54.98 425.339 54.98 427.019 54.98C428.699 54.86 430.619 54.92 432.779 55.16C435.059 55.4 437.099 56 438.899 56.96C440.699 57.8 441.659 59.18 441.779 61.1C442.019 63.02 441.419 64.64 439.979 65.96C438.659 67.16 437.039 68.18 435.119 69.02C433.199 69.74 431.519 70.28 430.079 70.64C428.639 70.88 427.919 71 427.919 71L416.399 72.8C416.879 75.8 417.419 80.06 418.019 85.58C418.619 90.98 419.219 96.98 419.819 103.58C420.419 110.18 420.959 116.66 421.439 123.02C421.919 129.38 422.279 135.08 422.519 140.12C422.879 145.16 423.059 148.76 423.059 150.92C423.059 153.68 422.279 155.78 420.719 157.22C419.279 158.54 417.539 159.5 415.499 160.1C413.579 160.58 411.839 160.88 410.279 161C408.839 161 408.119 161 408.119 161C408.119 161 407.339 161 405.779 161C404.219 160.88 402.419 160.4 400.379 159.56C398.459 158.72 396.719 157.16 395.159 154.88C393.719 152.6 392.999 149.18 392.999 144.62C392.999 140.54 392.759 135.56 392.279 129.68C391.919 123.8 391.439 117.74 390.839 111.5C390.239 105.14 389.579 99.26 388.859 93.86C388.259 88.46 387.719 84.08 387.239 80.72C386.879 77.24 386.699 75.5 386.699 75.5Z" fill="#F4EA4C"/>
</svg>
