<svg width="203" height="78" viewBox="0 0 203 78" fill="none" xmlns="http://www.w3.org/2000/svg">
<rect width="203" height="78" fill="#90FF58"/>
<path d="M83.57 39.96C86.27 40.65 87.98 42.09 87.98 44.82C87.98 49.65 84.71 51 78.14 51H63.5V30H78.77C83.81 30 87.2 31.11 87.2 35.4C87.2 37.86 85.82 39.21 83.57 39.93V39.96ZM78.05 34.86H70.61V38.25H78.05C79.82 38.25 80.27 37.47 80.27 36.51C80.27 35.55 79.82 34.86 78.05 34.86ZM78.41 46.17C80.33 46.17 80.78 45.33 80.78 44.22C80.78 43.23 80.27 42.54 78.41 42.54H70.61V46.17H78.41ZM106.625 30H113.735V42.21C113.735 50.34 108.035 51.45 102.065 51.45C96.0945 51.45 90.3945 50.34 90.3945 42.21V30H97.5045V41.64C97.5045 45.93 99.2145 46.65 102.065 46.65C104.885 46.65 106.625 45.93 106.625 41.64V30ZM133.892 30H141.782L132.062 43.56V51H124.952V43.56L115.232 30H123.122L128.492 38.37L133.892 30Z" fill="#212121"/>
</svg>
