<svg width="139" height="96" viewBox="0 0 139 96" fill="none" xmlns="http://www.w3.org/2000/svg">
<rect width="139" height="96" rx="21" fill="#F4EA4C"/>
<path d="M45.9 53.13C45.9 53.13 45.87 53.26 45.81 53.52C45.75 53.78 45.62 54.1 45.42 54.48C45.22 54.86 44.91 55.25 44.49 55.65C44.09 56.03 43.54 56.35 42.84 56.61C42.14 56.87 41.26 57 40.2 57C38.92 57 37.87 56.8 37.05 56.4C36.25 56 35.62 55.46 35.16 54.78C34.7 54.08 34.37 53.31 34.17 52.47C33.97 51.61 33.85 50.72 33.81 49.8C33.79 48.88 33.8 47.99 33.84 47.13C33.88 46.25 33.91 45.46 33.93 44.76C33.95 43.7 34.14 42.85 34.5 42.21C34.88 41.55 35.34 41.05 35.88 40.71C36.44 40.35 37.02 40.1 37.62 39.96C38.22 39.82 38.76 39.74 39.24 39.72C40.22 39.66 41.21 39.83 42.21 40.23C43.21 40.63 44.02 41.37 44.64 42.45C44.96 42.99 45.05 43.42 44.91 43.74C44.79 44.04 44.56 44.26 44.22 44.4C43.9 44.54 43.57 44.63 43.23 44.67C42.89 44.71 42.67 44.73 42.57 44.73C41.93 44.73 41.44 44.64 41.1 44.46C40.78 44.28 40.55 44.07 40.41 43.83C40.29 43.57 40.23 43.34 40.23 43.14C40.23 42.98 40.18 42.82 40.08 42.66C40 42.48 39.89 42.36 39.75 42.3C39.63 42.24 39.5 42.31 39.36 42.51C39.24 42.71 39.14 43.1 39.06 43.68C39 44.14 38.96 44.75 38.94 45.51C38.94 46.25 38.95 47.04 38.97 47.88C38.99 48.7 39.01 49.48 39.03 50.22C39.07 50.96 39.1 51.57 39.12 52.05C39.16 52.51 39.18 52.74 39.18 52.74C39.18 52.74 39.2 52.89 39.24 53.19C39.3 53.49 39.41 53.79 39.57 54.09C39.75 54.39 40.01 54.55 40.35 54.57C40.61 54.59 40.81 54.51 40.95 54.33C41.11 54.13 41.22 53.91 41.28 53.67C41.36 53.41 41.41 53.19 41.43 53.01C41.45 52.81 41.46 52.71 41.46 52.71C41.46 52.71 41.45 52.63 41.43 52.47C41.43 52.31 41.48 52.13 41.58 51.93C41.68 51.71 41.89 51.53 42.21 51.39C42.53 51.23 43.02 51.16 43.68 51.18C44.34 51.2 44.83 51.31 45.15 51.51C45.47 51.69 45.68 51.91 45.78 52.17C45.88 52.41 45.92 52.63 45.9 52.83C45.9 53.03 45.9 53.13 45.9 53.13ZM47.6494 55.35L47.0794 41.19C47.0794 41.19 47.0794 41.11 47.0794 40.95C47.0994 40.79 47.1694 40.61 47.2894 40.41C47.4094 40.19 47.6294 40 47.9494 39.84C48.2894 39.66 48.7794 39.56 49.4194 39.54C50.2794 39.5 50.8894 39.6 51.2494 39.84C51.6294 40.06 51.8594 40.3 51.9394 40.56C52.0394 40.8 52.0894 40.93 52.0894 40.95C52.0894 40.97 52.0994 41.2 52.1194 41.64C52.1394 42.08 52.1594 42.62 52.1794 43.26C52.1994 43.9 52.2194 44.54 52.2394 45.18C52.2594 45.82 52.2794 46.36 52.2994 46.8C52.3194 47.22 52.3294 47.43 52.3294 47.43L55.5094 47.25L55.0294 41.22C55.0294 41.22 55.0194 41.15 54.9994 41.01C54.9994 40.85 55.0394 40.67 55.1194 40.47C55.2194 40.25 55.4194 40.05 55.7194 39.87C56.0394 39.67 56.5094 39.54 57.1294 39.48C57.7694 39.42 58.2594 39.46 58.5994 39.6C58.9394 39.72 59.1894 39.88 59.3494 40.08C59.5094 40.28 59.5994 40.46 59.6194 40.62C59.6594 40.78 59.6794 40.86 59.6794 40.86L60.6094 54.87C60.6094 54.87 60.6194 54.98 60.6394 55.2C60.6594 55.4 60.6294 55.65 60.5494 55.95C60.4694 56.23 60.2694 56.48 59.9494 56.7C59.6494 56.9 59.1794 57 58.5394 57C57.8994 57 57.3994 56.91 57.0394 56.73C56.6794 56.55 56.4194 56.35 56.2594 56.13C56.0994 55.89 55.9994 55.68 55.9594 55.5C55.9194 55.32 55.8994 55.23 55.8994 55.23L55.6894 49.47L52.4194 49.65L52.6894 55.53C52.6894 55.53 52.6794 55.61 52.6594 55.77C52.6394 55.91 52.5594 56.08 52.4194 56.28C52.2794 56.46 52.0394 56.63 51.6994 56.79C51.3594 56.93 50.8594 57 50.1994 57C49.5394 57 49.0294 56.92 48.6694 56.76C48.3294 56.58 48.0894 56.39 47.9494 56.19C47.8094 55.97 47.7194 55.78 47.6794 55.62C47.6594 55.44 47.6494 55.35 47.6494 55.35ZM65.0208 40.8C65.0008 40.8 65.0308 40.69 65.1108 40.47C65.2108 40.23 65.4308 40 65.7708 39.78C66.1108 39.56 66.6708 39.44 67.4508 39.42C68.1508 39.4 68.6808 39.49 69.0408 39.69C69.4008 39.87 69.6408 40.05 69.7608 40.23C69.9008 40.41 69.9708 40.5 69.9708 40.5C69.9708 40.5 70.0808 40.76 70.3008 41.28C70.5208 41.8 70.8208 42.49 71.2008 43.35C71.5808 44.19 72.0008 45.13 72.4608 46.17C72.9208 47.21 73.3808 48.27 73.8408 49.35C74.3208 50.41 74.7608 51.41 75.1608 52.35C75.5808 53.27 75.9308 54.05 76.2108 54.69C76.4908 55.31 76.6708 55.7 76.7508 55.86C76.9308 56.24 77.0308 56.51 77.0508 56.67C77.0708 56.83 77.0608 56.94 77.0208 57C77.0008 57.04 76.9908 57.07 76.9908 57.09C76.8508 57.37 76.5708 57.61 76.1508 57.81C75.7508 58.03 75.2608 58.15 74.6808 58.17C73.8808 58.19 73.3008 58.1 72.9408 57.9C72.5808 57.72 72.3408 57.53 72.2208 57.33C72.1208 57.15 72.0808 57.07 72.1008 57.09C72.1008 57.09 71.9908 56.86 71.7708 56.4C71.5708 55.94 71.3308 55.39 71.0508 54.75C70.7708 54.09 70.5108 53.49 70.2708 52.95C70.2708 52.95 70.1308 52.95 69.8508 52.95C69.5908 52.95 69.2808 52.95 68.9208 52.95C68.5608 52.95 68.2408 52.95 67.9608 52.95C67.7008 52.95 67.5708 52.95 67.5708 52.95C67.4908 53.23 67.4108 53.58 67.3308 54C67.2508 54.4 67.1808 54.76 67.1208 55.08C67.0608 55.4 67.0308 55.56 67.0308 55.56C67.0308 55.56 66.9808 55.68 66.8808 55.92C66.8008 56.16 66.5708 56.4 66.1908 56.64C65.8108 56.88 65.1808 57 64.3008 57C63.6408 57 63.1408 56.93 62.8008 56.79C62.4808 56.63 62.2608 56.45 62.1408 56.25C62.0408 56.05 61.9908 55.88 61.9908 55.74C61.9908 55.58 61.9908 55.5 61.9908 55.5C62.0308 55.3 62.1108 54.89 62.2308 54.27C62.3708 53.63 62.5308 52.87 62.7108 51.99C62.9108 51.09 63.1108 50.14 63.3108 49.14C63.5308 48.14 63.7408 47.15 63.9408 46.17C64.1408 45.19 64.3208 44.3 64.4808 43.5C64.6408 42.68 64.7708 42.03 64.8708 41.55C64.9708 41.05 65.0208 40.8 65.0208 40.8ZM68.1708 45.54C68.1508 45.62 68.1308 45.78 68.1108 46.02L67.9908 46.86C67.9508 47.32 67.9008 47.81 67.8408 48.33C67.7808 48.85 67.7208 49.34 67.6608 49.8C67.6208 50.04 67.5908 50.19 67.5708 50.25H67.9608C68.2008 50.25 68.4608 50.24 68.7408 50.22C69.0208 50.2 69.2708 50.19 69.4908 50.19C69.4108 50.03 69.3408 49.83 69.2808 49.59C69.2408 49.33 69.1908 49.09 69.1308 48.87C69.0108 48.41 68.8708 47.93 68.7108 47.43C68.5708 46.93 68.4408 46.46 68.3208 46.02C68.2608 45.78 68.2108 45.62 68.1708 45.54ZM79.6041 55.38L78.2241 42.3C78.2241 42.3 78.1941 42.24 78.1341 42.12C78.0941 42 78.0841 41.84 78.1041 41.64C78.1241 41.44 78.2341 41.23 78.4341 41.01C78.6541 40.79 79.0241 40.59 79.5441 40.41C80.2441 40.15 81.0641 39.94 82.0041 39.78C82.9641 39.6 83.9741 39.55 85.0341 39.63C86.1141 39.71 87.1741 40.03 88.2141 40.59C88.8341 40.91 89.2941 41.37 89.5941 41.97C89.8941 42.57 90.0741 43.21 90.1341 43.89C90.1941 44.57 90.1941 45.22 90.1341 45.84C90.0941 46.46 90.0241 46.97 89.9241 47.37C89.8441 47.77 89.8041 47.97 89.8041 47.97C89.8041 47.97 89.7341 48.12 89.5941 48.42C89.4541 48.72 89.1841 49.06 88.7841 49.44C88.4041 49.8 87.8441 50.09 87.1041 50.31L91.3641 54.9C91.3641 54.9 91.4341 54.98 91.5741 55.14C91.7141 55.3 91.8241 55.5 91.9041 55.74C92.0041 55.96 91.9841 56.19 91.8441 56.43C91.7241 56.65 91.3941 56.84 90.8541 57C90.2941 57.16 89.7941 57.2 89.3541 57.12C88.9341 57.04 88.5841 56.91 88.3041 56.73C88.0441 56.55 87.8441 56.38 87.7041 56.22C87.5641 56.06 87.4941 55.98 87.4941 55.98L83.5341 51.09L84.5241 55.32C84.5241 55.32 84.5441 55.41 84.5841 55.59C84.6241 55.75 84.6041 55.94 84.5241 56.16C84.4441 56.38 84.2441 56.58 83.9241 56.76C83.6041 56.92 83.0941 57 82.3941 57C81.6941 57 81.1441 56.92 80.7441 56.76C80.3641 56.6 80.0941 56.41 79.9341 56.19C79.7741 55.97 79.6741 55.78 79.6341 55.62C79.6141 55.46 79.6041 55.38 79.6041 55.38ZM82.4541 42.27L83.1741 48.3C83.1741 48.3 83.2841 48.31 83.5041 48.33C83.7441 48.35 84.0241 48.33 84.3441 48.27C84.6841 48.21 85.0041 48.07 85.3041 47.85C85.6241 47.61 85.8841 47.25 86.0841 46.77C86.2841 46.27 86.3541 45.59 86.2941 44.73C86.2341 43.91 86.0741 43.31 85.8141 42.93C85.5541 42.53 85.2341 42.28 84.8541 42.18C84.4741 42.06 84.0741 42.03 83.6541 42.09C83.2341 42.13 82.8341 42.19 82.4541 42.27ZM95.7506 42.75C95.4906 42.79 95.1206 42.82 94.6406 42.84C94.1606 42.84 93.6706 42.81 93.1706 42.75C92.6706 42.69 92.2406 42.58 91.8806 42.42C91.5206 42.24 91.3206 41.98 91.2806 41.64C91.2606 41.3 91.3606 41.03 91.5806 40.83C91.8206 40.63 92.1006 40.48 92.4206 40.38C92.7406 40.26 93.0206 40.19 93.2606 40.17C93.5206 40.13 93.6506 40.11 93.6506 40.11L102.051 39.33C102.051 39.33 102.191 39.33 102.471 39.33C102.751 39.31 103.071 39.32 103.431 39.36C103.811 39.4 104.151 39.5 104.451 39.66C104.751 39.8 104.911 40.03 104.931 40.35C104.971 40.67 104.871 40.94 104.631 41.16C104.411 41.36 104.141 41.53 103.821 41.67C103.501 41.79 103.221 41.88 102.981 41.94C102.741 41.98 102.621 42 102.621 42L100.701 42.3C100.781 42.8 100.871 43.51 100.971 44.43C101.071 45.33 101.171 46.33 101.271 47.43C101.371 48.53 101.461 49.61 101.541 50.67C101.621 51.73 101.681 52.68 101.721 53.52C101.781 54.36 101.811 54.96 101.811 55.32C101.811 55.78 101.681 56.13 101.421 56.37C101.181 56.59 100.891 56.75 100.551 56.85C100.231 56.93 99.9406 56.98 99.6806 57C99.4406 57 99.3206 57 99.3206 57C99.3206 57 99.1906 57 98.9306 57C98.6706 56.98 98.3706 56.9 98.0306 56.76C97.7106 56.62 97.4206 56.36 97.1606 55.98C96.9206 55.6 96.8006 55.03 96.8006 54.27C96.8006 53.59 96.7606 52.76 96.6806 51.78C96.6206 50.8 96.5406 49.79 96.4406 48.75C96.3406 47.69 96.2306 46.71 96.1106 45.81C96.0106 44.91 95.9206 44.18 95.8406 43.62C95.7806 43.04 95.7506 42.75 95.7506 42.75Z" fill="#212121"/>
</svg>
